<?xml version="1.0" encoding="UTF-8"?>
<!DOCTYPE svg PUBLIC "-//W3C//DTD SVG 1.1//EN" "http://www.w3.org/Graphics/SVG/1.1/DTD/svg11.dtd">
<svg xmlns="http://www.w3.org/2000/svg" version="1.1" width="500px" height="500px" style="shape-rendering:geometricPrecision; text-rendering:geometricPrecision; image-rendering:optimizeQuality; fill-rule:evenodd; clip-rule:evenodd" xmlns:xlink="http://www.w3.org/1999/xlink">
<g><path style="opacity:0.969" fill="#ec6ae9" d="M 268.5,153.5 C 273.36,153.46 277.693,154.793 281.5,157.5C 276.635,157.408 272.301,156.075 268.5,153.5 Z"/></g>
<g><path style="opacity:1" fill="#f62df8" d="M 230.5,167.5 C 230.047,168.458 229.381,169.292 228.5,170C 230.366,170.985 232.366,171.485 234.5,171.5C 241.385,167.751 248.718,164.751 256.5,162.5C 261.875,162.172 267.208,162.505 272.5,163.5C 277.717,167.703 282.883,172.037 288,176.5C 292.31,169.574 293.476,170.24 291.5,178.5C 292.175,181.178 292.842,183.844 293.5,186.5C 292.527,184.861 291.194,183.527 289.5,182.5C 287.577,179.397 285.41,176.397 283,173.5C 281.989,172.663 280.822,172.33 279.5,172.5C 275.604,168.89 270.937,166.89 265.5,166.5C 255.063,165.714 247.73,170.047 243.5,179.5C 242.417,179.539 241.417,179.873 240.5,180.5C 239.322,183.391 238.655,186.391 238.5,189.5C 238.5,214.5 238.5,239.5 238.5,264.5C 237.883,264.389 237.383,264.056 237,263.5C 236.667,239.5 236.333,215.5 236,191.5C 235.489,189.122 234.822,186.788 234,184.5C 231.546,186.013 229.879,185.346 229,182.5C 228.667,183.167 228.333,183.833 228,184.5C 226.44,179.799 224.273,175.465 221.5,171.5C 218.996,170.361 216.33,169.694 213.5,169.5C 212.833,169.5 212.167,169.5 211.5,169.5C 211.389,168.883 211.056,168.383 210.5,168C 207.173,167.39 203.839,166.89 200.5,166.5C 195.768,166.378 191.102,166.878 186.5,168C 184.576,169.75 182.909,171.583 181.5,173.5C 178.424,175.573 176.09,178.239 174.5,181.5C 173.207,182.842 172.374,184.509 172,186.5C 171.412,191.528 171.578,196.528 172.5,201.5C 171.778,201.082 171.278,200.416 171,199.5C 168.266,187.997 170.766,177.997 178.5,169.5C 183.889,165.111 189.556,161.111 195.5,157.5C 194.098,155.854 192.264,154.854 190,154.5C 186.895,155.367 183.728,155.701 180.5,155.5C 193.886,150.866 206.886,152.033 219.5,159C 222.866,162.335 226.532,165.168 230.5,167.5 Z"/></g>
<g><path style="opacity:1" fill="#f915fa" d="M 266.5,153.5 C 267.167,153.5 267.833,153.5 268.5,153.5C 272.301,156.075 276.635,157.408 281.5,157.5C 281.833,157.5 282.167,157.5 282.5,157.5C 282.302,160.77 283.802,162.77 287,163.5C 288.404,166.118 290.571,168.118 293.5,169.5C 294.298,171.078 294.798,172.744 295,174.5C 297.493,177.963 299.993,181.296 302.5,184.5C 304.145,189.234 304.811,194.234 304.5,199.5C 308.702,199.183 312.702,199.517 316.5,200.5C 319.322,201.827 321.989,203.66 324.5,206C 328.236,206.285 331.236,207.785 333.5,210.5C 331.956,210.297 330.622,209.63 329.5,208.5C 326.825,211.01 327.492,212.51 331.5,213C 330.606,214.104 329.606,215.27 328.5,216.5C 326.283,215.631 323.95,215.298 321.5,215.5C 319.214,215.405 317.214,214.738 315.5,213.5C 315.389,212.883 315.056,212.383 314.5,212C 309.522,210.501 304.522,210.334 299.5,211.5C 295.595,214.619 291.262,216.953 286.5,218.5C 287.184,216.815 288.517,215.815 290.5,215.5C 291.894,213.275 293.06,210.942 294,208.5C 294.636,201.144 294.469,193.811 293.5,186.5C 292.842,183.844 292.175,181.178 291.5,178.5C 293.476,170.24 292.31,169.574 288,176.5C 282.883,172.037 277.717,167.703 272.5,163.5C 267.208,162.505 261.875,162.172 256.5,162.5C 259.38,160.764 261.047,158.598 261.5,156C 260.552,155.517 259.552,155.351 258.5,155.5C 258.611,154.883 258.944,154.383 259.5,154C 261.81,153.503 264.143,153.337 266.5,153.5 Z"/></g>
<g><path style="opacity:1" fill="#d438e9" d="M 266.5,153.5 C 264.143,153.337 261.81,153.503 259.5,154C 258.944,154.383 258.611,154.883 258.5,155.5C 254.776,154.773 252.109,156.106 250.5,159.5C 249.289,158.726 249.289,157.893 250.5,157C 250,156.833 249.5,156.667 249,156.5C 245.876,157.828 242.71,158.828 239.5,159.5C 245.786,154.433 253.12,152.099 261.5,152.5C 263.369,152.507 265.036,152.84 266.5,153.5 Z"/></g>
<g><path style="opacity:1" fill="#df01fc" d="M 258.5,155.5 C 259.552,155.351 260.552,155.517 261.5,156C 261.047,158.598 259.38,160.764 256.5,162.5C 248.718,164.751 241.385,167.751 234.5,171.5C 232.366,171.485 230.366,170.985 228.5,170C 229.381,169.292 230.047,168.458 230.5,167.5C 234.244,165.671 237.244,163.004 239.5,159.5C 242.71,158.828 245.876,157.828 249,156.5C 249.5,156.667 250,156.833 250.5,157C 249.289,157.893 249.289,158.726 250.5,159.5C 252.109,156.106 254.776,154.773 258.5,155.5 Z"/></g>
<g><path style="opacity:0.984" fill="#d365e9" d="M 239.5,159.5 C 237.244,163.004 234.244,165.671 230.5,167.5C 230.511,165.983 231.177,164.816 232.5,164C 234.551,161.98 236.884,160.48 239.5,159.5 Z"/></g>
<g><path style="opacity:1" fill="#f989fa" d="M 265.5,166.5 C 266.167,167.167 266.833,167.833 267.5,168.5C 261.859,167.909 256.526,168.742 251.5,171C 250.748,171.671 250.414,172.504 250.5,173.5C 248.192,175.471 245.858,177.471 243.5,179.5C 247.73,170.047 255.063,165.714 265.5,166.5 Z"/></g>
<g><path style="opacity:1" fill="#cb6bfd" d="M 265.5,166.5 C 270.937,166.89 275.604,168.89 279.5,172.5C 279.5,173.167 279.5,173.833 279.5,174.5C 276.994,173.25 274.327,172.584 271.5,172.5C 271.5,171.5 271.5,170.5 271.5,169.5C 269.901,169.768 268.568,169.434 267.5,168.5C 266.833,167.833 266.167,167.167 265.5,166.5 Z"/></g>
<g><path style="opacity:1" fill="#f887fd" d="M 200.5,166.5 C 202.5,167.5 204.5,168.5 206.5,169.5C 200.491,169.334 194.491,169.501 188.5,170C 186.047,170.959 183.714,172.126 181.5,173.5C 182.909,171.583 184.576,169.75 186.5,168C 191.102,166.878 195.768,166.378 200.5,166.5 Z"/></g>
<g><path style="opacity:0.576" fill="#f5b2f9" d="M 267.5,168.5 C 268.568,169.434 269.901,169.768 271.5,169.5C 271.5,170.5 271.5,171.5 271.5,172.5C 264.392,170.984 257.392,171.318 250.5,173.5C 250.414,172.504 250.748,171.671 251.5,171C 256.526,168.742 261.859,167.909 267.5,168.5 Z"/></g>
<g><path style="opacity:1" fill="#c859fc" d="M 200.5,166.5 C 203.839,166.89 207.173,167.39 210.5,168C 211.056,168.383 211.389,168.883 211.5,169.5C 212.167,170.5 212.833,171.5 213.5,172.5C 213.5,173.167 213.5,173.833 213.5,174.5C 212.833,174.5 212.167,174.5 211.5,174.5C 210.046,172.563 208.379,170.897 206.5,169.5C 204.5,168.5 202.5,167.5 200.5,166.5 Z"/></g>
<g><path style="opacity:0.286" fill="#bf9df5" d="M 271.5,172.5 C 274.327,172.584 276.994,173.25 279.5,174.5C 279.5,175.833 279.5,177.167 279.5,178.5C 277.191,176.013 274.524,174.013 271.5,172.5 Z"/></g>
<g><path style="opacity:0.933" fill="#ee42ea" d="M 282.5,157.5 C 293,163.666 299.667,172.666 302.5,184.5C 299.993,181.296 297.493,177.963 295,174.5C 294.798,172.744 294.298,171.078 293.5,169.5C 290.571,168.118 288.404,166.118 287,163.5C 283.802,162.77 282.302,160.77 282.5,157.5 Z"/></g>
<g><path style="opacity:0.675" fill="#eaa9f4" d="M 206.5,169.5 C 208.379,170.897 210.046,172.563 211.5,174.5C 213.25,175.659 214.25,177.326 214.5,179.5C 207.906,171.858 199.573,169.358 189.5,172C 181.194,174.804 175.86,180.304 173.5,188.5C 173.674,186.139 174.007,183.806 174.5,181.5C 176.09,178.239 178.424,175.573 181.5,173.5C 183.714,172.126 186.047,170.959 188.5,170C 194.491,169.501 200.491,169.334 206.5,169.5 Z"/></g>
<g><path style="opacity:1" fill="#a065f6" d="M 279.5,174.5 C 280.496,174.414 281.329,174.748 282,175.5C 285.544,182.224 286.711,189.224 285.5,196.5C 285.384,193.14 285.051,189.807 284.5,186.5C 284.824,182.463 283.158,179.797 279.5,178.5C 279.5,177.167 279.5,175.833 279.5,174.5 Z"/></g>
<g><path style="opacity:1" fill="#7f11f4" d="M 155.5,199.5 C 155.175,192.378 155.841,185.378 157.5,178.5C 158.998,173.678 161.664,169.678 165.5,166.5C 167.886,165.627 169.886,164.127 171.5,162C 172.635,161.251 173.635,161.417 174.5,162.5C 171.248,163.649 169.415,165.982 169,169.5C 166.863,171.376 164.863,173.376 163,175.5C 161.645,182.193 160.312,188.859 159,195.5C 157.595,196.731 156.429,198.064 155.5,199.5 Z"/></g>
<g><path style="opacity:0.482" fill="#b57ee6" d="M 157.5,178.5 C 155.841,185.378 155.175,192.378 155.5,199.5C 154.833,199.5 154.167,199.5 153.5,199.5C 152.5,199.5 151.5,199.5 150.5,199.5C 151.568,198.566 152.901,198.232 154.5,198.5C 154.334,193.821 154.501,189.155 155,184.5C 155.566,182.277 156.4,180.277 157.5,178.5 Z"/></g>
<g><path style="opacity:0.804" fill="#b38df7" d="M 211.5,174.5 C 212.167,174.5 212.833,174.5 213.5,174.5C 214.474,175.635 215.641,176.635 217,177.5C 217.848,180.56 218.848,183.56 220,186.5C 220.828,203.338 220.662,220.005 219.5,236.5C 219.667,220.163 219.5,203.83 219,187.5C 217.758,184.681 216.258,182.015 214.5,179.5C 214.25,177.326 213.25,175.659 211.5,174.5 Z"/></g>
<g><path style="opacity:0.98" fill="#f98ff4" d="M 243.5,179.5 C 241.801,182.899 240.134,186.232 238.5,189.5C 238.655,186.391 239.322,183.391 240.5,180.5C 241.417,179.873 242.417,179.539 243.5,179.5 Z"/></g>
<g><path style="opacity:0.259" fill="#bd9ff4" d="M 279.5,178.5 C 283.158,179.797 284.824,182.463 284.5,186.5C 283.206,183.646 281.539,180.979 279.5,178.5 Z"/></g>
<g><path style="opacity:0.953" fill="#f37eee" d="M 174.5,181.5 C 174.007,183.806 173.674,186.139 173.5,188.5C 173.5,192.833 173.5,197.167 173.5,201.5C 173.167,201.5 172.833,201.5 172.5,201.5C 171.578,196.528 171.412,191.528 172,186.5C 172.374,184.509 173.207,182.842 174.5,181.5 Z"/></g>
<g><path style="opacity:1" fill="#f913fb" d="M 172.5,201.5 C 172.833,201.5 173.167,201.5 173.5,201.5C 174.828,203.793 176.161,206.127 177.5,208.5C 177.833,209.833 178.167,211.167 178.5,212.5C 179.933,214.558 180.6,216.892 180.5,219.5C 177.482,219.665 174.482,219.498 171.5,219C 167.89,217.056 164.557,214.723 161.5,212C 153.154,211.481 144.821,211.648 136.5,212.5C 137.842,211.207 139.509,210.374 141.5,210C 146.864,209.829 152.198,209.329 157.5,208.5C 159.835,205.834 161.669,202.834 163,199.5C 163.984,193.5 164.817,187.5 165.5,181.5C 171.006,171.335 178.673,163.169 188.5,157C 186.101,156.289 183.768,156.456 181.5,157.5C 180.702,157.043 180.369,156.376 180.5,155.5C 183.728,155.701 186.895,155.367 190,154.5C 192.264,154.854 194.098,155.854 195.5,157.5C 189.556,161.111 183.889,165.111 178.5,169.5C 170.766,177.997 168.266,187.997 171,199.5C 171.278,200.416 171.778,201.082 172.5,201.5 Z"/></g>
<g><path style="opacity:1" fill="#da0afe" d="M 289.5,182.5 C 291.194,183.527 292.527,184.861 293.5,186.5C 294.469,193.811 294.636,201.144 294,208.5C 293.06,210.942 291.894,213.275 290.5,215.5C 288.517,215.815 287.184,216.815 286.5,218.5C 285.833,218.5 285.5,218.833 285.5,219.5C 285.158,220.338 284.492,220.672 283.5,220.5C 283.5,220.167 283.5,219.833 283.5,219.5C 285.283,213.323 288.116,207.656 292,202.5C 293.194,195.478 292.361,188.811 289.5,182.5 Z"/></g>
<g><path style="opacity:1" fill="#f517fb" d="M 213.5,169.5 C 216.33,169.694 218.996,170.361 221.5,171.5C 224.273,175.465 226.44,179.799 228,184.5C 228.333,183.833 228.667,183.167 229,182.5C 229.879,185.346 231.546,186.013 234,184.5C 234.822,186.788 235.489,189.122 236,191.5C 236.333,215.5 236.667,239.5 237,263.5C 237.383,264.056 237.883,264.389 238.5,264.5C 262.065,265.469 285.398,265.802 308.5,265.5C 312.211,264.625 315.878,263.625 319.5,262.5C 319.047,263.458 318.381,264.292 317.5,265C 312.283,265.743 307.283,267.076 302.5,269C 304.402,269.199 305.902,270.033 307,271.5C 307.805,269.099 308.638,269.266 309.5,272C 306.367,272.911 303.367,273.244 300.5,273C 301.056,273.383 301.389,273.883 301.5,274.5C 279.883,273.526 258.049,273.193 236,273.5C 234.89,275.037 233.39,275.703 231.5,275.5C 232.279,272.925 232.113,270.592 231,268.5C 230.653,272.625 229.819,276.625 228.5,280.5C 229.64,298.142 229.807,315.808 229,333.5C 228.722,334.416 228.222,335.082 227.5,335.5C 227.667,319.497 227.5,303.497 227,287.5C 225.684,284.692 223.85,282.359 221.5,280.5C 219.584,278.023 216.917,277.023 213.5,277.5C 214.66,275.797 213.993,275.131 211.5,275.5C 210.432,274.566 209.099,274.232 207.5,274.5C 208.167,271.833 208.833,269.167 209.5,266.5C 211.167,266.5 212.833,266.5 214.5,266.5C 214.918,267.222 215.584,267.722 216.5,268C 216.167,268.333 215.833,268.667 215.5,269C 219.223,270.726 222.723,270.226 226,267.5C 227.132,253.219 227.632,238.885 227.5,224.5C 227.167,211.5 226.833,198.5 226.5,185.5C 225.77,181.608 224.103,178.275 221.5,175.5C 218.048,174.452 215.381,172.452 213.5,169.5 Z"/></g>
<g><path style="opacity:1" fill="#bf0cfb" d="M 180.5,155.5 C 180.369,156.376 180.702,157.043 181.5,157.5C 183.768,156.456 186.101,156.289 188.5,157C 178.673,163.169 171.006,171.335 165.5,181.5C 164.883,181.611 164.383,181.944 164,182.5C 164.194,189.257 162.694,195.59 159.5,201.5C 157.833,202.833 156.167,202.833 154.5,201.5C 154.863,200.817 155.196,200.15 155.5,199.5C 156.429,198.064 157.595,196.731 159,195.5C 160.312,188.859 161.645,182.193 163,175.5C 164.863,173.376 166.863,171.376 169,169.5C 169.415,165.982 171.248,163.649 174.5,162.5C 173.635,161.417 172.635,161.251 171.5,162C 169.886,164.127 167.886,165.627 165.5,166.5C 169.248,161.126 174.248,157.459 180.5,155.5 Z"/></g>
<g><path style="opacity:1" fill="#d347e8" d="M 150.5,199.5 C 151.5,199.5 152.5,199.5 153.5,199.5C 148.502,200.478 143.502,201.811 138.5,203.5C 136.5,203.5 134.5,203.5 132.5,203.5C 132.5,204.5 132.5,205.5 132.5,206.5C 129.549,206.287 126.882,206.954 124.5,208.5C 131.672,201.598 140.339,198.598 150.5,199.5 Z"/></g>
<g><path style="opacity:0.125" fill="#c585eb" d="M 285.5,197.5 C 285.662,199.527 285.495,201.527 285,203.5C 284.617,204.056 284.117,204.389 283.5,204.5C 283.927,201.99 284.593,199.657 285.5,197.5 Z"/></g>
<g><path style="opacity:1" fill="#9515fa" d="M 279.5,172.5 C 280.822,172.33 281.989,172.663 283,173.5C 285.41,176.397 287.577,179.397 289.5,182.5C 292.361,188.811 293.194,195.478 292,202.5C 288.116,207.656 285.283,213.323 283.5,219.5C 281.833,219.5 280.167,219.5 278.5,219.5C 278.39,215.39 279.39,211.723 281.5,208.5C 281.66,206.847 282.326,205.514 283.5,204.5C 284.117,204.389 284.617,204.056 285,203.5C 285.495,201.527 285.662,199.527 285.5,197.5C 285.5,197.167 285.5,196.833 285.5,196.5C 286.711,189.224 285.544,182.224 282,175.5C 281.329,174.748 280.496,174.414 279.5,174.5C 279.5,173.833 279.5,173.167 279.5,172.5 Z"/></g>
<g><path style="opacity:1" fill="#eb53e8" d="M 316.5,200.5 C 333.321,203.989 343.987,213.989 348.5,230.5C 347.542,230.047 346.708,229.381 346,228.5C 343.825,224.336 341.825,220.003 340,215.5C 337.648,213.97 335.481,212.303 333.5,210.5C 331.236,207.785 328.236,206.285 324.5,206C 321.989,203.66 319.322,201.827 316.5,200.5 Z"/></g>
<g><path style="opacity:1" fill="#e411fd" d="M 165.5,181.5 C 164.817,187.5 163.984,193.5 163,199.5C 161.669,202.834 159.835,205.834 157.5,208.5C 152.198,209.329 146.864,209.829 141.5,210C 139.509,210.374 137.842,211.207 136.5,212.5C 136.489,214.017 135.823,215.184 134.5,216C 129.825,216.857 126.492,219.357 124.5,223.5C 123.504,223.414 122.671,223.748 122,224.5C 121.85,229.572 121.683,234.572 121.5,239.5C 120.713,238.758 120.047,237.925 119.5,237C 120.747,235.506 120.747,234.006 119.5,232.5C 117.121,239.747 116.954,247.081 119,254.5C 121.215,257.596 122.881,260.929 124,264.5C 126.119,265.651 127.953,267.151 129.5,269C 135.691,272.505 142.191,275.005 149,276.5C 152.804,280.783 154.304,285.783 153.5,291.5C 153.252,309.187 153.586,326.854 154.5,344.5C 153.698,343.048 153.198,341.382 153,339.5C 152.783,320.476 152.283,301.476 151.5,282.5C 150.5,282.5 149.5,282.5 148.5,282.5C 148.5,281.167 147.833,280.5 146.5,280.5C 145.791,279.596 144.791,279.263 143.5,279.5C 143.5,278.5 143.5,277.5 143.5,276.5C 139.096,276.656 135.429,275.156 132.5,272C 131.207,271.51 129.873,271.343 128.5,271.5C 127.972,270.279 127.305,269.113 126.5,268C 124.671,267.727 123.171,266.893 122,265.5C 121.867,262.596 120.7,260.262 118.5,258.5C 115.247,246.569 116.08,234.902 121,223.5C 124.256,221.318 126.256,218.318 127,214.5C 131.378,211.286 135.211,207.62 138.5,203.5C 143.502,201.811 148.502,200.478 153.5,199.5C 154.167,199.5 154.833,199.5 155.5,199.5C 155.196,200.15 154.863,200.817 154.5,201.5C 156.167,202.833 157.833,202.833 159.5,201.5C 162.694,195.59 164.194,189.257 164,182.5C 164.383,181.944 164.883,181.611 165.5,181.5 Z"/></g>
<g><path style="opacity:1" fill="#fb14fc" d="M 333.5,210.5 C 335.481,212.303 337.648,213.97 340,215.5C 341.825,220.003 343.825,224.336 346,228.5C 346.708,229.381 347.542,230.047 348.5,230.5C 348.5,230.833 348.5,231.167 348.5,231.5C 348.666,237.509 348.499,243.509 348,249.5C 345.679,255.123 343.513,260.789 341.5,266.5C 340.391,266.557 339.391,266.89 338.5,267.5C 336.824,268.183 336.157,269.517 336.5,271.5C 335.5,271.5 334.5,271.5 333.5,271.5C 333.674,273.861 334.007,276.194 334.5,278.5C 332.673,276.439 330.34,275.106 327.5,274.5C 328.376,273.749 329.376,273.249 330.5,273C 329.978,272.439 329.645,271.772 329.5,271C 330.833,269.333 332.167,267.667 333.5,266C 333.011,264.862 332.678,263.695 332.5,262.5C 333.566,260.299 334.233,257.965 334.5,255.5C 335.5,255.5 336.5,255.5 337.5,255.5C 341.152,245.218 341.319,234.885 338,224.5C 334.349,222.344 331.183,219.678 328.5,216.5C 329.606,215.27 330.606,214.104 331.5,213C 327.492,212.51 326.825,211.01 329.5,208.5C 330.622,209.63 331.956,210.297 333.5,210.5 Z"/></g>
<g><path style="opacity:0.471" fill="#cb74f1" d="M 124.5,208.5 C 123.415,210.587 121.749,211.92 119.5,212.5C 120.585,210.413 122.251,209.08 124.5,208.5 Z"/></g>
<g><path style="opacity:0.669" fill="#7f43e1" d="M 213.5,172.5 C 218.504,175.834 221.504,180.5 222.5,186.5C 221.51,212.092 221.176,237.759 221.5,263.5C 220.833,263.833 220.167,264.167 219.5,264.5C 219.5,255.167 219.5,245.833 219.5,236.5C 220.662,220.005 220.828,203.338 220,186.5C 218.848,183.56 217.848,180.56 217,177.5C 215.641,176.635 214.474,175.635 213.5,174.5C 213.5,173.833 213.5,173.167 213.5,172.5 Z"/></g>
<g><path style="opacity:1" fill="#e782f9" d="M 177.5,208.5 C 182.811,212.67 183.811,217.67 180.5,223.5C 178.608,224.851 176.442,225.518 174,225.5C 170.202,224.847 166.702,223.514 163.5,221.5C 162.708,219.743 161.375,218.409 159.5,217.5C 147.817,214.066 137.983,216.733 130,225.5C 128.991,227.025 128.491,228.692 128.5,230.5C 128.598,232.553 127.931,234.22 126.5,235.5C 126.844,231.772 127.51,228.105 128.5,224.5C 136.325,214.168 146.658,210.668 159.5,214C 164.855,218.177 170.855,221.01 177.5,222.5C 180.484,222.214 181.817,220.548 181.5,217.5C 181.714,215.058 180.714,213.392 178.5,212.5C 178.167,211.167 177.833,209.833 177.5,208.5 Z"/></g>
<g><path style="opacity:1" fill="#fb52fd" d="M 315.5,213.5 C 309.971,213.348 304.471,213.682 299,214.5C 294.921,217.03 290.421,218.696 285.5,219.5C 285.5,218.833 285.833,218.5 286.5,218.5C 291.262,216.953 295.595,214.619 299.5,211.5C 304.522,210.334 309.522,210.501 314.5,212C 315.056,212.383 315.389,212.883 315.5,213.5 Z"/></g>
<g><path style="opacity:1" fill="#f873fc" d="M 315.5,213.5 C 317.214,214.738 319.214,215.405 321.5,215.5C 321.5,215.833 321.5,216.167 321.5,216.5C 319.435,216.483 317.435,216.15 315.5,215.5C 309.824,214.199 304.157,214.365 298.5,216C 294.393,220.285 289.393,222.452 283.5,222.5C 283.5,221.833 283.5,221.167 283.5,220.5C 284.492,220.672 285.158,220.338 285.5,219.5C 290.421,218.696 294.921,217.03 299,214.5C 304.471,213.682 309.971,213.348 315.5,213.5 Z"/></g>
<g><path style="opacity:0.996" fill="#a649ea" d="M 119.5,212.5 C 119.278,215.504 118.278,218.171 116.5,220.5C 115.061,222.36 113.395,224.027 111.5,225.5C 112.903,220.355 115.57,216.021 119.5,212.5 Z"/></g>
<g><path style="opacity:0.792" fill="#f2b1f4" d="M 163.5,221.5 C 149.331,214.805 137.664,217.805 128.5,230.5C 128.491,228.692 128.991,227.025 130,225.5C 137.983,216.733 147.817,214.066 159.5,217.5C 161.375,218.409 162.708,219.743 163.5,221.5 Z"/></g>
<g><path style="opacity:1" fill="#8b45f2" d="M 281.5,208.5 C 279.39,211.723 278.39,215.39 278.5,219.5C 280.167,219.5 281.833,219.5 283.5,219.5C 283.5,219.833 283.5,220.167 283.5,220.5C 283.5,221.167 283.5,221.833 283.5,222.5C 281.712,222.785 280.045,222.452 278.5,221.5C 277.607,218.916 277.274,216.249 277.5,213.5C 278.08,211.251 279.413,209.585 281.5,208.5 Z"/></g>
<g><path style="opacity:1" fill="#f63dfa" d="M 178.5,212.5 C 180.714,213.392 181.714,215.058 181.5,217.5C 181.817,220.548 180.484,222.214 177.5,222.5C 170.855,221.01 164.855,218.177 159.5,214C 146.658,210.668 136.325,214.168 128.5,224.5C 127.51,228.105 126.844,231.772 126.5,235.5C 126.5,236.167 126.5,236.833 126.5,237.5C 125.833,240.833 125.167,244.167 124.5,247.5C 123.928,239.447 123.928,231.447 124.5,223.5C 126.492,219.357 129.825,216.857 134.5,216C 135.823,215.184 136.489,214.017 136.5,212.5C 144.821,211.648 153.154,211.481 161.5,212C 164.557,214.723 167.89,217.056 171.5,219C 174.482,219.498 177.482,219.665 180.5,219.5C 180.6,216.892 179.933,214.558 178.5,212.5 Z"/></g>
<g><path style="opacity:1" fill="#e098f7" d="M 277.5,213.5 C 277.274,216.249 277.607,218.916 278.5,221.5C 280.045,222.452 281.712,222.785 283.5,222.5C 289.393,222.452 294.393,220.285 298.5,216C 304.157,214.365 309.824,214.199 315.5,215.5C 317.967,217.17 320.633,218.837 323.5,220.5C 325.278,222.264 326.611,224.264 327.5,226.5C 318.556,217.348 308.223,215.348 296.5,220.5C 293.446,221.196 290.78,222.696 288.5,225C 284.897,225.843 281.564,225.343 278.5,223.5C 277.028,221.883 276.361,219.883 276.5,217.5C 276.511,215.955 276.844,214.622 277.5,213.5 Z"/></g>
<g><path style="opacity:0.361" fill="#efc3f5" d="M 296.5,220.5 C 293.586,224.213 289.753,226.546 285,227.5C 282.076,227.293 279.91,225.96 278.5,223.5C 281.564,225.343 284.897,225.843 288.5,225C 290.78,222.696 293.446,221.196 296.5,220.5 Z"/></g>
<g><path style="opacity:0.016" fill="#ebc0f6" d="M 163.5,221.5 C 166.702,223.514 170.202,224.847 174,225.5C 176.442,225.518 178.608,224.851 180.5,223.5C 176.868,227.938 172.535,228.605 167.5,225.5C 166.091,224.151 164.757,222.818 163.5,221.5 Z"/></g>
<g><path style="opacity:1" fill="#9c5bf3" d="M 315.5,215.5 C 317.435,216.15 319.435,216.483 321.5,216.5C 323.537,217.846 325.537,219.18 327.5,220.5C 328.405,222.911 329.905,224.911 332,226.5C 332.427,230.676 332.927,234.842 333.5,239C 333.486,240.385 333.152,241.551 332.5,242.5C 332.31,236.647 330.643,231.314 327.5,226.5C 326.611,224.264 325.278,222.264 323.5,220.5C 320.633,218.837 317.967,217.17 315.5,215.5 Z"/></g>
<g><path style="opacity:1" fill="#7902fb" d="M 222.5,186.5 C 223.151,187.091 223.818,187.757 224.5,188.5C 225.666,212.826 225.833,237.16 225,261.5C 224.433,263.983 223.267,264.65 221.5,263.5C 221.176,237.759 221.51,212.092 222.5,186.5 Z"/></g>
<g><path style="opacity:1" fill="#7a09fa" d="M 116.5,220.5 C 117.043,220.56 117.376,220.893 117.5,221.5C 113.131,232.664 112.464,243.997 115.5,255.5C 110.452,246.294 109.119,236.294 111.5,225.5C 113.395,224.027 115.061,222.36 116.5,220.5 Z"/></g>
<g><path style="opacity:1" fill="#b104fb" d="M 138.5,203.5 C 135.211,207.62 131.378,211.286 127,214.5C 126.256,218.318 124.256,221.318 121,223.5C 116.08,234.902 115.247,246.569 118.5,258.5C 117.728,257.306 116.728,256.306 115.5,255.5C 112.464,243.997 113.131,232.664 117.5,221.5C 117.376,220.893 117.043,220.56 116.5,220.5C 118.278,218.171 119.278,215.504 119.5,212.5C 121.749,211.92 123.415,210.587 124.5,208.5C 126.882,206.954 129.549,206.287 132.5,206.5C 132.5,205.5 132.5,204.5 132.5,203.5C 134.5,203.5 136.5,203.5 138.5,203.5 Z"/></g>
<g><path style="opacity:1" fill="#be07fc" d="M 211.5,169.5 C 212.167,169.5 212.833,169.5 213.5,169.5C 215.381,172.452 218.048,174.452 221.5,175.5C 224.103,178.275 225.77,181.608 226.5,185.5C 226.833,198.5 227.167,211.5 227.5,224.5C 227.632,238.885 227.132,253.219 226,267.5C 222.723,270.226 219.223,270.726 215.5,269C 215.833,268.667 216.167,268.333 216.5,268C 215.584,267.722 214.918,267.222 214.5,266.5C 216.781,266.923 218.448,266.256 219.5,264.5C 220.167,264.167 220.833,263.833 221.5,263.5C 223.267,264.65 224.433,263.983 225,261.5C 225.833,237.16 225.666,212.826 224.5,188.5C 223.818,187.757 223.151,187.091 222.5,186.5C 221.504,180.5 218.504,175.834 213.5,172.5C 212.833,171.5 212.167,170.5 211.5,169.5 Z"/></g>
<g><path style="opacity:1" fill="#9715fa" d="M 327.5,220.5 C 329.012,222.317 331.012,223.317 333.5,223.5C 334.111,226.721 335.278,229.721 337,232.5C 339.834,244.66 336.667,254.826 327.5,263C 324.457,263.862 323.457,263.029 324.5,260.5C 325.508,258.661 327.008,257.328 329,256.5C 329.49,255.207 329.657,253.873 329.5,252.5C 330.922,249.329 331.922,245.996 332.5,242.5C 333.152,241.551 333.486,240.385 333.5,239C 332.927,234.842 332.427,230.676 332,226.5C 329.905,224.911 328.405,222.911 327.5,220.5 Z"/></g>
<g><path style="opacity:1" fill="#ee56ea" d="M 126.5,237.5 C 125.957,248.079 129.957,256.412 138.5,262.5C 136.565,261.85 134.565,261.517 132.5,261.5C 130.755,257.712 128.255,254.379 125,251.5C 124.51,250.207 124.343,248.873 124.5,247.5C 125.167,244.167 125.833,240.833 126.5,237.5 Z"/></g>
<g><path style="opacity:0.957" fill="#f58cf2" d="M 348.5,231.5 C 351.382,241.305 350.549,250.972 346,260.5C 344.723,262.747 343.223,264.747 341.5,266.5C 343.513,260.789 345.679,255.123 348,249.5C 348.499,243.509 348.666,237.509 348.5,231.5 Z"/></g>
<g><path style="opacity:0.455" fill="#cb6ced" d="M 329.5,252.5 C 329.657,253.873 329.49,255.207 329,256.5C 327.008,257.328 325.508,258.661 324.5,260.5C 323.833,260.5 323.167,260.5 322.5,260.5C 324.862,257.808 327.196,255.141 329.5,252.5 Z"/></g>
<g><path style="opacity:1" fill="#c094f6" d="M 109.5,250.5 C 112.12,256.007 115.12,261.34 118.5,266.5C 120.893,267.095 122.727,268.428 124,270.5C 124.333,270.167 124.667,269.833 125,269.5C 125.816,270.823 126.983,271.489 128.5,271.5C 133.389,276.028 139.056,279.028 145.5,280.5C 145.5,303.167 145.5,325.833 145.5,348.5C 144.833,326.5 144.167,304.5 143.5,282.5C 139.858,280.776 136.192,278.942 132.5,277C 131.207,276.51 129.873,276.343 128.5,276.5C 117.786,271.085 111.452,262.418 109.5,250.5 Z"/></g>
<g><path style="opacity:1" fill="#9247f6" d="M 111.5,225.5 C 109.119,236.294 110.452,246.294 115.5,255.5C 116.728,256.306 117.728,257.306 118.5,258.5C 120.7,260.262 121.867,262.596 122,265.5C 123.171,266.893 124.671,267.727 126.5,268C 127.305,269.113 127.972,270.279 128.5,271.5C 126.983,271.489 125.816,270.823 125,269.5C 124.667,269.833 124.333,270.167 124,270.5C 122.727,268.428 120.893,267.095 118.5,266.5C 115.12,261.34 112.12,256.007 109.5,250.5C 108.379,244.582 108.212,238.582 109,232.5C 109.39,229.896 110.224,227.562 111.5,225.5 Z"/></g>
<g><path style="opacity:0.2" fill="#f0a6f2" d="M 322.5,260.5 C 322.027,261.906 321.027,262.573 319.5,262.5C 319.973,261.094 320.973,260.427 322.5,260.5 Z"/></g>
<g><path style="opacity:1" fill="#f905fc" d="M 124.5,223.5 C 123.928,231.447 123.928,239.447 124.5,247.5C 124.343,248.873 124.51,250.207 125,251.5C 128.255,254.379 130.755,257.712 132.5,261.5C 134.565,261.517 136.565,261.85 138.5,262.5C 139.007,263.859 140.007,264.859 141.5,265.5C 146.127,266.429 150.794,267.096 155.5,267.5C 173.483,266.554 191.483,266.22 209.5,266.5C 208.833,269.167 208.167,271.833 207.5,274.5C 209.099,274.232 210.432,274.566 211.5,275.5C 194.154,275.367 176.821,275.7 159.5,276.5C 159.251,280.822 157.584,281.822 154.5,279.5C 154.167,279.833 153.833,280.167 153.5,280.5C 154.348,282.409 154.682,284.409 154.5,286.5C 154.784,288.415 154.451,290.081 153.5,291.5C 154.304,285.783 152.804,280.783 149,276.5C 142.191,275.005 135.691,272.505 129.5,269C 127.953,267.151 126.119,265.651 124,264.5C 122.881,260.929 121.215,257.596 119,254.5C 116.954,247.081 117.121,239.747 119.5,232.5C 120.747,234.006 120.747,235.506 119.5,237C 120.047,237.925 120.713,238.758 121.5,239.5C 121.683,234.572 121.85,229.572 122,224.5C 122.671,223.748 123.504,223.414 124.5,223.5 Z"/></g>
<g><path style="opacity:1" fill="#ee5eeb" d="M 138.5,262.5 C 142.585,263.765 146.751,264.765 151,265.5C 173.401,264.796 196.234,264.463 219.5,264.5C 218.448,266.256 216.781,266.923 214.5,266.5C 212.833,266.5 211.167,266.5 209.5,266.5C 191.483,266.22 173.483,266.554 155.5,267.5C 150.794,267.096 146.127,266.429 141.5,265.5C 140.007,264.859 139.007,263.859 138.5,262.5 Z"/></g>
<g><path style="opacity:1" fill="#e211fc" d="M 321.5,216.5 C 321.5,216.167 321.5,215.833 321.5,215.5C 323.95,215.298 326.283,215.631 328.5,216.5C 331.183,219.678 334.349,222.344 338,224.5C 341.319,234.885 341.152,245.218 337.5,255.5C 336.5,255.5 335.5,255.5 334.5,255.5C 334.233,257.965 333.566,260.299 332.5,262.5C 329.546,265.316 326.212,267.649 322.5,269.5C 321.727,271.813 321.06,274.146 320.5,276.5C 321.729,277.281 323.062,277.781 324.5,278C 326.029,281.029 328.362,283.195 331.5,284.5C 334.269,289.039 336.769,293.706 339,298.5C 339.747,305.882 339.414,313.215 338,320.5C 335.347,322.421 334.513,324.754 335.5,327.5C 334.417,327.539 333.417,327.873 332.5,328.5C 331.772,330.193 330.772,331.693 329.5,333C 323.459,336.098 317.126,337.432 310.5,337C 307.924,335.878 305.257,334.878 302.5,334C 300.158,332.608 300.158,331.775 302.5,331.5C 308.701,333.149 314.701,332.482 320.5,329.5C 327.235,329.277 332.402,326.277 336,320.5C 338.245,313.654 338.911,306.654 338,299.5C 337.722,298.584 337.222,297.918 336.5,297.5C 333.551,293.214 330.218,289.214 326.5,285.5C 325.797,283.284 324.464,281.451 322.5,280C 318.732,277.944 314.732,276.778 310.5,276.5C 307.655,275.656 304.655,274.99 301.5,274.5C 301.389,273.883 301.056,273.383 300.5,273C 303.367,273.244 306.367,272.911 309.5,272C 308.638,269.266 307.805,269.099 307,271.5C 305.902,270.033 304.402,269.199 302.5,269C 307.283,267.076 312.283,265.743 317.5,265C 318.381,264.292 319.047,263.458 319.5,262.5C 321.027,262.573 322.027,261.906 322.5,260.5C 323.167,260.5 323.833,260.5 324.5,260.5C 323.457,263.029 324.457,263.862 327.5,263C 336.667,254.826 339.834,244.66 337,232.5C 335.278,229.721 334.111,226.721 333.5,223.5C 331.012,223.317 329.012,222.317 327.5,220.5C 325.537,219.18 323.537,217.846 321.5,216.5 Z"/></g>
<g><path style="opacity:0.259" fill="#f4acf3" d="M 341.5,266.5 C 340.54,268.461 339.207,270.127 337.5,271.5C 337.433,270.041 337.766,268.708 338.5,267.5C 339.391,266.89 340.391,266.557 341.5,266.5 Z"/></g>
<g><path style="opacity:1" fill="#ab53f3" d="M 128.5,271.5 C 129.873,271.343 131.207,271.51 132.5,272C 135.429,275.156 139.096,276.656 143.5,276.5C 143.5,277.5 143.5,278.5 143.5,279.5C 144.791,279.263 145.791,279.596 146.5,280.5C 146.5,303.5 146.5,326.5 146.5,349.5C 146.167,349.5 145.833,349.5 145.5,349.5C 145.5,349.167 145.5,348.833 145.5,348.5C 145.5,325.833 145.5,303.167 145.5,280.5C 139.056,279.028 133.389,276.028 128.5,271.5 Z"/></g>
<g><path style="opacity:1" fill="#f466f9" d="M 310.5,276.5 C 314.732,276.778 318.732,277.944 322.5,280C 324.464,281.451 325.797,283.284 326.5,285.5C 322.901,282.164 318.568,280.164 313.5,279.5C 290.337,278.337 267.004,278.17 243.5,279C 241.119,279.223 239.453,280.39 238.5,282.5C 238.5,282.833 238.5,283.167 238.5,283.5C 238.5,308.833 238.5,334.167 238.5,359.5C 236.515,343.2 235.848,326.534 236.5,309.5C 236.334,300.494 236.5,291.494 237,282.5C 237.481,280.522 238.647,279.189 240.5,278.5C 263.801,277.168 287.134,276.501 310.5,276.5 Z"/></g>
<g><path style="opacity:0.627" fill="#d2b6f3" d="M 128.5,276.5 C 129.873,276.343 131.207,276.51 132.5,277C 136.192,278.942 139.858,280.776 143.5,282.5C 137.864,281.84 132.864,279.84 128.5,276.5 Z"/></g>
<g><path style="opacity:1" fill="#f36dfb" d="M 213.5,277.5 C 216.917,277.023 219.584,278.023 221.5,280.5C 221.672,281.492 221.338,282.158 220.5,282.5C 219.653,281.034 218.32,280.2 216.5,280C 200.5,279.333 184.5,279.333 168.5,280C 166.509,280.374 164.842,281.207 163.5,282.5C 162.549,283.919 162.216,285.585 162.5,287.5C 161.371,285.372 161.204,283.039 162,280.5C 163.171,279.107 164.671,278.273 166.5,278C 182.163,277.5 197.83,277.333 213.5,277.5 Z"/></g>
<g><path style="opacity:1" fill="#ef9ffc" d="M 220.5,282.5 C 220.5,294.167 220.5,305.833 220.5,317.5C 219.505,306.346 219.172,295.012 219.5,283.5C 218.653,282.034 217.32,281.2 215.5,281C 200.167,280.333 184.833,280.333 169.5,281C 167.75,282.319 165.75,282.819 163.5,282.5C 164.842,281.207 166.509,280.374 168.5,280C 184.5,279.333 200.5,279.333 216.5,280C 218.32,280.2 219.653,281.034 220.5,282.5 Z"/></g>
<g><path style="opacity:1" fill="#fa88fd" d="M 313.5,279.5 C 315.031,280.925 314.698,281.591 312.5,281.5C 303.173,280.834 293.673,280.5 284,280.5C 270.961,280.282 258.127,280.948 245.5,282.5C 243.167,282.5 240.833,282.5 238.5,282.5C 239.453,280.39 241.119,279.223 243.5,279C 267.004,278.17 290.337,278.337 313.5,279.5 Z"/></g>
<g><path style="opacity:0.663" fill="#f9cafb" d="M 219.5,283.5 C 200.833,283.5 182.167,283.5 163.5,283.5C 163.5,283.167 163.5,282.833 163.5,282.5C 165.75,282.819 167.75,282.319 169.5,281C 184.833,280.333 200.167,280.333 215.5,281C 217.32,281.2 218.653,282.034 219.5,283.5 Z"/></g>
<g><path style="opacity:0.867" fill="#f8a3fc" d="M 312.5,281.5 C 290.162,281.59 267.829,281.923 245.5,282.5C 258.127,280.948 270.961,280.282 284,280.5C 293.673,280.5 303.173,280.834 312.5,281.5 Z"/></g>
<g><path style="opacity:0.173" fill="#f2b7f3" d="M 312.5,281.5 C 312.5,281.833 312.5,282.167 312.5,282.5C 298.99,282.171 285.656,282.504 272.5,283.5C 261.167,283.5 249.833,283.5 238.5,283.5C 238.5,283.167 238.5,282.833 238.5,282.5C 240.833,282.5 243.167,282.5 245.5,282.5C 267.829,281.923 290.162,281.59 312.5,281.5 Z"/></g>
<g><path style="opacity:0.077" fill="#f7ddfc" d="M 272.5,283.5 C 285.656,282.504 298.99,282.171 312.5,282.5C 314.199,282.34 315.866,282.506 317.5,283C 318.756,283.417 319.423,284.25 319.5,285.5C 318.078,285.291 316.745,284.791 315.5,284C 301.171,283.5 286.837,283.333 272.5,283.5 Z"/></g>
<g><path style="opacity:1" fill="#f058eb" d="M 338.5,267.5 C 337.766,268.708 337.433,270.041 337.5,271.5C 336.722,272.156 336.056,272.989 335.5,274C 342.298,280.098 346.631,287.598 348.5,296.5C 346.018,292.407 343.351,288.407 340.5,284.5C 339.548,282.955 339.215,281.288 339.5,279.5C 337.784,279.371 336.117,279.038 334.5,278.5C 334.007,276.194 333.674,273.861 333.5,271.5C 334.5,271.5 335.5,271.5 336.5,271.5C 336.157,269.517 336.824,268.183 338.5,267.5 Z"/></g>
<g><path style="opacity:1" fill="#fa07fc" d="M 332.5,262.5 C 332.678,263.695 333.011,264.862 333.5,266C 332.167,267.667 330.833,269.333 329.5,271C 329.645,271.772 329.978,272.439 330.5,273C 329.376,273.249 328.376,273.749 327.5,274.5C 330.34,275.106 332.673,276.439 334.5,278.5C 336.117,279.038 337.784,279.371 339.5,279.5C 339.215,281.288 339.548,282.955 340.5,284.5C 343.351,288.407 346.018,292.407 348.5,296.5C 348.5,296.833 348.5,297.167 348.5,297.5C 348.782,302.927 348.449,308.26 347.5,313.5C 342.923,317.76 338.923,322.427 335.5,327.5C 334.513,324.754 335.347,322.421 338,320.5C 339.414,313.215 339.747,305.882 339,298.5C 336.769,293.706 334.269,289.039 331.5,284.5C 328.362,283.195 326.029,281.029 324.5,278C 323.062,277.781 321.729,277.281 320.5,276.5C 321.06,274.146 321.727,271.813 322.5,269.5C 326.212,267.649 329.546,265.316 332.5,262.5 Z"/></g>
<g><path style="opacity:1" fill="#bd84f5" d="M 313.5,279.5 C 318.568,280.164 322.901,282.164 326.5,285.5C 327.707,290.03 329.374,294.363 331.5,298.5C 328.233,293.564 324.233,289.23 319.5,285.5C 319.423,284.25 318.756,283.417 317.5,283C 315.866,282.506 314.199,282.34 312.5,282.5C 312.5,282.167 312.5,281.833 312.5,281.5C 314.698,281.591 315.031,280.925 313.5,279.5 Z"/></g>
<g><path style="opacity:1" fill="#fa06fd" d="M 154.5,286.5 C 156.084,287.382 157.751,288.215 159.5,289C 159.167,289.333 158.833,289.667 158.5,290C 160.312,306.264 161.145,322.764 161,339.5C 161.717,340.044 162.217,340.711 162.5,341.5C 156.006,343.612 156.339,345.446 163.5,347C 160.854,347.497 158.187,347.664 155.5,347.5C 155.167,347.5 154.833,347.5 154.5,347.5C 154.5,346.5 154.5,345.5 154.5,344.5C 153.586,326.854 153.252,309.187 153.5,291.5C 154.451,290.081 154.784,288.415 154.5,286.5 Z"/></g>
<g><path style="opacity:1" fill="#9337f3" d="M 326.5,285.5 C 330.218,289.214 333.551,293.214 336.5,297.5C 334.845,302.256 334.012,307.256 334,312.5C 333.059,314.727 331.892,316.727 330.5,318.5C 330.5,317.5 330.5,316.5 330.5,315.5C 331.11,314.609 331.443,313.609 331.5,312.5C 332.972,310.883 333.639,308.883 333.5,306.5C 333.333,305.167 333.167,303.833 333,302.5C 332.617,301.944 332.117,301.611 331.5,301.5C 331.5,300.5 331.5,299.5 331.5,298.5C 329.374,294.363 327.707,290.03 326.5,285.5 Z"/></g>
<g><path style="opacity:1" fill="#f034f0" d="M 211.5,275.5 C 213.993,275.131 214.66,275.797 213.5,277.5C 197.83,277.333 182.163,277.5 166.5,278C 164.671,278.273 163.171,279.107 162,280.5C 161.204,283.039 161.371,285.372 162.5,287.5C 161.847,305.199 162.514,322.532 164.5,339.5C 177.631,339.233 190.964,339.233 204.5,339.5C 209.5,339.5 214.5,339.5 219.5,339.5C 217.031,340.317 214.365,340.817 211.5,341C 196.592,341.175 181.759,341.675 167,342.5C 165.644,341.62 164.144,341.286 162.5,341.5C 162.217,340.711 161.717,340.044 161,339.5C 161.145,322.764 160.312,306.264 158.5,290C 158.833,289.667 159.167,289.333 159.5,289C 157.751,288.215 156.084,287.382 154.5,286.5C 154.682,284.409 154.348,282.409 153.5,280.5C 153.833,280.167 154.167,279.833 154.5,279.5C 157.584,281.822 159.251,280.822 159.5,276.5C 176.821,275.7 194.154,275.367 211.5,275.5 Z"/></g>
<g><path style="opacity:0.302" fill="#ba7ce9" d="M 331.5,301.5 C 332.117,301.611 332.617,301.944 333,302.5C 333.167,303.833 333.333,305.167 333.5,306.5C 333.639,308.883 332.972,310.883 331.5,312.5C 332.833,308.833 332.833,305.167 331.5,301.5 Z"/></g>
<g><path style="opacity:1" fill="#730af6" d="M 146.5,280.5 C 147.833,280.5 148.5,281.167 148.5,282.5C 148.312,284.103 148.812,285.437 150,286.5C 150.5,307.497 150.667,328.497 150.5,349.5C 149.167,349.5 147.833,349.5 146.5,349.5C 146.5,326.5 146.5,303.5 146.5,280.5 Z"/></g>
<g><path style="opacity:1" fill="#ab2ff6" d="M 221.5,280.5 C 223.85,282.359 225.684,284.692 227,287.5C 227.5,303.497 227.667,319.497 227.5,335.5C 225.271,336.055 223.605,337.389 222.5,339.5C 221.817,339.137 221.15,338.804 220.5,338.5C 220.5,335.5 220.5,332.5 220.5,329.5C 219.167,325.5 219.167,321.5 220.5,317.5C 220.5,305.833 220.5,294.167 220.5,282.5C 221.338,282.158 221.672,281.492 221.5,280.5 Z"/></g>
<g><path style="opacity:0.196" fill="#ffa1ff" d="M 163.5,282.5 C 163.5,282.833 163.5,283.167 163.5,283.5C 163.18,302.243 163.514,320.91 164.5,339.5C 162.514,322.532 161.847,305.199 162.5,287.5C 162.216,285.585 162.549,283.919 163.5,282.5 Z"/></g>
<g><path style="opacity:1" fill="#fc10fd" d="M 301.5,274.5 C 304.655,274.99 307.655,275.656 310.5,276.5C 287.134,276.501 263.801,277.168 240.5,278.5C 238.647,279.189 237.481,280.522 237,282.5C 236.5,291.494 236.334,300.494 236.5,309.5C 234.621,309.393 234.288,309.893 235.5,311C 234.707,312.085 234.04,313.252 233.5,314.5C 234.137,318.7 234.804,322.866 235.5,327C 234.737,336.435 234.57,345.935 235,355.5C 233.946,357.754 232.446,358.087 230.5,356.5C 229.24,354.647 229.24,352.814 230.5,351C 229.874,350.25 229.374,349.416 229,348.5C 228.023,350.74 227.523,353.073 227.5,355.5C 225.008,348.98 225.008,342.313 227.5,335.5C 228.222,335.082 228.722,334.416 229,333.5C 229.807,315.808 229.64,298.142 228.5,280.5C 229.819,276.625 230.653,272.625 231,268.5C 232.113,270.592 232.279,272.925 231.5,275.5C 233.39,275.703 234.89,275.037 236,273.5C 258.049,273.193 279.883,273.526 301.5,274.5 Z"/></g>
<g><path style="opacity:1" fill="#b41bfd" d="M 148.5,282.5 C 149.5,282.5 150.5,282.5 151.5,282.5C 152.283,301.476 152.783,320.476 153,339.5C 153.198,341.382 153.698,343.048 154.5,344.5C 154.5,345.5 154.5,346.5 154.5,347.5C 154.567,348.959 154.234,350.292 153.5,351.5C 150.351,353.225 148.018,352.559 146.5,349.5C 147.833,349.5 149.167,349.5 150.5,349.5C 150.667,328.497 150.5,307.497 150,286.5C 148.812,285.437 148.312,284.103 148.5,282.5 Z"/></g>
<g><path style="opacity:1" fill="#7508f6" d="M 222.5,284.5 C 223.268,285.263 223.768,286.263 224,287.5C 224.667,303.5 224.667,319.5 224,335.5C 223.586,335.957 223.086,336.291 222.5,336.5C 221.182,319.103 221.182,301.769 222.5,284.5 Z"/></g>
<g><path style="opacity:0.533" fill="#c671ea" d="M 330.5,315.5 C 330.5,316.5 330.5,317.5 330.5,318.5C 329.164,320.01 327.997,321.677 327,323.5C 326.184,324.823 325.017,325.489 323.5,325.5C 325.895,322.122 328.229,318.789 330.5,315.5 Z"/></g>
<g><path style="opacity:1" fill="#e170eb" d="M 290.5,323.5 C 287.728,322.233 285.061,322.233 282.5,323.5C 280.62,323.229 279.287,323.896 278.5,325.5C 278.167,325.5 277.833,325.5 277.5,325.5C 278.691,322.126 281.191,320.46 285,320.5C 287.551,320.492 289.384,321.492 290.5,323.5 Z"/></g>
<g><path style="opacity:1" fill="#f712fb" d="M 347.5,313.5 C 347.579,314.93 347.246,316.264 346.5,317.5C 341.286,321.378 337.62,326.378 335.5,332.5C 332.183,335.826 328.183,337.493 323.5,337.5C 316.745,340.209 309.745,340.875 302.5,339.5C 298.946,340.875 296.28,342.542 294.5,344.5C 291.133,339.477 287.8,334.477 284.5,329.5C 284.386,327.282 283.72,325.282 282.5,323.5C 285.061,322.233 287.728,322.233 290.5,323.5C 292.027,323.427 293.027,324.094 293.5,325.5C 293.414,326.496 293.748,327.329 294.5,328C 297.025,329.719 299.692,330.886 302.5,331.5C 300.158,331.775 300.158,332.608 302.5,334C 305.257,334.878 307.924,335.878 310.5,337C 317.126,337.432 323.459,336.098 329.5,333C 330.772,331.693 331.772,330.193 332.5,328.5C 333.417,327.873 334.417,327.539 335.5,327.5C 338.923,322.427 342.923,317.76 347.5,313.5 Z"/></g>
<g><path style="opacity:1" fill="#a504f8" d="M 336.5,297.5 C 337.222,297.918 337.722,298.584 338,299.5C 338.911,306.654 338.245,313.654 336,320.5C 332.402,326.277 327.235,329.277 320.5,329.5C 321.5,328.167 322.5,326.833 323.5,325.5C 325.017,325.489 326.184,324.823 327,323.5C 327.997,321.677 329.164,320.01 330.5,318.5C 331.892,316.727 333.059,314.727 334,312.5C 334.012,307.256 334.845,302.256 336.5,297.5 Z"/></g>
<g><path style="opacity:1" fill="#fc5efb" d="M 348.5,297.5 C 351.06,304.695 351.06,312.028 348.5,319.5C 345.3,322.866 342.8,326.866 341,331.5C 339.288,333.052 337.455,334.385 335.5,335.5C 331.545,336.811 327.879,338.644 324.5,341C 322.866,341.494 321.199,341.66 319.5,341.5C 321.139,340.527 322.473,339.194 323.5,337.5C 328.183,337.493 332.183,335.826 335.5,332.5C 337.62,326.378 341.286,321.378 346.5,317.5C 347.246,316.264 347.579,314.93 347.5,313.5C 348.449,308.26 348.782,302.927 348.5,297.5 Z"/></g>
<g><path style="opacity:0.384" fill="#f5a1f2" d="M 348.5,319.5 C 345.441,329.891 339.108,337.557 329.5,342.5C 331.105,339.846 333.105,337.513 335.5,335.5C 337.455,334.385 339.288,333.052 341,331.5C 342.8,326.866 345.3,322.866 348.5,319.5 Z"/></g>
<g><path style="opacity:0.925" fill="#e14ae7" d="M 293.5,325.5 C 303.516,332.089 313.516,332.089 323.5,325.5C 322.5,326.833 321.5,328.167 320.5,329.5C 314.701,332.482 308.701,333.149 302.5,331.5C 299.692,330.886 297.025,329.719 294.5,328C 293.748,327.329 293.414,326.496 293.5,325.5 Z"/></g>
<g><path style="opacity:0.024" fill="#ffc3ff" d="M 220.5,329.5 C 220.5,332.5 220.5,335.5 220.5,338.5C 220.5,339.167 220.167,339.5 219.5,339.5C 214.5,339.5 209.5,339.5 204.5,339.5C 209.305,338.513 214.305,338.179 219.5,338.5C 219.19,335.287 219.523,332.287 220.5,329.5 Z"/></g>
<g><path style="opacity:1" fill="#f511fc" d="M 227.5,335.5 C 225.008,342.313 225.008,348.98 227.5,355.5C 227.5,356.5 227.5,357.5 227.5,358.5C 225.883,357.962 224.216,357.629 222.5,357.5C 220.716,355.633 218.716,353.966 216.5,352.5C 216.389,351.883 216.056,351.383 215.5,351C 197.491,350.833 179.491,350.333 161.5,349.5C 159.369,348.831 157.369,348.165 155.5,347.5C 158.187,347.664 160.854,347.497 163.5,347C 156.339,345.446 156.006,343.612 162.5,341.5C 164.144,341.286 165.644,341.62 167,342.5C 181.759,341.675 196.592,341.175 211.5,341C 214.365,340.817 217.031,340.317 219.5,339.5C 220.167,339.5 220.5,339.167 220.5,338.5C 221.15,338.804 221.817,339.137 222.5,339.5C 223.605,337.389 225.271,336.055 227.5,335.5 Z"/></g>
<g><path style="opacity:1" fill="#fd82fd" d="M 335.5,335.5 C 333.105,337.513 331.105,339.846 329.5,342.5C 320.75,343.877 312.084,345.544 303.5,347.5C 308.611,344.89 313.945,342.89 319.5,341.5C 321.199,341.66 322.866,341.494 324.5,341C 327.879,338.644 331.545,336.811 335.5,335.5 Z"/></g>
<g><path style="opacity:1" fill="#f3b4f5" d="M 329.5,342.5 C 321.889,347.117 313.556,349.117 304.5,348.5C 304.813,352.042 304.479,355.375 303.5,358.5C 303.5,354.833 303.5,351.167 303.5,347.5C 312.084,345.544 320.75,343.877 329.5,342.5 Z"/></g>
<g><path style="opacity:1" fill="#791bf5" d="M 278.5,325.5 C 279.482,326.141 280.482,326.807 281.5,327.5C 282.44,330.803 283.273,334.136 284,337.5C 284.333,337.167 284.667,336.833 285,336.5C 289.068,343.994 290.401,351.994 289,360.5C 287.303,363.02 285.47,365.353 283.5,367.5C 283.5,366.167 283.5,364.833 283.5,363.5C 288.356,356.604 288.689,349.438 284.5,342C 284.833,341.667 285.167,341.333 285.5,341C 283.676,338.133 281.51,335.633 279,333.5C 278.503,330.854 278.336,328.187 278.5,325.5 Z"/></g>
<g><path style="opacity:1" fill="#f85afd" d="M 154.5,347.5 C 154.833,347.5 155.167,347.5 155.5,347.5C 157.369,348.165 159.369,348.831 161.5,349.5C 179.491,350.333 197.491,350.833 215.5,351C 216.056,351.383 216.389,351.883 216.5,352.5C 195.327,352.831 174.327,352.497 153.5,351.5C 154.234,350.292 154.567,348.959 154.5,347.5 Z"/></g>
<g><path style="opacity:1" fill="#e786fb" d="M 145.5,349.5 C 145.833,349.5 146.167,349.5 146.5,349.5C 148.018,352.559 150.351,353.225 153.5,351.5C 174.327,352.497 195.327,352.831 216.5,352.5C 218.716,353.966 220.716,355.633 222.5,357.5C 221.957,357.56 221.624,357.893 221.5,358.5C 222.594,364.234 224.594,369.568 227.5,374.5C 228.167,376.167 228.833,377.833 229.5,379.5C 226.611,376.744 224.444,373.411 223,369.5C 221.941,364.887 220.441,360.554 218.5,356.5C 217.048,355.698 215.382,355.198 213.5,355C 192.167,354.667 170.833,354.333 149.5,354C 148.473,353.487 147.473,352.987 146.5,352.5C 145.596,351.791 145.263,350.791 145.5,349.5 Z"/></g>
<g><path style="opacity:0.835" fill="#9d60ee" d="M 277.5,325.5 C 277.833,325.5 278.167,325.5 278.5,325.5C 278.336,328.187 278.503,330.854 279,333.5C 281.51,335.633 283.676,338.133 285.5,341C 285.167,341.333 284.833,341.667 284.5,342C 288.689,349.438 288.356,356.604 283.5,363.5C 284.402,360.293 285.402,357.127 286.5,354C 285.545,350.901 284.711,347.734 284,344.5C 281.667,340.833 279.333,337.167 277,333.5C 276.278,330.739 276.445,328.073 277.5,325.5 Z"/></g>
<g><path style="opacity:0.72" fill="#f3b6f5" d="M 146.5,352.5 C 147.473,352.987 148.473,353.487 149.5,354C 170.833,354.333 192.167,354.667 213.5,355C 215.382,355.198 217.048,355.698 218.5,356.5C 198.371,357.245 178.371,357.412 158.5,357C 155.167,356.667 151.833,356.333 148.5,356C 147.177,355.184 146.511,354.017 146.5,352.5 Z"/></g>
<g><path style="opacity:1" fill="#f517fa" d="M 236.5,309.5 C 235.848,326.534 236.515,343.2 238.5,359.5C 240.657,363.807 243.324,367.807 246.5,371.5C 247.502,373.011 248.169,374.678 248.5,376.5C 252.154,376.942 255.821,377.276 259.5,377.5C 264.287,377.01 268.953,376.01 273.5,374.5C 271.827,376.839 269.827,378.839 267.5,380.5C 270.106,381.652 272.773,381.818 275.5,381C 280.056,378.894 284.056,376.061 287.5,372.5C 287.414,373.496 287.748,374.329 288.5,375C 285.21,377.002 282.876,379.835 281.5,383.5C 278.487,384.338 275.82,385.838 273.5,388C 270.5,388.167 267.5,388.333 264.5,388.5C 256.444,387.153 248.444,385.486 240.5,383.5C 239.167,382.5 237.833,381.5 236.5,380.5C 235.263,377.755 233.43,375.422 231,373.5C 229.338,368.667 228.171,363.667 227.5,358.5C 227.5,357.5 227.5,356.5 227.5,355.5C 227.523,353.073 228.023,350.74 229,348.5C 229.374,349.416 229.874,350.25 230.5,351C 229.24,352.814 229.24,354.647 230.5,356.5C 232.446,358.087 233.946,357.754 235,355.5C 234.57,345.935 234.737,336.435 235.5,327C 234.804,322.866 234.137,318.7 233.5,314.5C 234.04,313.252 234.707,312.085 235.5,311C 234.288,309.893 234.621,309.393 236.5,309.5 Z"/></g>
<g><path style="opacity:1" fill="#fb28fc" d="M 323.5,337.5 C 322.473,339.194 321.139,340.527 319.5,341.5C 313.945,342.89 308.611,344.89 303.5,347.5C 303.5,351.167 303.5,354.833 303.5,358.5C 303.5,358.833 303.5,359.167 303.5,359.5C 301.394,363.632 299.561,367.965 298,372.5C 296.668,374.66 295.168,376.66 293.5,378.5C 289.056,379.054 285.056,380.721 281.5,383.5C 282.876,379.835 285.21,377.002 288.5,375C 287.748,374.329 287.414,373.496 287.5,372.5C 292.741,364.006 295.074,354.672 294.5,344.5C 296.28,342.542 298.946,340.875 302.5,339.5C 309.745,340.875 316.745,340.209 323.5,337.5 Z"/></g>
<g><path style="opacity:1" fill="#9639f9" d="M 222.5,357.5 C 224.216,357.629 225.883,357.962 227.5,358.5C 228.171,363.667 229.338,368.667 231,373.5C 233.43,375.422 235.263,377.755 236.5,380.5C 236.565,380.938 236.399,381.272 236,381.5C 233.004,379.267 230.171,376.934 227.5,374.5C 224.594,369.568 222.594,364.234 221.5,358.5C 221.624,357.893 221.957,357.56 222.5,357.5 Z"/></g>
<g><path style="opacity:1" fill="#a50efc" d="M 282.5,323.5 C 283.72,325.282 284.386,327.282 284.5,329.5C 284.343,330.873 284.51,332.207 285,333.5C 294.789,348.759 293.289,362.592 280.5,375C 279.207,375.49 277.873,375.657 276.5,375.5C 277.787,372.765 279.953,371.098 283,370.5C 283.483,369.552 283.649,368.552 283.5,367.5C 285.47,365.353 287.303,363.02 289,360.5C 290.401,351.994 289.068,343.994 285,336.5C 284.667,336.833 284.333,337.167 284,337.5C 283.273,334.136 282.44,330.803 281.5,327.5C 280.482,326.807 279.482,326.141 278.5,325.5C 279.287,323.896 280.62,323.229 282.5,323.5 Z"/></g>
<g><path style="opacity:1" fill="#cd06fc" d="M 284.5,329.5 C 287.8,334.477 291.133,339.477 294.5,344.5C 295.074,354.672 292.741,364.006 287.5,372.5C 284.056,376.061 280.056,378.894 275.5,381C 272.773,381.818 270.106,381.652 267.5,380.5C 269.827,378.839 271.827,376.839 273.5,374.5C 274.609,374.557 275.609,374.89 276.5,375.5C 277.873,375.657 279.207,375.49 280.5,375C 293.289,362.592 294.789,348.759 285,333.5C 284.51,332.207 284.343,330.873 284.5,329.5 Z"/></g>
<g><path style="opacity:1" fill="#b843ed" d="M 283.5,363.5 C 283.5,364.833 283.5,366.167 283.5,367.5C 283.649,368.552 283.483,369.552 283,370.5C 279.953,371.098 277.787,372.765 276.5,375.5C 275.609,374.89 274.609,374.557 273.5,374.5C 277.544,371.457 280.877,367.791 283.5,363.5 Z"/></g>
<g><path style="opacity:1" fill="#f066ec" d="M 246.5,371.5 C 250.535,374.283 254.868,376.283 259.5,377.5C 255.821,377.276 252.154,376.942 248.5,376.5C 248.169,374.678 247.502,373.011 246.5,371.5 Z"/></g>
<g><path style="opacity:1" fill="#a362f7" d="M 227.5,374.5 C 230.171,376.934 233.004,379.267 236,381.5C 236.399,381.272 236.565,380.938 236.5,380.5C 237.833,381.5 239.167,382.5 240.5,383.5C 240.833,384.167 241.167,384.833 241.5,385.5C 236.875,384.521 232.875,382.521 229.5,379.5C 228.833,377.833 228.167,376.167 227.5,374.5 Z"/></g>
<g><path style="opacity:1" fill="#f78bf9" d="M 303.5,359.5 C 302.268,371.037 296.935,380.037 287.5,386.5C 285.436,386.687 283.436,387.187 281.5,388C 278.37,389.947 275.37,391.781 272.5,393.5C 265.907,393.915 259.574,393.248 253.5,391.5C 252.5,390.833 251.5,390.167 250.5,389.5C 257.82,390.784 265.153,390.784 272.5,389.5C 278.269,386.956 284.269,384.956 290.5,383.5C 290.5,382.167 290.5,380.833 290.5,379.5C 291.791,379.737 292.791,379.404 293.5,378.5C 295.168,376.66 296.668,374.66 298,372.5C 299.561,367.965 301.394,363.632 303.5,359.5 Z"/></g>
<g><path style="opacity:1" fill="#be87f7" d="M 229.5,379.5 C 232.875,382.521 236.875,384.521 241.5,385.5C 244.352,387.091 247.352,388.424 250.5,389.5C 251.5,390.167 252.5,390.833 253.5,391.5C 248.333,390.551 243.333,389.218 238.5,387.5C 234.577,385.912 231.577,383.246 229.5,379.5 Z"/></g>
<g><path style="opacity:1" fill="#ec55fc" d="M 293.5,378.5 C 292.791,379.404 291.791,379.737 290.5,379.5C 290.5,380.833 290.5,382.167 290.5,383.5C 284.269,384.956 278.269,386.956 272.5,389.5C 265.153,390.784 257.82,390.784 250.5,389.5C 247.352,388.424 244.352,387.091 241.5,385.5C 241.167,384.833 240.833,384.167 240.5,383.5C 248.444,385.486 256.444,387.153 264.5,388.5C 267.5,388.333 270.5,388.167 273.5,388C 275.82,385.838 278.487,384.338 281.5,383.5C 285.056,380.721 289.056,379.054 293.5,378.5 Z"/></g>
<g><path style="opacity:0.357" fill="#f7b6f3" d="M 287.5,386.5 C 283.385,390.547 278.385,392.881 272.5,393.5C 275.37,391.781 278.37,389.947 281.5,388C 283.436,387.187 285.436,386.687 287.5,386.5 Z"/></g>
<g><path style="opacity:0.502" fill="#e5baf5" d="M 238.5,387.5 C 243.333,389.218 248.333,390.551 253.5,391.5C 259.574,393.248 265.907,393.915 272.5,393.5C 264.286,396.113 255.953,395.946 247.5,393C 244.102,391.643 241.102,389.81 238.5,387.5 Z"/></g>
</svg>
