<?xml version="1.0" encoding="UTF-8"?>
<!DOCTYPE svg PUBLIC "-//W3C//DTD SVG 1.1//EN" "http://www.w3.org/Graphics/SVG/1.1/DTD/svg11.dtd">
<svg xmlns="http://www.w3.org/2000/svg" version="1.1" width="381px" height="392px" style="shape-rendering:geometricPrecision; text-rendering:geometricPrecision; image-rendering:optimizeQuality; fill-rule:evenodd; clip-rule:evenodd" xmlns:xlink="http://www.w3.org/1999/xlink">
<g><path style="opacity:0.964" fill="#fdfafc" d="M 161.5,38.5 C 143.167,38.5 124.833,38.5 106.5,38.5C 114.77,33.848 123.77,31.5146 133.5,31.5C 143.528,31.5663 152.861,33.8997 161.5,38.5 Z"/></g>
<g><path style="opacity:0.994" fill="#fdf9fd" d="M 255.5,38.5 C 237.5,38.5 219.5,38.5 201.5,38.5C 209.694,33.5551 218.694,31.2217 228.5,31.5C 238.223,31.513 247.223,33.8463 255.5,38.5 Z"/></g>
<g><path style="opacity:0.996" fill="#010402" d="M 106.5,38.5 C 124.833,38.5 143.167,38.5 161.5,38.5C 168.823,42.5085 175.489,47.5085 181.5,53.5C 187.511,47.5085 194.177,42.5085 201.5,38.5C 219.5,38.5 237.5,38.5 255.5,38.5C 267.338,43.5003 276.171,51.8337 282,63.5C 287.57,74.4261 289.736,85.9261 288.5,98C 292.294,99.7197 296.127,99.8863 300,98.5C 316.411,100.626 330.244,107.959 341.5,120.5C 341.5,141.833 341.5,163.167 341.5,184.5C 340.504,184.586 339.671,184.252 339,183.5C 337.988,179.117 336.821,174.784 335.5,170.5C 332.961,174.235 330.794,178.235 329,182.5C 327.286,184.043 325.786,185.71 324.5,187.5C 324.482,189.373 324.982,189.706 326,188.5C 326.5,189.667 327.333,190.5 328.5,191C 326.717,192.739 325.05,194.572 323.5,196.5C 319.886,194.298 319.886,192.298 323.5,190.5C 322.482,189.148 321.149,188.148 319.5,187.5C 322.193,185.441 323.86,182.774 324.5,179.5C 334.588,161.725 332.255,145.558 317.5,131C 306.921,124.013 295.588,122.346 283.5,126C 277.323,128.919 271.656,132.586 266.5,137C 255.544,138.357 249.878,133.691 249.5,123C 252.579,117.581 256.079,112.414 260,107.5C 267.826,87.2715 262.659,71.4382 244.5,60C 227.445,53.0557 212.945,56.5557 201,70.5C 198.566,73.7954 196.899,77.462 196,81.5C 194.532,111.117 194.032,140.783 194.5,170.5C 193.017,177.279 192.35,184.279 192.5,191.5C 191.167,191.5 189.833,191.5 188.5,191.5C 188.931,196.032 188.431,200.365 187,204.5C 186,203.833 185,203.167 184,202.5C 179.726,206.825 174.559,209.659 168.5,211C 175.593,210.876 177.593,213.876 174.5,220C 175.815,222.88 174.815,223.88 171.5,223C 171.833,222.667 172.167,222.333 172.5,222C 171.158,219.985 170.658,217.818 171,215.5C 171.984,217.795 172.817,217.461 173.5,214.5C 173.192,213.692 172.692,213.025 172,212.5C 169.392,213.275 166.892,214.275 164.5,215.5C 162.233,215.441 161.567,214.608 162.5,213C 161.09,212.632 160.09,211.799 159.5,210.5C 143.514,209.501 127.514,209.167 111.5,209.5C 111.5,208.5 111.5,207.5 111.5,206.5C 99.1646,206.206 87.3312,205.206 76,203.5C 74.5067,207.231 72.0067,208.898 68.5,208.5C 67.6143,209.325 67.281,210.325 67.5,211.5C 66.448,211.351 65.448,211.517 64.5,212C 64.1667,213 63.8333,214 63.5,215C 60.1994,215.997 56.866,216.33 53.5,216C 54.1667,215.667 54.8333,215.333 55.5,215C 54.2341,214.691 53.0674,214.191 52,213.5C 51.6667,213.833 51.3333,214.167 51,214.5C 49.7574,212.167 48.0907,211.5 46,212.5C 45.3076,211.975 44.8076,211.308 44.5,210.5C 45.6113,209.389 46.278,208.055 46.5,206.5C 45.0311,203.278 44.5311,199.944 45,196.5C 46.7067,195.862 48.54,195.862 50.5,196.5C 50.5,195.5 50.5,194.5 50.5,193.5C 47.054,193.111 43.7206,192.278 40.5,191C 42.6851,187.98 45.1851,187.814 48,190.5C 48.3988,190.272 48.5654,189.938 48.5,189.5C 51.7674,190.656 55.1007,191.823 58.5,193C 62.0395,193.282 65.5395,193.782 69,194.5C 101.465,193.792 134.298,193.459 167.5,193.5C 168.5,193.5 169.5,193.5 170.5,193.5C 171.157,156.446 170.49,119.612 168.5,83C 169.167,82.6667 169.833,82.3333 170.5,82C 168.734,79.904 167.401,77.5707 166.5,75C 166.833,74.6667 167.167,74.3333 167.5,74C 165.167,73 163.5,71.3333 162.5,69C 162.833,68.6667 163.167,68.3333 163.5,68C 161.235,67.3701 158.902,66.2034 156.5,64.5C 137.915,52.2483 121.082,54.2483 106,70.5C 99.3965,80.3302 97.7299,90.9969 101,102.5C 104.605,109.1 108.605,115.434 113,121.5C 114.672,127.658 112.838,132.491 107.5,136C 104.685,137.721 101.685,138.388 98.5,138C 91.8658,134.013 85.1992,130.013 78.5,126C 62.3193,121.558 48.6526,125.724 37.5,138.5C 37.5,128.167 37.5,117.833 37.5,107.5C 42.5845,103.961 48.2511,101.461 54.5,100C 60.818,99.9028 67.1514,99.2361 73.5,98C 72.5919,76.4691 80.2585,58.4691 96.5,44C 99.7271,41.8882 103.06,40.0549 106.5,38.5 Z M 324.5,179.5 C 317.395,187.975 308.229,192.975 297,194.5C 266.531,193.555 236.031,193.222 205.5,193.5C 202.012,193.795 198.346,193.795 194.5,193.5C 194.5,185.833 194.5,178.167 194.5,170.5C 194.032,140.783 194.532,111.117 196,81.5C 196.899,77.462 198.566,73.7954 201,70.5C 212.945,56.5557 227.445,53.0557 244.5,60C 262.659,71.4382 267.826,87.2715 260,107.5C 256.079,112.414 252.579,117.581 249.5,123C 249.878,133.691 255.544,138.357 266.5,137C 271.656,132.586 277.323,128.919 283.5,126C 295.588,122.346 306.921,124.013 317.5,131C 332.255,145.558 334.588,161.725 324.5,179.5 Z"/></g>
<g><path style="opacity:0.258" fill="#001400" d="M 156.5,64.5 C 158.902,66.2034 161.235,67.3701 163.5,68C 163.167,68.3333 162.833,68.6667 162.5,69C 163.5,71.3333 165.167,73 167.5,74C 167.167,74.3333 166.833,74.6667 166.5,75C 167.401,77.5707 168.734,79.904 170.5,82C 169.833,82.3333 169.167,82.6667 168.5,83C 170.49,119.612 171.157,156.446 170.5,193.5C 169.5,193.5 168.5,193.5 167.5,193.5C 168.66,157.238 168.826,120.905 168,84.5C 166.444,76.4627 162.611,69.796 156.5,64.5 Z"/></g>
<g><path style="opacity:0.982" fill="#fcf7fd" d="M 341.5,120.5 C 357.626,141.681 359.793,164.348 348,188.5C 346.054,191.42 343.887,194.087 341.5,196.5C 341.5,192.5 341.5,188.5 341.5,184.5C 341.5,163.167 341.5,141.833 341.5,120.5 Z"/></g>
<g><path style="opacity:0.997" fill="#fdf7fd" d="M 37.5,107.5 C 37.5,117.833 37.5,128.167 37.5,138.5C 37.1594,141.516 35.9927,144.182 34,146.5C 33.0753,150.445 32.5753,154.445 32.5,158.5C 32.9347,161.54 32.9347,164.373 32.5,167C 34.2848,170.741 35.9515,174.574 37.5,178.5C 37.5,189.167 37.5,199.833 37.5,210.5C 12.7768,194.875 3.27684,172.542 9,143.5C 12.946,131.105 19.7794,120.605 29.5,112C 31.8171,109.843 34.4838,108.343 37.5,107.5 Z"/></g>
<g><path style="opacity:0.999" fill="#020701" d="M 341.5,184.5 C 341.5,188.5 341.5,192.5 341.5,196.5C 340.5,197.833 339.5,199.167 338.5,200.5C 335.651,200.733 333.484,202.066 332,204.5C 331.591,206.991 330.424,208.991 328.5,210.5C 329.115,212.116 330.115,213.449 331.5,214.5C 330.635,214.564 329.635,214.897 328.5,215.5C 327.494,215.062 327.494,214.396 328.5,213.5C 327.998,212.479 327.332,212.312 326.5,213C 325.58,215.835 324.58,218.668 323.5,221.5C 326.345,224.891 328.345,228.391 329.5,232C 328.975,232.692 328.308,233.192 327.5,233.5C 326.378,232.37 325.044,231.703 323.5,231.5C 319.383,227.04 314.716,223.373 309.5,220.5C 308.533,217.845 306.867,217.178 304.5,218.5C 302.08,215.642 299.58,215.309 297,217.5C 290.85,217.287 284.85,217.287 279,217.5C 269.988,216.991 260.988,215.991 252,214.5C 243.694,216.172 235.194,216.506 226.5,215.5C 226.5,213.167 226.5,210.833 226.5,208.5C 220.45,209.996 214.45,209.829 208.5,208C 210.904,207.492 211.571,206.325 210.5,204.5C 212.686,203.779 214.853,203.113 217,202.5C 218.667,202.833 220.333,203.167 222,203.5C 222.75,202.874 223.584,202.374 224.5,202C 219.5,201.667 214.5,201.333 209.5,201C 208.167,200 208.167,199 209.5,198C 219.748,197.88 230.081,197.213 240.5,196C 228.457,196.15 216.79,195.316 205.5,193.5C 236.031,193.222 266.531,193.555 297,194.5C 308.229,192.975 317.395,187.975 324.5,179.5C 323.86,182.774 322.193,185.441 319.5,187.5C 321.149,188.148 322.482,189.148 323.5,190.5C 319.886,192.298 319.886,194.298 323.5,196.5C 325.05,194.572 326.717,192.739 328.5,191C 327.333,190.5 326.5,189.667 326,188.5C 324.982,189.706 324.482,189.373 324.5,187.5C 325.786,185.71 327.286,184.043 329,182.5C 330.794,178.235 332.961,174.235 335.5,170.5C 336.821,174.784 337.988,179.117 339,183.5C 339.671,184.252 340.504,184.586 341.5,184.5 Z"/></g>
<g><path style="opacity:1" fill="#010a02" d="M 194.5,170.5 C 194.5,178.167 194.5,185.833 194.5,193.5C 198.346,193.795 202.012,193.795 205.5,193.5C 216.79,195.316 228.457,196.15 240.5,196C 230.081,197.213 219.748,197.88 209.5,198C 208.167,199 208.167,200 209.5,201C 214.5,201.333 219.5,201.667 224.5,202C 223.584,202.374 222.75,202.874 222,203.5C 220.333,203.167 218.667,202.833 217,202.5C 214.853,203.113 212.686,203.779 210.5,204.5C 211.571,206.325 210.904,207.492 208.5,208C 214.45,209.829 220.45,209.996 226.5,208.5C 226.5,210.833 226.5,213.167 226.5,215.5C 235.194,216.506 243.694,216.172 252,214.5C 260.988,215.991 269.988,216.991 279,217.5C 284.85,217.287 290.85,217.287 297,217.5C 299.58,215.309 302.08,215.642 304.5,218.5C 306.867,217.178 308.533,217.845 309.5,220.5C 306.834,220.067 304.168,219.567 301.5,219C 265.834,218.797 230.167,218.964 194.5,219.5C 194.5,224.833 194.5,230.167 194.5,235.5C 193.502,259.661 193.169,283.994 193.5,308.5C 192.807,304.435 192.14,300.268 191.5,296C 191.356,291.23 191.689,286.397 192.5,281.5C 191.881,276.518 191.214,271.518 190.5,266.5C 189.167,267.5 187.833,268.5 186.5,269.5C 185.522,269.023 184.689,268.357 184,267.5C 182.989,268.337 181.822,268.67 180.5,268.5C 180.5,269.5 180.5,270.5 180.5,271.5C 178.408,271.439 176.908,270.439 176,268.5C 175.667,269.5 175.333,270.5 175,271.5C 174,269.167 173,266.833 172,264.5C 171.333,267.167 170.667,267.167 170,264.5C 170.441,249.798 170.608,235.131 170.5,220.5C 170.145,219.478 169.478,218.811 168.5,218.5C 140.833,218.5 113.167,218.5 85.5,218.5C 85.5,222.833 85.5,227.167 85.5,231.5C 84.6753,235.647 84.1753,239.981 84,244.5C 83.926,240.299 83.0927,236.299 81.5,232.5C 80.6247,235.546 79.6247,238.546 78.5,241.5C 73.0634,245.202 67.73,248.869 62.5,252.5C 62.6663,245.159 62.4997,237.826 62,230.5C 61.6174,231.056 61.1174,231.389 60.5,231.5C 60.5,227.167 60.5,222.833 60.5,218.5C 52.2675,217.423 44.6008,214.756 37.5,210.5C 37.5,199.833 37.5,189.167 37.5,178.5C 40.8333,182.5 44.5,186.167 48.5,189.5C 48.5654,189.938 48.3988,190.272 48,190.5C 45.1851,187.814 42.6851,187.98 40.5,191C 43.7206,192.278 47.054,193.111 50.5,193.5C 50.5,194.5 50.5,195.5 50.5,196.5C 48.54,195.862 46.7067,195.862 45,196.5C 44.5311,199.944 45.0311,203.278 46.5,206.5C 46.278,208.055 45.6113,209.389 44.5,210.5C 44.8076,211.308 45.3076,211.975 46,212.5C 48.0907,211.5 49.7574,212.167 51,214.5C 51.3333,214.167 51.6667,213.833 52,213.5C 53.0674,214.191 54.2341,214.691 55.5,215C 54.8333,215.333 54.1667,215.667 53.5,216C 56.866,216.33 60.1994,215.997 63.5,215C 63.8333,214 64.1667,213 64.5,212C 65.448,211.517 66.448,211.351 67.5,211.5C 67.281,210.325 67.6143,209.325 68.5,208.5C 72.0067,208.898 74.5067,207.231 76,203.5C 87.3312,205.206 99.1646,206.206 111.5,206.5C 111.5,207.5 111.5,208.5 111.5,209.5C 127.514,209.167 143.514,209.501 159.5,210.5C 160.09,211.799 161.09,212.632 162.5,213C 161.567,214.608 162.233,215.441 164.5,215.5C 166.892,214.275 169.392,213.275 172,212.5C 172.692,213.025 173.192,213.692 173.5,214.5C 172.817,217.461 171.984,217.795 171,215.5C 170.658,217.818 171.158,219.985 172.5,222C 172.167,222.333 171.833,222.667 171.5,223C 174.815,223.88 175.815,222.88 174.5,220C 177.593,213.876 175.593,210.876 168.5,211C 174.559,209.659 179.726,206.825 184,202.5C 185,203.167 186,203.833 187,204.5C 188.431,200.365 188.931,196.032 188.5,191.5C 189.833,191.5 191.167,191.5 192.5,191.5C 192.35,184.279 193.017,177.279 194.5,170.5 Z"/></g>
<g><path style="opacity:0.997" fill="#021001" d="M 338.5,200.5 C 336.803,202.339 335.137,204.172 333.5,206C 335.988,209.321 338.655,212.488 341.5,215.5C 341.5,240.833 341.5,266.167 341.5,291.5C 337.773,296.558 333.106,300.558 327.5,303.5C 324.33,304.084 321.163,304.75 318,305.5C 315.942,304.706 313.942,304.373 312,304.5C 307.489,307.012 303.655,306.512 300.5,303C 301.025,302.308 301.692,301.808 302.5,301.5C 304.951,304.65 307.951,305.317 311.5,303.5C 313.551,297.105 311.218,293.605 304.5,293C 305.451,292.282 305.617,291.449 305,290.5C 303.083,293.808 300.583,294.641 297.5,293C 299.24,291.483 300.906,289.983 302.5,288.5C 323.687,281.457 332.854,266.79 330,244.5C 328.879,239.592 326.713,235.259 323.5,231.5C 325.044,231.703 326.378,232.37 327.5,233.5C 328.308,233.192 328.975,232.692 329.5,232C 328.345,228.391 326.345,224.891 323.5,221.5C 324.58,218.668 325.58,215.835 326.5,213C 327.332,212.312 327.998,212.479 328.5,213.5C 327.494,214.396 327.494,215.062 328.5,215.5C 329.635,214.897 330.635,214.564 331.5,214.5C 330.115,213.449 329.115,212.116 328.5,210.5C 330.424,208.991 331.591,206.991 332,204.5C 333.484,202.066 335.651,200.733 338.5,200.5 Z"/></g>
<g><path style="opacity:0.964" fill="#011501" d="M 85.5,231.5 C 85.5688,236.854 85.9022,242.187 86.5,247.5C 85.7421,255.69 84.9087,264.023 84,272.5C 83.832,263.482 83.332,254.482 82.5,245.5C 81.6764,248.785 81.1764,252.118 81,255.5C 79.5346,251.111 77.7013,250.778 75.5,254.5C 76.6522,259.839 75.4855,260.506 72,256.5C 70.05,258.029 67.8834,259.196 65.5,260C 66.5013,262.698 66.0013,265.198 64,267.5C 63.6667,270.167 63.3333,272.833 63,275.5C 62.5003,267.841 62.3336,260.174 62.5,252.5C 67.73,248.869 73.0634,245.202 78.5,241.5C 79.6247,238.546 80.6247,235.546 81.5,232.5C 83.0927,236.299 83.926,240.299 84,244.5C 84.1753,239.981 84.6753,235.647 85.5,231.5 Z"/></g>
<g><path style="opacity:0.99" fill="#fceefd" d="M 341.5,215.5 C 351.204,226.94 355.871,240.273 355.5,255.5C 355.245,269.324 350.578,281.324 341.5,291.5C 341.5,266.167 341.5,240.833 341.5,215.5 Z"/></g>
<g><path style="opacity:0.99" fill="#021c01" d="M 62.5,252.5 C 62.3336,260.174 62.5003,267.841 63,275.5C 63.3333,272.833 63.6667,270.167 64,267.5C 66.0013,265.198 66.5013,262.698 65.5,260C 67.8834,259.196 70.05,258.029 72,256.5C 75.4855,260.506 76.6522,259.839 75.5,254.5C 77.7013,250.778 79.5346,251.111 81,255.5C 81.1764,252.118 81.6764,248.785 82.5,245.5C 83.332,254.482 83.832,263.482 84,272.5C 84.9087,264.023 85.7421,255.69 86.5,247.5C 86.5699,265.176 86.2366,282.843 85.5,300.5C 103.206,300.91 121.206,301.244 139.5,301.5C 139.047,302.458 138.381,303.292 137.5,304C 128.471,305.223 119.471,305.39 110.5,304.5C 107.869,306.005 108.203,306.671 111.5,306.5C 111.5,307.5 111.5,308.5 111.5,309.5C 109.345,309.372 107.345,309.872 105.5,311C 108.167,312 108.167,313 105.5,314C 107.623,314.815 109.623,315.815 111.5,317C 106.643,317.189 101.976,318.189 97.5,320C 99.7695,320.758 101.936,320.591 104,319.5C 106.48,321.166 109.313,321.999 112.5,322C 101.555,323.379 90.5549,323.879 79.5,323.5C 79.719,322.325 79.3857,321.325 78.5,320.5C 75.4986,324.133 72.332,324.133 69,320.5C 68.3162,321.784 68.4829,322.951 69.5,324C 68.9056,324.464 68.2389,324.631 67.5,324.5C 63.8857,322.626 61.719,319.626 61,315.5C 60.5,287.502 60.3334,259.502 60.5,231.5C 61.1174,231.389 61.6174,231.056 62,230.5C 62.4997,237.826 62.6663,245.159 62.5,252.5 Z"/></g>
<g><path style="opacity:0.993" fill="#011601" d="M 168.5,218.5 C 169.478,218.811 170.145,219.478 170.5,220.5C 170.608,235.131 170.441,249.798 170,264.5C 170.667,267.167 171.333,267.167 172,264.5C 173,266.833 174,269.167 175,271.5C 175.333,270.5 175.667,269.5 176,268.5C 176.908,270.439 178.408,271.439 180.5,271.5C 180.5,270.5 180.5,269.5 180.5,268.5C 181.822,268.67 182.989,268.337 184,267.5C 184.689,268.357 185.522,269.023 186.5,269.5C 187.833,268.5 189.167,267.5 190.5,266.5C 191.214,271.518 191.881,276.518 192.5,281.5C 191.689,286.397 191.356,291.23 191.5,296C 192.14,300.268 192.807,304.435 193.5,308.5C 193.666,314.176 193.499,319.843 193,325.5C 191.083,318.245 190.583,310.912 191.5,303.5C 190.127,303.343 188.793,303.51 187.5,304C 189.003,309.02 189.67,314.187 189.5,319.5C 186.728,317.566 184.895,318.233 184,321.5C 183.692,320.692 183.192,320.025 182.5,319.5C 180.345,319.838 178.011,319.838 175.5,319.5C 175.215,317.712 175.548,316.045 176.5,314.5C 177.768,315.428 179.101,315.595 180.5,315C 182.607,312.494 183.44,309.661 183,306.5C 181.916,307.665 181.083,308.998 180.5,310.5C 179.311,311.429 177.978,311.762 176.5,311.5C 175.55,308.932 175.55,306.432 176.5,304C 174.699,303.683 174.366,303.016 175.5,302C 174.809,300.933 174.309,299.766 174,298.5C 173.028,300.305 171.861,301.972 170.5,303.5C 170.167,303.167 169.833,302.833 169.5,302.5C 170.641,301.575 170.641,300.741 169.5,300C 173.5,298.667 173.5,297.333 169.5,296C 170.097,294.938 170.43,293.772 170.5,292.5C 170.068,288.65 169.402,284.983 168.5,281.5C 168.677,260.587 168.677,239.587 168.5,218.5 Z"/></g>
<g><path style="opacity:0.995" fill="#021102" d="M 288.5,288.5 C 287.739,289.391 286.739,290.058 285.5,290.5C 283.802,289.319 282.135,289.319 280.5,290.5C 277.891,292.385 275.391,294.385 273,296.5C 272.5,296.333 272,296.167 271.5,296C 273.405,295.174 273.739,294.007 272.5,292.5C 270.981,293.851 269.648,295.351 268.5,297C 269.097,298.626 269.097,300.459 268.5,302.5C 267.749,301.624 267.249,300.624 267,299.5C 266.333,300.833 265.667,300.833 265,299.5C 264.86,302.043 264.194,304.377 263,306.5C 258.578,300.904 254.745,294.904 251.5,288.5C 252.711,287.28 252.711,286.113 251.5,285C 253.036,283.532 253.37,282.032 252.5,280.5C 255.383,275.693 259.716,273.86 265.5,275C 269.447,277.28 273.113,279.947 276.5,283C 280.475,285.146 284.475,286.98 288.5,288.5 Z"/></g>
<g><path style="opacity:1" fill="#021501" d="M 252.5,280.5 C 253.37,282.032 253.036,283.532 251.5,285C 252.711,286.113 252.711,287.28 251.5,288.5C 254.745,294.904 258.578,300.904 263,306.5C 264.194,304.377 264.86,302.043 265,299.5C 265.667,300.833 266.333,300.833 267,299.5C 267.249,300.624 267.749,301.624 268.5,302.5C 269.097,300.459 269.097,298.626 268.5,297C 269.648,295.351 270.981,293.851 272.5,292.5C 273.739,294.007 273.405,295.174 271.5,296C 272,296.167 272.5,296.333 273,296.5C 275.391,294.385 277.891,292.385 280.5,290.5C 282.135,289.319 283.802,289.319 285.5,290.5C 286.739,290.058 287.739,289.391 288.5,288.5C 293.167,288.5 297.833,288.5 302.5,288.5C 300.906,289.983 299.24,291.483 297.5,293C 300.583,294.641 303.083,293.808 305,290.5C 305.617,291.449 305.451,292.282 304.5,293C 311.218,293.605 313.551,297.105 311.5,303.5C 307.951,305.317 304.951,304.65 302.5,301.5C 301.692,301.808 301.025,302.308 300.5,303C 303.655,306.512 307.489,307.012 312,304.5C 313.942,304.373 315.942,304.706 318,305.5C 321.163,304.75 324.33,304.084 327.5,303.5C 323.119,307.024 318.119,309.524 312.5,311C 304.613,312.927 296.613,313.761 288.5,313.5C 287.596,312.791 287.263,311.791 287.5,310.5C 290.423,309.547 293.256,309.214 296,309.5C 297.651,307.246 297.818,304.912 296.5,302.5C 297.025,301.808 297.692,301.308 298.5,301C 294.268,300.177 290.268,298.677 286.5,296.5C 284.668,297.248 283.001,298.248 281.5,299.5C 282.374,302.473 281.04,303.806 277.5,303.5C 277.663,305.857 277.497,308.19 277,310.5C 275.817,309.269 274.651,309.269 273.5,310.5C 274.095,313.975 275.429,316.975 277.5,319.5C 276.5,319.5 275.5,319.5 274.5,319.5C 274.752,316.068 273.419,315.068 270.5,316.5C 272.084,319.563 271.418,322.229 268.5,324.5C 267.5,324.167 266.833,323.5 266.5,322.5C 269.207,320.846 268.707,318.846 265,316.5C 264.667,313.833 264.333,311.167 264,308.5C 263.722,309.416 263.222,310.082 262.5,310.5C 259.711,303.868 255.877,297.868 251,292.5C 250.333,289.167 250.333,285.833 251,282.5C 251.278,281.584 251.778,280.918 252.5,280.5 Z"/></g>
<g><path style="opacity:0.996" fill="#021a01" d="M 288.5,313.5 C 289.932,327.097 287.265,339.764 280.5,351.5C 269.167,351.5 257.833,351.5 246.5,351.5C 261.054,341.397 266.388,327.73 262.5,310.5C 263.222,310.082 263.722,309.416 264,308.5C 264.333,311.167 264.667,313.833 265,316.5C 268.707,318.846 269.207,320.846 266.5,322.5C 266.833,323.5 267.5,324.167 268.5,324.5C 271.418,322.229 272.084,319.563 270.5,316.5C 273.419,315.068 274.752,316.068 274.5,319.5C 275.5,319.5 276.5,319.5 277.5,319.5C 275.429,316.975 274.095,313.975 273.5,310.5C 274.651,309.269 275.817,309.269 277,310.5C 277.497,308.19 277.663,305.857 277.5,303.5C 281.04,303.806 282.374,302.473 281.5,299.5C 283.001,298.248 284.668,297.248 286.5,296.5C 290.268,298.677 294.268,300.177 298.5,301C 297.692,301.308 297.025,301.808 296.5,302.5C 297.818,304.912 297.651,307.246 296,309.5C 293.256,309.214 290.423,309.547 287.5,310.5C 287.263,311.791 287.596,312.791 288.5,313.5 Z"/></g>
<g><path style="opacity:0.992" fill="#011501" d="M 145.5,300.5 C 151.635,301.855 157.968,302.855 164.5,303.5C 162.922,304.298 161.256,304.798 159.5,305C 161.959,306.497 164.459,306.664 167,305.5C 167.222,307.306 168.056,308.973 169.5,310.5C 173.47,306.261 174.804,306.927 173.5,312.5C 167.975,311.583 165.975,313.583 167.5,318.5C 171.724,318.052 173.391,319.719 172.5,323.5C 173.898,325.13 174.898,326.964 175.5,329C 175.306,330.43 175.306,331.93 175.5,333.5C 174.867,335.786 173.534,337.452 171.5,338.5C 170.956,334.009 169.622,329.842 167.5,326C 133.997,325.832 100.664,325.332 67.5,324.5C 68.2389,324.631 68.9056,324.464 69.5,324C 68.4829,322.951 68.3162,321.784 69,320.5C 72.332,324.133 75.4986,324.133 78.5,320.5C 79.3857,321.325 79.719,322.325 79.5,323.5C 90.5549,323.879 101.555,323.379 112.5,322C 109.313,321.999 106.48,321.166 104,319.5C 101.936,320.591 99.7695,320.758 97.5,320C 101.976,318.189 106.643,317.189 111.5,317C 109.623,315.815 107.623,314.815 105.5,314C 108.167,313 108.167,312 105.5,311C 107.345,309.872 109.345,309.372 111.5,309.5C 111.5,308.5 111.5,307.5 111.5,306.5C 108.203,306.671 107.869,306.005 110.5,304.5C 119.471,305.39 128.471,305.223 137.5,304C 138.381,303.292 139.047,302.458 139.5,301.5C 141.265,300.539 143.265,300.205 145.5,300.5 Z"/></g>
<g><path style="opacity:0.995" fill="#021a01" d="M 194.5,235.5 C 194.333,266.835 194.5,298.168 195,329.5C 197.474,338.799 202.641,346.132 210.5,351.5C 199.5,351.5 188.5,351.5 177.5,351.5C 175.122,347.376 173.122,343.042 171.5,338.5C 173.534,337.452 174.867,335.786 175.5,333.5C 175.306,331.93 175.306,330.43 175.5,329C 174.898,326.964 173.898,325.13 172.5,323.5C 173.391,319.719 171.724,318.052 167.5,318.5C 165.975,313.583 167.975,311.583 173.5,312.5C 174.804,306.927 173.47,306.261 169.5,310.5C 168.056,308.973 167.222,307.306 167,305.5C 164.459,306.664 161.959,306.497 159.5,305C 161.256,304.798 162.922,304.298 164.5,303.5C 157.968,302.855 151.635,301.855 145.5,300.5C 153.167,300.5 160.833,300.5 168.5,300.5C 168.5,294.167 168.5,287.833 168.5,281.5C 169.402,284.983 170.068,288.65 170.5,292.5C 170.43,293.772 170.097,294.938 169.5,296C 173.5,297.333 173.5,298.667 169.5,300C 170.641,300.741 170.641,301.575 169.5,302.5C 169.833,302.833 170.167,303.167 170.5,303.5C 171.861,301.972 173.028,300.305 174,298.5C 174.309,299.766 174.809,300.933 175.5,302C 174.366,303.016 174.699,303.683 176.5,304C 175.55,306.432 175.55,308.932 176.5,311.5C 177.978,311.762 179.311,311.429 180.5,310.5C 181.083,308.998 181.916,307.665 183,306.5C 183.44,309.661 182.607,312.494 180.5,315C 179.101,315.595 177.768,315.428 176.5,314.5C 175.548,316.045 175.215,317.712 175.5,319.5C 178.011,319.838 180.345,319.838 182.5,319.5C 183.192,320.025 183.692,320.692 184,321.5C 184.895,318.233 186.728,317.566 189.5,319.5C 189.67,314.187 189.003,309.02 187.5,304C 188.793,303.51 190.127,303.343 191.5,303.5C 190.583,310.912 191.083,318.245 193,325.5C 193.499,319.843 193.666,314.176 193.5,308.5C 193.169,283.994 193.502,259.661 194.5,235.5 Z"/></g>
<g><path style="opacity:1" fill="#fce6fd" d="M 177.5,351.5 C 188.5,351.5 199.5,351.5 210.5,351.5C 216.251,353.971 222.251,355.638 228.5,356.5C 234.868,356.042 240.868,354.376 246.5,351.5C 257.833,351.5 269.167,351.5 280.5,351.5C 264.365,375.562 242.032,384.729 213.5,379C 197.926,374.394 185.926,365.227 177.5,351.5 Z"/></g>
</svg>
