<?xml version="1.0" encoding="UTF-8"?>
<!DOCTYPE svg PUBLIC "-//W3C//DTD SVG 1.1//EN" "http://www.w3.org/Graphics/SVG/1.1/DTD/svg11.dtd">
<svg xmlns="http://www.w3.org/2000/svg" version="1.1" width="534px" height="468px" style="shape-rendering:geometricPrecision; text-rendering:geometricPrecision; image-rendering:optimizeQuality; fill-rule:evenodd; clip-rule:evenodd" xmlns:xlink="http://www.w3.org/1999/xlink">
<g><path style="opacity:0.995" fill="#050302" d="M 326.5,174.5 C 328.833,174.5 331.167,174.5 333.5,174.5C 333.656,181.69 333.322,188.856 332.5,196C 332.437,198.281 331.603,200.114 330,201.5C 329.5,200.5 329,199.5 328.5,198.5C 329.428,197.232 329.595,195.899 329,194.5C 328.667,195.167 328.333,195.833 328,196.5C 328.438,201.526 328.604,206.526 328.5,211.5C 327.972,213.336 327.306,215.003 326.5,216.5C 326.5,202.5 326.5,188.5 326.5,174.5 Z"/></g>
<g><path style="opacity:0.993" fill="#221f1a" d="M 240.5,209.5 C 238.571,210.223 237.571,209.223 237.5,206.5C 238.44,203.868 238.607,201.202 238,198.5C 236.951,197.483 235.784,197.316 234.5,198C 235.784,199.297 235.617,200.464 234,201.5C 233.823,205.356 233.323,209.023 232.5,212.5C 231.511,207.025 231.178,201.358 231.5,195.5C 229.5,195.5 227.5,195.5 225.5,195.5C 225.5,192.833 225.5,190.167 225.5,187.5C 227.5,187.5 229.5,187.5 231.5,187.5C 231.5,183.167 231.5,178.833 231.5,174.5C 234.5,174.5 237.5,174.5 240.5,174.5C 240.5,178.833 240.5,183.167 240.5,187.5C 247.48,185.953 250.48,188.62 249.5,195.5C 246.5,195.5 243.5,195.5 240.5,195.5C 240.5,200.167 240.5,204.833 240.5,209.5 Z"/></g>
<g><path style="opacity:0.154" fill="#514a32" d="M 401.5,188.5 C 392.833,188.5 384.167,188.5 375.5,188.5C 375.5,190.5 375.5,192.5 375.5,194.5C 380.363,194.181 385.03,194.514 389.5,195.5C 384.5,195.5 379.5,195.5 374.5,195.5C 374.5,192.833 374.5,190.167 374.5,187.5C 383.682,187.173 392.682,187.507 401.5,188.5 Z"/></g>
<g><path style="opacity:0.173" fill="#766e58" d="M 145.5,188.5 C 150.833,187.167 156.167,187.167 161.5,188.5C 158.302,187.964 155.635,188.631 153.5,190.5C 153.167,190.5 152.833,190.5 152.5,190.5C 152.389,189.883 152.056,189.383 151.5,189C 149.527,188.505 147.527,188.338 145.5,188.5 Z"/></g>
<g><path style="opacity:0.984" fill="#1c1915" d="M 179.5,188.5 C 183.012,187.945 186.012,188.612 188.5,190.5C 182.13,204.919 176.13,219.586 170.5,234.5C 167.572,235.484 164.572,235.817 161.5,235.5C 162.059,230.931 163.392,226.598 165.5,222.5C 163.885,217.317 161.885,212.317 159.5,207.5C 162.028,208.184 164.195,209.518 166,211.5C 166.822,208.883 167.322,206.216 167.5,203.5C 168.812,205.696 169.979,208.03 171,210.5C 173.566,203.04 176.399,195.707 179.5,188.5 Z"/></g>
<g><path style="opacity:0.974" fill="#191612" d="M 323.5,202.5 C 323.127,207.601 321.793,212.267 319.5,216.5C 312.772,223.989 304.939,225.322 296,220.5C 295.501,225.489 295.334,230.489 295.5,235.5C 292.5,235.5 289.5,235.5 286.5,235.5C 286.5,222.167 286.5,208.833 286.5,195.5C 287.468,193.393 287.802,191.059 287.5,188.5C 290.167,188.5 292.833,188.5 295.5,188.5C 295.435,188.938 295.601,189.272 296,189.5C 310.078,184.006 319.244,188.34 323.5,202.5 Z M 302.5,195.5 C 309.66,194.75 313.993,197.917 315.5,205C 314.157,213.012 309.49,216.012 301.5,214C 296.268,211.367 294.435,207.201 296,201.5C 297.494,198.686 299.66,196.686 302.5,195.5 Z"/></g>
<g><path style="opacity:0.992" fill="#070403" d="M 401.5,188.5 C 401.663,190.857 401.497,193.19 401,195.5C 400.292,196.381 399.458,197.047 398.5,197.5C 395.737,197.744 393.571,199.077 392,201.5C 390.051,199.568 389.218,197.568 389.5,195.5C 385.03,194.514 380.363,194.181 375.5,194.5C 375.5,192.5 375.5,190.5 375.5,188.5C 384.167,188.5 392.833,188.5 401.5,188.5 Z"/></g>
<g><path style="opacity:0.99" fill="#2a251d" d="M 424.5,188.5 C 421.15,188.335 417.817,188.502 414.5,189C 416.167,189.333 417.833,189.667 419.5,190C 417.392,190.36 415.392,191.027 413.5,192C 415.07,193.836 416.57,193.67 418,191.5C 420.968,193.078 424.135,193.745 427.5,193.5C 427.441,196.049 428.441,198.049 430.5,199.5C 429.873,200.417 429.539,201.417 429.5,202.5C 425.975,195.367 420.642,193.7 413.5,197.5C 411.436,199.525 410.102,201.858 409.5,204.5C 410.106,201.084 409.106,198.418 406.5,196.5C 405.029,197.381 404.196,198.714 404,200.5C 403.667,200.167 403.333,199.833 403,199.5C 402.79,201.058 402.29,202.391 401.5,203.5C 402.657,193.18 408.49,187.847 419,187.5C 421.033,187.506 422.866,187.839 424.5,188.5 Z"/></g>
<g><path style="opacity:0.991" fill="#0b0805" d="M 145.5,188.5 C 147.527,188.338 149.527,188.505 151.5,189C 152.056,189.383 152.389,189.883 152.5,190.5C 152.5,190.833 152.5,191.167 152.5,191.5C 151.566,192.568 151.232,193.901 151.5,195.5C 147.981,195.259 145.315,196.593 143.5,199.5C 141.537,206.424 140.87,213.757 141.5,221.5C 139.167,221.5 136.833,221.5 134.5,221.5C 134.333,210.495 134.5,199.495 135,188.5C 137.267,189.289 139.6,189.956 142,190.5C 143.459,190.192 144.626,189.525 145.5,188.5 Z"/></g>
<g><path style="opacity:0.972" fill="#14110d" d="M 215.5,188.5 C 215.973,189.906 216.973,190.573 218.5,190.5C 225.97,195.428 228.303,202.094 225.5,210.5C 224.142,211.626 222.808,211.626 221.5,210.5C 222.751,209.369 223.751,208.036 224.5,206.5C 224.176,203.671 222.843,203.004 220.5,204.5C 219.749,205.376 219.249,206.376 219,207.5C 218.79,205.942 218.29,204.609 217.5,203.5C 215.708,196.929 211.375,194.429 204.5,196C 196.536,202.115 196.536,208.282 204.5,214.5C 209.069,215.294 213.403,215.96 217.5,216.5C 214.745,217.631 212.411,219.298 210.5,221.5C 208.604,222.466 206.604,222.799 204.5,222.5C 202.742,222.123 201.075,221.456 199.5,220.5C 198.506,225.456 198.173,230.456 198.5,235.5C 195.833,235.5 193.167,235.5 190.5,235.5C 190.5,219.833 190.5,204.167 190.5,188.5C 192.833,188.5 195.167,188.5 197.5,188.5C 203.312,187.42 209.312,187.42 215.5,188.5 Z"/></g>
<g><path style="opacity:0.039" fill="#a6a269" d="M 215.5,188.5 C 217.027,188.427 218.027,189.094 218.5,190.5C 216.973,190.573 215.973,189.906 215.5,188.5 Z"/></g>
<g><path style="opacity:0.961" fill="#526c81" d="M 283.5,196.5 C 283.666,201.179 283.499,205.845 283,210.5C 282.716,212.886 281.716,213.552 280,212.5C 280.019,210.893 280.185,209.226 280.5,207.5C 280.742,200.64 277.908,195.64 272,192.5C 271.167,192.667 270.333,192.833 269.5,193C 270.69,195.733 272.524,197.899 275,199.5C 275.315,202.372 275.815,205.205 276.5,208C 276.361,209.301 275.695,210.134 274.5,210.5C 274.126,206.371 273.126,202.371 271.5,198.5C 270.451,201.08 269.784,203.746 269.5,206.5C 267.821,206.285 266.821,206.952 266.5,208.5C 265.978,206.352 265.978,204.352 266.5,202.5C 270.289,201.404 270.289,200.737 266.5,200.5C 267.341,198.621 267.675,196.621 267.5,194.5C 265.435,194.517 263.435,194.85 261.5,195.5C 261.483,193.972 260.816,193.472 259.5,194C 257.579,196.073 255.912,198.24 254.5,200.5C 253.834,204.353 253.167,208.353 252.5,212.5C 251.583,211.873 250.583,211.539 249.5,211.5C 246.595,196.983 252.428,188.316 267,185.5C 274.674,186.075 280.174,189.742 283.5,196.5 Z M 269.5,206.5 C 269.179,208.048 268.179,208.715 266.5,208.5C 266.821,206.952 267.821,206.285 269.5,206.5 Z M 266.5,200.5 C 270.289,200.737 270.289,201.404 266.5,202.5C 266.5,201.833 266.5,201.167 266.5,200.5 Z"/></g>
<g><path style="opacity:0.994" fill="#090705" d="M 424.5,188.5 C 426.167,188.5 427.833,188.5 429.5,188.5C 431.833,188.5 434.167,188.5 436.5,188.5C 436.5,199.5 436.5,210.5 436.5,221.5C 435.167,221.5 433.833,221.5 432.5,221.5C 431.319,219.933 429.653,219.099 427.5,219C 428.167,218.333 428.833,217.667 429.5,217C 428.742,213.956 428.742,210.79 429.5,207.5C 429.5,205.833 429.5,204.167 429.5,202.5C 429.539,201.417 429.873,200.417 430.5,199.5C 428.441,198.049 427.441,196.049 427.5,193.5C 424.135,193.745 420.968,193.078 418,191.5C 416.57,193.67 415.07,193.836 413.5,192C 415.392,191.027 417.392,190.36 419.5,190C 417.833,189.667 416.167,189.333 414.5,189C 417.817,188.502 421.15,188.335 424.5,188.5 Z"/></g>
<g><path style="opacity:0.971" fill="#201d16" d="M 116.5,214.5 C 113.515,215.182 110.515,216.182 107.5,217.5C 107.36,218.764 107.36,219.931 107.5,221C 112.91,221.211 118.243,220.544 123.5,219C 123.167,218.667 122.833,218.333 122.5,218C 124.134,217.506 125.801,217.34 127.5,217.5C 120.28,224.102 112.28,225.102 103.5,220.5C 94.5895,212.176 93.4229,202.843 100,192.5C 106,187.767 112.834,186.267 120.5,188C 126.181,190.507 129.848,194.674 131.5,200.5C 128.482,200.665 125.482,200.498 122.5,200C 115.943,193.571 110.11,194.071 105,201.5C 103.742,210.406 107.576,214.74 116.5,214.5 Z"/></g>
<g><path style="opacity:0.039" fill="#948362" d="M 295.5,188.5 C 292.833,188.5 290.167,188.5 287.5,188.5C 287.802,191.059 287.468,193.393 286.5,195.5C 286.5,192.833 286.5,190.167 286.5,187.5C 289.713,187.19 292.713,187.523 295.5,188.5 Z"/></g>
<g><path style="opacity:0.292" fill="#685e42" d="M 429.5,188.5 C 431.948,187.527 434.615,187.194 437.5,187.5C 437.5,199.167 437.5,210.833 437.5,222.5C 434.615,222.806 431.948,222.473 429.5,221.5C 430.5,221.5 431.5,221.5 432.5,221.5C 433.833,221.5 435.167,221.5 436.5,221.5C 436.5,210.5 436.5,199.5 436.5,188.5C 434.167,188.5 431.833,188.5 429.5,188.5 Z"/></g>
<g><path style="opacity:0.024" fill="#d2d091" d="M 152.5,191.5 C 152.833,191.5 153.167,191.5 153.5,191.5C 154.167,191.5 154.5,191.833 154.5,192.5C 153.1,193.1 152.1,194.1 151.5,195.5C 151.232,193.901 151.566,192.568 152.5,191.5 Z"/></g>
<g><path style="opacity:0.999" fill="#16140f" d="M 161.5,188.5 C 163.754,193.35 165.754,198.35 167.5,203.5C 167.322,206.216 166.822,208.883 166,211.5C 164.195,209.518 162.028,208.184 159.5,207.5C 157.647,202.607 155.98,197.607 154.5,192.5C 154.5,191.833 154.167,191.5 153.5,191.5C 153.5,191.167 153.5,190.833 153.5,190.5C 155.635,188.631 158.302,187.964 161.5,188.5 Z"/></g>
<g><path style="opacity:0.145" fill="#3d3523" d="M 145.5,188.5 C 144.626,189.525 143.459,190.192 142,190.5C 139.6,189.956 137.267,189.289 135,188.5C 134.5,199.495 134.333,210.495 134.5,221.5C 134.167,221.5 133.833,221.5 133.5,221.5C 133.5,210.167 133.5,198.833 133.5,187.5C 137.534,187.505 141.534,187.838 145.5,188.5 Z"/></g>
<g><path style="opacity:0.994" fill="#1e1c15" d="M 340.5,194.5 C 340.918,195.222 341.584,195.722 342.5,196C 341.167,197 341.167,198 342.5,199C 343.793,199.49 345.127,199.657 346.5,199.5C 342.804,207.443 345.137,212.776 353.5,215.5C 347.653,216.16 343.487,213.827 341,208.5C 340.801,210.402 339.967,211.902 338.5,213C 340.285,214.163 342.285,214.83 344.5,215C 344.146,216.626 344.146,218.459 344.5,220.5C 336.83,215.038 334.33,207.705 337,198.5C 337.498,196.456 338.665,195.122 340.5,194.5 Z"/></g>
<g><path style="opacity:0.965" fill="#181612" d="M 364.5,188.5 C 361.023,189.323 357.356,189.823 353.5,190C 356.78,191.619 359.78,193.619 362.5,196C 362.167,196.333 361.833,196.667 361.5,197C 362.744,197.456 363.577,196.956 364,195.5C 365.162,197.838 366.996,199.172 369.5,199.5C 370.25,204.626 369.917,209.793 368.5,215C 369.244,216.039 370.244,216.539 371.5,216.5C 371.5,218.167 371.5,219.833 371.5,221.5C 368.721,221.721 366.054,221.388 363.5,220.5C 357.125,224.489 350.792,224.489 344.5,220.5C 344.146,218.459 344.146,216.626 344.5,215C 342.285,214.83 340.285,214.163 338.5,213C 339.967,211.902 340.801,210.402 341,208.5C 343.487,213.827 347.653,216.16 353.5,215.5C 362.675,214.178 365.841,209.178 363,200.5C 357.759,194.236 352.259,193.903 346.5,199.5C 345.127,199.657 343.793,199.49 342.5,199C 341.167,198 341.167,197 342.5,196C 341.584,195.722 340.918,195.222 340.5,194.5C 341.658,191.178 343.992,189.012 347.5,188C 353.188,187.446 358.855,187.613 364.5,188.5 Z"/></g>
<g><path style="opacity:0.936" fill="#090402" d="M 364.5,188.5 C 366.833,188.5 369.167,188.5 371.5,188.5C 371.5,197.833 371.5,207.167 371.5,216.5C 370.244,216.539 369.244,216.039 368.5,215C 369.917,209.793 370.25,204.626 369.5,199.5C 366.996,199.172 365.162,197.838 364,195.5C 363.577,196.956 362.744,197.456 361.5,197C 361.833,196.667 362.167,196.333 362.5,196C 359.78,193.619 356.78,191.619 353.5,190C 357.356,189.823 361.023,189.323 364.5,188.5 Z"/></g>
<g><path style="opacity:1" fill="#191711" d="M 333.5,174.5 C 334.495,185.988 334.828,197.655 334.5,209.5C 333.517,213.298 333.183,217.298 333.5,221.5C 331.167,221.5 328.833,221.5 326.5,221.5C 326.5,219.833 326.5,218.167 326.5,216.5C 327.306,215.003 327.972,213.336 328.5,211.5C 328.604,206.526 328.438,201.526 328,196.5C 328.333,195.833 328.667,195.167 329,194.5C 329.595,195.899 329.428,197.232 328.5,198.5C 329,199.5 329.5,200.5 330,201.5C 331.603,200.114 332.437,198.281 332.5,196C 333.322,188.856 333.656,181.69 333.5,174.5 Z"/></g>
<g><path style="opacity:0.974" fill="#26221b" d="M 389.5,195.5 C 389.218,197.568 390.051,199.568 392,201.5C 393.571,199.077 395.737,197.744 398.5,197.5C 394.833,203.167 391.167,208.833 387.5,214.5C 385.408,211.671 384.241,208.671 384,205.5C 382.019,207.359 381.019,209.692 381,212.5C 379.416,213.861 377.582,214.528 375.5,214.5C 380.167,208.167 384.833,201.833 389.5,195.5 Z"/></g>
<g><path style="opacity:0.987" fill="#2a2720" d="M 217.5,203.5 C 218.29,204.609 218.79,205.942 219,207.5C 219.249,206.376 219.749,205.376 220.5,204.5C 222.843,203.004 224.176,203.671 224.5,206.5C 223.751,208.036 222.751,209.369 221.5,210.5C 222.808,211.626 224.142,211.626 225.5,210.5C 221.799,220.512 214.799,224.512 204.5,222.5C 206.604,222.799 208.604,222.466 210.5,221.5C 212.411,219.298 214.745,217.631 217.5,216.5C 213.403,215.96 209.069,215.294 204.5,214.5C 213.182,215.811 217.515,212.145 217.5,203.5 Z"/></g>
<g><path style="opacity:0.094" fill="#887e59" d="M 143.5,199.5 C 142.534,207.08 142.201,214.747 142.5,222.5C 139.287,222.81 136.287,222.477 133.5,221.5C 133.833,221.5 134.167,221.5 134.5,221.5C 136.833,221.5 139.167,221.5 141.5,221.5C 140.87,213.757 141.537,206.424 143.5,199.5 Z"/></g>
<g><path style="opacity:0.086" fill="#857a5f" d="M 179.5,188.5 C 185.5,187.167 191.5,187.167 197.5,188.5C 195.167,188.5 192.833,188.5 190.5,188.5C 190.5,204.167 190.5,219.833 190.5,235.5C 189.833,220.5 189.167,205.5 188.5,190.5C 186.012,188.612 183.012,187.945 179.5,188.5 Z"/></g>
<g><path style="opacity:0.196" fill="#958c68" d="M 364.5,188.5 C 366.948,187.527 369.615,187.194 372.5,187.5C 372.5,199.167 372.5,210.833 372.5,222.5C 368.988,223.055 365.988,222.388 363.5,220.5C 366.054,221.388 368.721,221.721 371.5,221.5C 371.5,219.833 371.5,218.167 371.5,216.5C 371.5,207.167 371.5,197.833 371.5,188.5C 369.167,188.5 366.833,188.5 364.5,188.5 Z"/></g>
<g><path style="opacity:0.204" fill="#9d9176" d="M 401.5,206.5 C 402.612,208.599 403.279,210.933 403.5,213.5C 401.837,211.562 401.171,209.228 401.5,206.5 Z"/></g>
<g><path style="opacity:0.02" fill="#c7c59c" d="M 122.5,209.5 C 125.287,208.523 128.287,208.19 131.5,208.5C 131.768,210.099 131.434,211.432 130.5,212.5C 130.5,211.5 130.5,210.5 130.5,209.5C 127.833,209.5 125.167,209.5 122.5,209.5 Z"/></g>
<g><path style="opacity:0.2" fill="#5a4f38" d="M 326.5,174.5 C 326.5,188.5 326.5,202.5 326.5,216.5C 326.5,218.167 326.5,219.833 326.5,221.5C 328.833,221.5 331.167,221.5 333.5,221.5C 333.183,217.298 333.517,213.298 334.5,209.5C 334.5,213.833 334.5,218.167 334.5,222.5C 331.5,222.5 328.5,222.5 325.5,222.5C 325.17,206.325 325.504,190.325 326.5,174.5 Z"/></g>
<g><path style="opacity:0.975" fill="#496e8b" d="M 266.5,200.5 C 266.5,201.167 266.5,201.833 266.5,202.5C 265.978,204.352 265.978,206.352 266.5,208.5C 268.179,208.715 269.179,208.048 269.5,206.5C 269.784,203.746 270.451,201.08 271.5,198.5C 273.126,202.371 274.126,206.371 274.5,210.5C 274.5,211.167 274.167,211.5 273.5,211.5C 272.167,211.5 270.833,211.5 269.5,211.5C 268.587,216.74 267.587,216.74 266.5,211.5C 265.004,215.335 264.004,215.335 263.5,211.5C 261.517,211.843 260.183,211.176 259.5,209.5C 260.998,205.822 260.665,202.322 258.5,199C 258.978,197.358 259.978,196.191 261.5,195.5C 263.435,194.85 265.435,194.517 267.5,194.5C 267.675,196.621 267.341,198.621 266.5,200.5 Z M 269.5,206.5 C 269.179,208.048 268.179,208.715 266.5,208.5C 266.821,206.952 267.821,206.285 269.5,206.5 Z M 266.5,200.5 C 270.289,200.737 270.289,201.404 266.5,202.5C 266.5,201.833 266.5,201.167 266.5,200.5 Z"/></g>
<g><path style="opacity:0.998" fill="#14110c" d="M 387.5,214.5 C 392.167,214.5 396.833,214.5 401.5,214.5C 401.5,217.167 401.5,219.833 401.5,222.5C 392.318,222.827 383.318,222.493 374.5,221.5C 374.448,219.097 374.781,216.764 375.5,214.5C 377.582,214.528 379.416,213.861 381,212.5C 381.019,209.692 382.019,207.359 384,205.5C 384.241,208.671 385.408,211.671 387.5,214.5 Z"/></g>
<g><path style="opacity:0.935" fill="#595342" d="M 323.5,202.5 C 324.847,207.808 323.513,212.475 319.5,216.5C 321.793,212.267 323.127,207.601 323.5,202.5 Z"/></g>
<g><path style="opacity:0.999" fill="#14120c" d="M 240.5,209.5 C 241.452,213.12 243.785,214.787 247.5,214.5C 247.5,217.167 247.5,219.833 247.5,222.5C 239.738,223.04 234.738,219.707 232.5,212.5C 233.323,209.023 233.823,205.356 234,201.5C 235.617,200.464 235.784,199.297 234.5,198C 235.784,197.316 236.951,197.483 238,198.5C 238.607,201.202 238.44,203.868 237.5,206.5C 237.571,209.223 238.571,210.223 240.5,209.5 Z"/></g>
<g><path style="opacity:0.988" fill="#0d0a08" d="M 122.5,209.5 C 125.167,209.5 127.833,209.5 130.5,209.5C 130.5,210.5 130.5,211.5 130.5,212.5C 129.737,214.368 128.737,216.035 127.5,217.5C 125.801,217.34 124.134,217.506 122.5,218C 122.833,218.333 123.167,218.667 123.5,219C 118.243,220.544 112.91,221.211 107.5,221C 107.36,219.931 107.36,218.764 107.5,217.5C 110.515,216.182 113.515,215.182 116.5,214.5C 119.109,213.557 121.109,211.89 122.5,209.5 Z"/></g>
<g><path style="opacity:0.981" fill="#191611" d="M 409.5,204.5 C 410.796,213.162 415.796,216.328 424.5,214C 426.55,212.035 428.217,209.868 429.5,207.5C 428.742,210.79 428.742,213.956 429.5,217C 428.833,217.667 428.167,218.333 427.5,219C 429.653,219.099 431.319,219.933 432.5,221.5C 431.5,221.5 430.5,221.5 429.5,221.5C 428.883,221.389 428.383,221.056 428,220.5C 421.496,224.534 414.996,224.367 408.5,220C 406.21,218.223 404.543,216.056 403.5,213.5C 403.279,210.933 402.612,208.599 401.5,206.5C 401.5,205.5 401.5,204.5 401.5,203.5C 402.29,202.391 402.79,201.058 403,199.5C 403.333,199.833 403.667,200.167 404,200.5C 404.196,198.714 405.029,197.381 406.5,196.5C 409.106,198.418 410.106,201.084 409.5,204.5 Z"/></g>
<g><path style="opacity:0.035" fill="#817a52" d="M 375.5,214.5 C 374.781,216.764 374.448,219.097 374.5,221.5C 373.853,220.726 373.52,219.726 373.5,218.5C 373.34,216.645 374.007,215.312 375.5,214.5 Z"/></g>
<g><path style="opacity:0.847" fill="#5d7887" d="M 283.5,196.5 C 287.796,208.102 284.463,216.935 273.5,223C 262.173,225.835 254.173,222.002 249.5,211.5C 250.583,211.539 251.583,211.873 252.5,212.5C 253.167,208.353 253.834,204.353 254.5,200.5C 253.41,206.613 255.077,211.779 259.5,216C 260.759,216.982 262.092,217.315 263.5,217C 261.833,214.667 259.833,212.667 257.5,211C 258.044,210.283 258.711,209.783 259.5,209.5C 260.183,211.176 261.517,211.843 263.5,211.5C 264.004,215.335 265.004,215.335 266.5,211.5C 267.587,216.74 268.587,216.74 269.5,211.5C 270.833,211.5 272.167,211.5 273.5,211.5C 272.791,212.404 271.791,212.737 270.5,212.5C 270.878,218.371 273.045,218.704 277,213.5C 277.941,211.273 279.108,209.273 280.5,207.5C 280.185,209.226 280.019,210.893 280,212.5C 281.716,213.552 282.716,212.886 283,210.5C 283.499,205.845 283.666,201.179 283.5,196.5 Z M 269.5,206.5 C 269.179,208.048 268.179,208.715 266.5,208.5C 266.821,206.952 267.821,206.285 269.5,206.5 Z M 266.5,200.5 C 270.289,200.737 270.289,201.404 266.5,202.5C 266.5,201.833 266.5,201.167 266.5,200.5 Z"/></g>
</svg>
