<?xml version="1.0" encoding="UTF-8"?>
<!DOCTYPE svg PUBLIC "-//W3C//DTD SVG 1.1//EN" "http://www.w3.org/Graphics/SVG/1.1/DTD/svg11.dtd">
<svg xmlns="http://www.w3.org/2000/svg" version="1.1" width="381px" height="392px" style="shape-rendering:geometricPrecision; text-rendering:geometricPrecision; image-rendering:optimizeQuality; fill-rule:evenodd; clip-rule:evenodd" xmlns:xlink="http://www.w3.org/1999/xlink">
<g><path style="opacity:0.998" fill="#fcfbfc" d="M 350.5,136.5 C 351.149,138.477 351.149,140.31 350.5,142C 350.759,143.261 351.426,144.261 352.5,145C 352.167,145.333 351.833,145.667 351.5,146C 352.167,148 352.833,150 353.5,152C 352.711,155.097 351.544,155.264 350,152.5C 349.338,154.813 348.838,157.146 348.5,159.5C 347.5,159.5 346.5,159.5 345.5,159.5C 345.5,162.167 345.5,164.833 345.5,167.5C 341.182,167.697 337.015,167.697 333,167.5C 332.985,165.209 332.818,163.042 332.5,161C 333.704,159.647 334.371,157.981 334.5,156C 334.333,154.5 334.167,153 334,151.5C 333.667,153.833 333.333,156.167 333,158.5C 332.762,154.627 331.929,150.96 330.5,147.5C 330.57,146.228 330.903,145.062 331.5,144C 330.376,143.751 329.376,143.251 328.5,142.5C 326.86,137.198 323.527,133.531 318.5,131.5C 305.372,122.67 291.706,121.67 277.5,128.5C 273.424,129.923 269.424,132.423 265.5,136C 261.951,136.458 258.618,135.792 255.5,134C 253.695,131.433 252.362,128.599 251.5,125.5C 252.046,122.767 252.713,119.767 253.5,116.5C 257.539,111.755 260.539,106.422 262.5,100.5C 264.047,98.1934 264.713,95.5267 264.5,92.5C 264.495,90.3035 264.162,88.3035 263.5,86.5C 260.802,72.6275 252.802,63.1275 239.5,58C 218.178,53.4085 203.678,61.2418 196,81.5C 194.844,85.4183 194.344,89.4183 194.5,93.5C 192.899,125.651 192.065,157.984 192,190.5C 190.906,185.465 190.74,180.465 191.5,175.5C 189.5,175.5 187.5,175.5 185.5,175.5C 184.996,179.335 183.996,179.335 182.5,175.5C 182.167,178.167 181.833,180.833 181.5,183.5C 181.601,186.7 182.268,189.7 183.5,192.5C 181.669,196.241 181.003,200.241 181.5,204.5C 179.5,204.5 177.5,204.5 175.5,204.5C 175.5,205.5 175.5,206.5 175.5,207.5C 173.058,207.881 172.391,207.214 173.5,205.5C 171.712,202.093 168.878,200.76 165,201.5C 144.061,205.14 122.895,206.14 101.5,204.5C 103.078,203.702 104.744,203.202 106.5,203C 118.889,203.014 131.222,202.847 143.5,202.5C 143.5,201.5 143.5,200.5 143.5,199.5C 137.261,198.366 131.761,198.366 127,199.5C 126.833,199.167 126.667,198.833 126.5,198.5C 131.577,197.895 136.577,197.062 141.5,196C 117.663,195.832 93.9965,195.332 70.5,194.5C 85.1212,193.576 100.121,193.243 115.5,193.5C 124.675,194.167 134.009,194.833 143.5,195.5C 145.42,198.898 147.753,199.231 150.5,196.5C 151.308,196.808 151.975,197.308 152.5,198C 157.838,198.735 163.172,199.068 168.5,199C 167.29,197.105 167.624,195.272 169.5,193.5C 170.83,156.998 170.83,120.331 169.5,83.5C 168.817,83.1373 168.15,82.8039 167.5,82.5C 159.124,60.3236 143.457,52.4903 120.5,59C 100.404,70.4517 94.7377,86.9517 103.5,108.5C 105.574,114.046 108.241,119.213 111.5,124C 108.833,125.333 108.833,126.667 111.5,128C 110.672,128.915 109.672,129.581 108.5,130C 109.34,131.666 108.84,131.833 107,130.5C 104.833,132 105,133.167 107.5,134C 99.8107,137.227 93.4774,135.561 88.5,129C 86.5643,128.187 84.5643,127.687 82.5,127.5C 60.8755,120.144 44.5422,126.478 33.5,146.5C 32.3259,148.441 30.6592,149.941 28.5,151C 30.4574,153.121 30.9574,155.621 30,158.5C 28.9887,159.337 27.8221,159.67 26.5,159.5C 26.6713,156.203 26.0046,155.869 24.5,158.5C 19.5079,158.496 16.1746,160.829 14.5,165.5C 13.8333,163.167 13.1667,160.833 12.5,158.5C 11.8333,158.167 11.1667,157.833 10.5,157.5C 9.67636,160.785 9.17636,164.118 9,167.5C 8.8255,162.649 8.3255,157.982 7.5,153.5C 7.21552,151.585 7.54885,149.919 8.5,148.5C 9.16145,147.282 9.82811,145.949 10.5,144.5C 13.6582,145.153 13.9915,144.319 11.5,142C 12.1667,141.667 12.8333,141.333 13.5,141C 13.1119,139.192 13.1119,137.525 13.5,136C 15.7385,134.022 17.0718,131.522 17.5,128.5C 19.5836,125.997 21.4169,123.331 23,120.5C 24.7391,118.259 26.9058,116.592 29.5,115.5C 30.7759,114.386 30.7759,113.386 29.5,112.5C 40.5815,103.283 53.2481,98.6159 67.5,98.5C 69.8063,101.006 72.473,101.673 75.5,100.5C 75.6288,92.9432 75.6288,85.6099 75.5,78.5C 83.4216,48.9244 102.755,33.2577 133.5,31.5C 152.773,31.8045 168.773,39.1378 181.5,53.5C 203.642,30.4526 229.308,25.6193 258.5,39C 280.201,52.7364 290.201,72.4031 288.5,98C 309.922,97.2708 328.089,105.104 343,121.5C 346.212,126.193 348.712,131.193 350.5,136.5 Z"/></g>
<g><path style="opacity:0.22" fill="#fee8ff" d="M 263.5,86.5 C 264.162,88.3035 264.495,90.3035 264.5,92.5C 264.713,95.5267 264.047,98.1934 262.5,100.5C 263.314,95.8809 263.647,91.2142 263.5,86.5 Z"/></g>
<g><path style="opacity:0.89" fill="#fae9fc" d="M 75.5,78.5 C 75.6288,85.6099 75.6288,92.9432 75.5,100.5C 72.473,101.673 69.8063,101.006 67.5,98.5C 74.1584,99.6555 76.1584,97.1555 73.5,91C 74.2641,86.8735 74.9308,82.7068 75.5,78.5 Z"/></g>
<g><path style="opacity:0.55" fill="#feeafe" d="M 167.5,82.5 C 168.15,82.8039 168.817,83.1373 169.5,83.5C 170.83,120.331 170.83,156.998 169.5,193.5C 168.833,193.5 168.167,193.5 167.5,193.5C 168.828,156.53 168.828,119.53 167.5,82.5 Z"/></g>
<g><path style="opacity:0.871" fill="#fef2fe" d="M 29.5,112.5 C 30.7759,113.386 30.7759,114.386 29.5,115.5C 26.9058,116.592 24.7391,118.259 23,120.5C 21.4169,123.331 19.5836,125.997 17.5,128.5C 17.0718,131.522 15.7385,134.022 13.5,136C 13.1119,137.525 13.1119,139.192 13.5,141C 12.8333,141.333 12.1667,141.667 11.5,142C 13.9915,144.319 13.6582,145.153 10.5,144.5C 9.82811,145.949 9.16145,147.282 8.5,148.5C 10.8737,133.746 17.8737,121.746 29.5,112.5 Z"/></g>
<g><path style="opacity:0.845" fill="#fef2fe" d="M 253.5,116.5 C 252.713,119.767 252.046,122.767 251.5,125.5C 252.362,128.599 253.695,131.433 255.5,134C 258.618,135.792 261.951,136.458 265.5,136C 269.424,132.423 273.424,129.923 277.5,128.5C 274.305,131.852 270.638,134.685 266.5,137C 255.544,138.357 249.878,133.691 249.5,123C 250.219,120.383 251.553,118.216 253.5,116.5 Z"/></g>
<g><path style="opacity:0.924" fill="#feeffc" d="M 103.5,108.5 C 106.803,112.651 109.97,116.985 113,121.5C 114.12,130.899 109.953,136.566 100.5,138.5C 98.8034,138.101 97.1368,137.601 95.5,137C 91.0992,133.812 86.7659,130.645 82.5,127.5C 84.5643,127.687 86.5643,128.187 88.5,129C 93.4774,135.561 99.8107,137.227 107.5,134C 105,133.167 104.833,132 107,130.5C 108.84,131.833 109.34,131.666 108.5,130C 109.672,129.581 110.672,128.915 111.5,128C 108.833,126.667 108.833,125.333 111.5,124C 108.241,119.213 105.574,114.046 103.5,108.5 Z"/></g>
<g><path style="opacity:0.998" fill="#fdf7fc" d="M 194.5,93.5 C 194.5,126.833 194.5,160.167 194.5,193.5C 228.584,194.25 262.751,194.583 297,194.5C 323.743,188.978 334.409,172.978 329,146.5C 326.475,140.771 322.975,135.771 318.5,131.5C 323.527,133.531 326.86,137.198 328.5,142.5C 329.376,143.251 330.376,143.751 331.5,144C 330.903,145.062 330.57,146.228 330.5,147.5C 331.929,150.96 332.762,154.627 333,158.5C 333.333,156.167 333.667,153.833 334,151.5C 334.167,153 334.333,154.5 334.5,156C 334.371,157.981 333.704,159.647 332.5,161C 332.818,163.042 332.985,165.209 333,167.5C 337.015,167.697 341.182,167.697 345.5,167.5C 345.5,164.833 345.5,162.167 345.5,159.5C 346.5,159.5 347.5,159.5 348.5,159.5C 348.838,157.146 349.338,154.813 350,152.5C 351.544,155.264 352.711,155.097 353.5,152C 352.833,150 352.167,148 351.5,146C 351.833,145.667 352.167,145.333 352.5,145C 351.426,144.261 350.759,143.261 350.5,142C 351.149,140.31 351.149,138.477 350.5,136.5C 359.867,160.291 355.867,181.624 338.5,200.5C 334.071,201.324 331.405,203.991 330.5,208.5C 324.854,209.884 321.854,213.884 321.5,220.5C 323.013,221.846 324.347,223.346 325.5,225C 325.243,227.552 326.243,229.885 328.5,232C 328,232.5 327.5,233 327,233.5C 326.184,232.177 325.017,231.511 323.5,231.5C 318.499,225.999 312.499,221.999 305.5,219.5C 304.048,217.9 302.215,216.9 300,216.5C 285.16,217.44 269.494,217.107 253,215.5C 249.849,216.093 246.682,216.593 243.5,217C 245.382,217.198 247.048,217.698 248.5,218.5C 242.559,219.413 236.559,219.746 230.5,219.5C 218.007,218.34 205.34,218.173 192.5,219C 190.153,220.086 190.153,221.419 192.5,223C 191.315,229.739 190.649,229.906 190.5,223.5C 186.407,225.748 182.74,228.748 179.5,232.5C 178.271,233.281 176.938,233.781 175.5,234C 175.833,234.333 176.167,234.667 176.5,235C 175.91,236.509 175.244,238.009 174.5,239.5C 173.289,235.423 171.956,231.423 170.5,227.5C 169.912,224.39 169.245,221.39 168.5,218.5C 167.833,218.5 167.167,218.5 166.5,218.5C 168.054,217.105 167.721,216.439 165.5,216.5C 140.419,216.507 115.086,216.674 89.5,217C 87.9419,217.21 86.6085,217.71 85.5,218.5C 85.5,219.167 85.5,219.833 85.5,220.5C 84.7321,221.263 84.2321,222.263 84,223.5C 83.4177,220.332 82.4177,219.999 81,222.5C 80.6667,222.167 80.3333,221.833 80,221.5C 78.7246,223.717 77.7246,226.051 77,228.5C 75.7318,228.616 74.3985,228.949 73,229.5C 72.3828,230.449 72.5494,231.282 73.5,232C 69.5442,233.118 67.2108,235.618 66.5,239.5C 65.1667,239.5 63.8333,239.5 62.5,239.5C 62.7187,232.304 62.3854,225.471 61.5,219C 62.1667,218.333 62.8333,217.667 63.5,217C 61.2028,216.982 58.8695,217.149 56.5,217.5C 29.7791,211.612 13.6124,195.279 8,168.5C 7.50074,163.511 7.33407,158.511 7.5,153.5C 8.3255,157.982 8.8255,162.649 9,167.5C 9.17636,164.118 9.67636,160.785 10.5,157.5C 11.1667,157.833 11.8333,158.167 12.5,158.5C 13.1667,160.833 13.8333,163.167 14.5,165.5C 16.1746,160.829 19.5079,158.496 24.5,158.5C 26.0046,155.869 26.6713,156.203 26.5,159.5C 27.8221,159.67 28.9887,159.337 30,158.5C 30.9574,155.621 30.4574,153.121 28.5,151C 30.6592,149.941 32.3259,148.441 33.5,146.5C 28.6992,165.927 35.0325,180.76 52.5,191C 58.3398,192.928 64.3398,194.094 70.5,194.5C 93.9965,195.332 117.663,195.832 141.5,196C 136.577,197.062 131.577,197.895 126.5,198.5C 126.667,198.833 126.833,199.167 127,199.5C 131.761,198.366 137.261,198.366 143.5,199.5C 143.5,200.5 143.5,201.5 143.5,202.5C 131.222,202.847 118.889,203.014 106.5,203C 104.744,203.202 103.078,203.702 101.5,204.5C 122.895,206.14 144.061,205.14 165,201.5C 168.878,200.76 171.712,202.093 173.5,205.5C 172.391,207.214 173.058,207.881 175.5,207.5C 175.5,206.5 175.5,205.5 175.5,204.5C 177.5,204.5 179.5,204.5 181.5,204.5C 181.003,200.241 181.669,196.241 183.5,192.5C 182.268,189.7 181.601,186.7 181.5,183.5C 181.833,180.833 182.167,178.167 182.5,175.5C 183.996,179.335 184.996,179.335 185.5,175.5C 187.5,175.5 189.5,175.5 191.5,175.5C 190.74,180.465 190.906,185.465 192,190.5C 192.065,157.984 192.899,125.651 194.5,93.5 Z"/></g>
<g><path style="opacity:1" fill="#fef5fe" d="M 115.5,193.5 C 132.833,193.5 150.167,193.5 167.5,193.5C 168.167,193.5 168.833,193.5 169.5,193.5C 167.624,195.272 167.29,197.105 168.5,199C 163.172,199.068 157.838,198.735 152.5,198C 151.975,197.308 151.308,196.808 150.5,196.5C 147.753,199.231 145.42,198.898 143.5,195.5C 134.009,194.833 124.675,194.167 115.5,193.5 Z"/></g>
<g><path style="opacity:0.994" fill="#fceffd" d="M 338.5,200.5 C 336.803,202.339 335.137,204.172 333.5,206C 337.653,210.822 341.82,215.655 346,220.5C 360.827,247.467 358.327,272.633 338.5,296C 335.208,299.138 331.542,301.638 327.5,303.5C 326.504,303.586 325.671,303.252 325,302.5C 321.269,305.845 317.269,306.178 313,303.5C 311.951,304.517 310.784,304.684 309.5,304C 311.432,302.436 312.765,300.436 313.5,298C 313.245,296.674 312.578,295.674 311.5,295C 312.469,293.242 313.636,292.742 315,293.5C 315.72,291.888 315.554,290.388 314.5,289C 317.028,287.684 317.028,286.517 314.5,285.5C 316.611,284.395 317.945,282.729 318.5,280.5C 333.393,265.486 335.059,249.153 323.5,231.5C 325.017,231.511 326.184,232.177 327,233.5C 327.5,233 328,232.5 328.5,232C 326.243,229.885 325.243,227.552 325.5,225C 324.347,223.346 323.013,221.846 321.5,220.5C 321.854,213.884 324.854,209.884 330.5,208.5C 331.405,203.991 334.071,201.324 338.5,200.5 Z"/></g>
<g><path style="opacity:0.836" fill="#fef0fe" d="M 305.5,219.5 C 286.527,218.551 267.527,218.218 248.5,218.5C 247.048,217.698 245.382,217.198 243.5,217C 246.682,216.593 249.849,216.093 253,215.5C 269.494,217.107 285.16,217.44 300,216.5C 302.215,216.9 304.048,217.9 305.5,219.5 Z"/></g>
<g><path style="opacity:0.62" fill="#feecfe" d="M 166.5,218.5 C 139.5,218.5 112.5,218.5 85.5,218.5C 86.6085,217.71 87.9419,217.21 89.5,217C 115.086,216.674 140.419,216.507 165.5,216.5C 167.721,216.439 168.054,217.105 166.5,218.5 Z"/></g>
<g><path style="opacity:0.989" fill="#fdf0fd" d="M 85.5,220.5 C 85.5,223.5 85.5,226.5 85.5,229.5C 84.6829,231.969 84.1829,234.635 84,237.5C 83.8665,234.475 82.8665,231.808 81,229.5C 80.7489,231.433 80.2489,233.266 79.5,235C 79.8333,235.333 80.1667,235.667 80.5,236C 78.5188,236.605 78.1854,237.605 79.5,239C 74.3634,242.145 69.5301,245.645 65,249.5C 64.6827,247.699 64.016,247.366 63,248.5C 62.502,245.518 62.3354,242.518 62.5,239.5C 63.8333,239.5 65.1667,239.5 66.5,239.5C 67.2108,235.618 69.5442,233.118 73.5,232C 72.5494,231.282 72.3828,230.449 73,229.5C 74.3985,228.949 75.7318,228.616 77,228.5C 77.7246,226.051 78.7246,223.717 80,221.5C 80.3333,221.833 80.6667,222.167 81,222.5C 82.4177,219.999 83.4177,220.332 84,223.5C 84.2321,222.263 84.7321,221.263 85.5,220.5 Z"/></g>
<g><path style="opacity:0.987" fill="#fdf0fc" d="M 230.5,219.5 C 218.5,219.5 206.5,219.5 194.5,219.5C 194.5,224.833 194.5,230.167 194.5,235.5C 193.503,256.327 193.169,277.327 193.5,298.5C 192.756,295.64 192.089,292.64 191.5,289.5C 191.666,277.66 191.666,265.827 191.5,254C 190.863,251.755 190.03,249.588 189,247.5C 188.667,248.167 188.333,248.833 188,249.5C 187.995,254.147 188.162,258.814 188.5,263.5C 185.951,263.441 183.951,264.441 182.5,266.5C 181.278,264.022 179.278,263.022 176.5,263.5C 176.849,266.045 176.016,268.045 174,269.5C 172.643,267.345 172.476,265.178 173.5,263C 172.576,261.189 171.743,261.355 171,263.5C 170.791,252.14 170.291,240.807 169.5,229.5C 169.543,228.584 169.876,227.917 170.5,227.5C 171.956,231.423 173.289,235.423 174.5,239.5C 175.244,238.009 175.91,236.509 176.5,235C 176.167,234.667 175.833,234.333 175.5,234C 176.938,233.781 178.271,233.281 179.5,232.5C 182.74,228.748 186.407,225.748 190.5,223.5C 190.649,229.906 191.315,229.739 192.5,223C 190.153,221.419 190.153,220.086 192.5,219C 205.34,218.173 218.007,218.34 230.5,219.5 Z"/></g>
<g><path style="opacity:0.968" fill="#fde9fe" d="M 62.5,239.5 C 62.3354,242.518 62.502,245.518 63,248.5C 64.016,247.366 64.6827,247.699 65,249.5C 69.5301,245.645 74.3634,242.145 79.5,239C 78.1854,237.605 78.5188,236.605 80.5,236C 80.1667,235.667 79.8333,235.333 79.5,235C 80.2489,233.266 80.7489,231.433 81,229.5C 82.8665,231.808 83.8665,234.475 84,237.5C 84.1829,234.635 84.6829,231.969 85.5,229.5C 85.502,235.523 85.8354,241.523 86.5,247.5C 85.8144,255.038 84.981,262.704 84,270.5C 83.9722,261.338 83.3055,252.338 82,243.5C 81.6667,245.5 81.3333,247.5 81,249.5C 78.1901,246.803 77.3567,247.303 78.5,251C 75.7666,254.686 72.4332,256.52 68.5,256.5C 66.8129,256.76 65.3129,257.427 64,258.5C 63.6667,261.833 63.3333,265.167 63,268.5C 62.6667,265.5 62.3333,262.5 62,259.5C 61.79,261.058 61.29,262.391 60.5,263.5C 60.5,248.5 60.5,233.5 60.5,218.5C 58.901,218.768 57.5676,218.434 56.5,217.5C 58.8695,217.149 61.2028,216.982 63.5,217C 62.8333,217.667 62.1667,218.333 61.5,219C 62.3854,225.471 62.7187,232.304 62.5,239.5 Z"/></g>
<g><path style="opacity:0.994" fill="#fce2fd" d="M 86.5,247.5 C 86.5699,265.176 86.2366,282.843 85.5,300.5C 103.206,300.91 121.206,301.244 139.5,301.5C 138.811,305.178 136.811,306.178 133.5,304.5C 126.148,306.214 118.815,307.047 111.5,307C 112.833,307.333 114.167,307.667 115.5,308C 109.039,309.44 109.039,310.44 115.5,311C 113.5,311.333 111.5,311.667 109.5,312C 108.391,313.813 109.058,314.646 111.5,314.5C 111.5,315.833 111.5,317.167 111.5,318.5C 108.603,318.125 105.937,318.625 103.5,320C 105.366,320.985 107.366,321.485 109.5,321.5C 112.42,320.618 115.253,320.284 118,320.5C 118.5,320.833 119,321.167 119.5,321.5C 111.065,322.912 102.565,323.579 94,323.5C 88.6556,323.448 83.4889,322.781 78.5,321.5C 75.5588,322.613 72.8921,323.946 70.5,325.5C 64.8661,324.598 61.6994,321.265 61,315.5C 60.5001,298.17 60.3334,280.837 60.5,263.5C 61.29,262.391 61.79,261.058 62,259.5C 62.3333,262.5 62.6667,265.5 63,268.5C 63.3333,265.167 63.6667,261.833 64,258.5C 65.3129,257.427 66.8129,256.76 68.5,256.5C 72.4332,256.52 75.7666,254.686 78.5,251C 77.3567,247.303 78.1901,246.803 81,249.5C 81.3333,247.5 81.6667,245.5 82,243.5C 83.3055,252.338 83.9722,261.338 84,270.5C 84.981,262.704 85.8144,255.038 86.5,247.5 Z"/></g>
<g><path style="opacity:0.992" fill="#fde9fd" d="M 168.5,218.5 C 169.245,221.39 169.912,224.39 170.5,227.5C 169.876,227.917 169.543,228.584 169.5,229.5C 170.291,240.807 170.791,252.14 171,263.5C 171.743,261.355 172.576,261.189 173.5,263C 172.476,265.178 172.643,267.345 174,269.5C 176.016,268.045 176.849,266.045 176.5,263.5C 179.278,263.022 181.278,264.022 182.5,266.5C 183.951,264.441 185.951,263.441 188.5,263.5C 188.162,258.814 187.995,254.147 188,249.5C 188.333,248.833 188.667,248.167 189,247.5C 190.03,249.588 190.863,251.755 191.5,254C 191.666,265.827 191.666,277.66 191.5,289.5C 192.089,292.64 192.756,295.64 193.5,298.5C 193.666,307.506 193.5,316.506 193,325.5C 190.295,317.68 189.795,309.68 191.5,301.5C 191.167,300.833 190.833,300.167 190.5,299.5C 189.571,300.689 189.238,302.022 189.5,303.5C 188.5,303.5 187.5,303.5 186.5,303.5C 187.965,307.389 188.465,311.389 188,315.5C 186.667,312.833 185.333,312.833 184,315.5C 183.316,313.521 183.816,311.854 185.5,310.5C 184.391,308.615 183.557,306.615 183,304.5C 180.959,303.577 178.792,303.244 176.5,303.5C 176.649,302.448 176.483,301.448 176,300.5C 175.259,301.641 174.425,301.641 173.5,300.5C 171.724,301.315 171.057,302.482 171.5,304C 170.552,304.483 169.552,304.649 168.5,304.5C 168.5,303.167 168.5,301.833 168.5,300.5C 168.93,273.248 168.93,245.914 168.5,218.5 Z"/></g>
<g><path style="opacity:0.988" fill="#fceefc" d="M 274.5,281.5 C 274.389,282.117 274.056,282.617 273.5,283C 274.574,283.739 275.241,284.739 275.5,286C 273.382,288.164 271.715,290.664 270.5,293.5C 269.702,291.922 269.202,290.256 269,288.5C 267.989,287.663 266.822,287.33 265.5,287.5C 265.666,290.168 266.666,292.502 268.5,294.5C 267.948,296.333 267.115,298 266,299.5C 265.692,298.692 265.192,298.025 264.5,297.5C 263.355,299.635 263.355,301.801 264.5,304C 264.37,305.059 263.87,305.892 263,306.5C 258.609,300.925 254.775,294.925 251.5,288.5C 252.711,287.28 252.711,286.113 251.5,285C 253.036,283.532 253.37,282.032 252.5,280.5C 256.907,274.204 262.574,273.037 269.5,277C 271.24,278.517 272.906,280.017 274.5,281.5 Z"/></g>
<g><path style="opacity:0.98" fill="#fceafd" d="M 252.5,280.5 C 253.37,282.032 253.036,283.532 251.5,285C 252.711,286.113 252.711,287.28 251.5,288.5C 254.775,294.925 258.609,300.925 263,306.5C 263.87,305.892 264.37,305.059 264.5,304C 263.355,301.801 263.355,299.635 264.5,297.5C 265.192,298.025 265.692,298.692 266,299.5C 267.115,298 267.948,296.333 268.5,294.5C 266.666,292.502 265.666,290.168 265.5,287.5C 266.822,287.33 267.989,287.663 269,288.5C 269.202,290.256 269.702,291.922 270.5,293.5C 271.715,290.664 273.382,288.164 275.5,286C 275.241,284.739 274.574,283.739 273.5,283C 274.056,282.617 274.389,282.117 274.5,281.5C 289.403,291.054 304.07,290.721 318.5,280.5C 317.945,282.729 316.611,284.395 314.5,285.5C 317.028,286.517 317.028,287.684 314.5,289C 315.554,290.388 315.72,291.888 315,293.5C 313.636,292.742 312.469,293.242 311.5,295C 312.578,295.674 313.245,296.674 313.5,298C 312.765,300.436 311.432,302.436 309.5,304C 310.784,304.684 311.951,304.517 313,303.5C 317.269,306.178 321.269,305.845 325,302.5C 325.671,303.252 326.504,303.586 327.5,303.5C 323.119,307.024 318.119,309.524 312.5,311C 304.945,312.88 297.278,313.713 289.5,313.5C 288.909,312.849 288.243,312.182 287.5,311.5C 290.704,310.796 293.871,310.13 297,309.5C 297.064,306.237 297.898,303.237 299.5,300.5C 296.75,299.246 294.083,298.746 291.5,299C 290.672,298.085 289.672,297.419 288.5,297C 290.271,296.465 290.604,295.631 289.5,294.5C 286.209,295.997 282.876,297.497 279.5,299C 281.994,301.393 281.327,302.56 277.5,302.5C 276.592,304.891 276.426,307.224 277,309.5C 276.075,308.953 275.242,308.287 274.5,307.5C 275.59,306.391 275.59,305.391 274.5,304.5C 273.5,304.833 272.833,305.5 272.5,306.5C 273.123,308.953 273.289,311.286 273,313.5C 272.333,312.167 271.667,312.167 271,313.5C 270.667,312.833 270.333,312.167 270,311.5C 268.577,315.285 268.744,318.785 270.5,322C 269.357,325.022 268.023,325.188 266.5,322.5C 266.709,321.914 267.043,321.414 267.5,321C 265.229,317.889 264.062,314.389 264,310.5C 263.617,311.056 263.117,311.389 262.5,311.5C 260.143,304.302 256.31,297.969 251,292.5C 250.333,289.167 250.333,285.833 251,282.5C 251.278,281.584 251.778,280.918 252.5,280.5 Z"/></g>
<g><path style="opacity:0.998" fill="#fce4fd" d="M 289.5,313.5 C 288.993,322.444 287.826,331.444 286,340.5C 283.563,346.392 280.396,351.726 276.5,356.5C 276.33,355.178 276.663,354.011 277.5,353C 276.451,352.508 275.451,352.674 274.5,353.5C 273.713,352.758 273.047,351.925 272.5,351C 274.514,349.317 276.18,347.317 277.5,345C 276.692,343.294 275.359,342.461 273.5,342.5C 272.985,337.793 272.152,333.126 271,328.5C 269.151,332.148 269.318,335.814 271.5,339.5C 269.81,341.931 269.643,344.265 271,346.5C 271.249,345.376 271.749,344.376 272.5,343.5C 273.754,345.259 273.421,346.759 271.5,348C 272.433,349.608 271.767,350.441 269.5,350.5C 268.328,350.081 267.328,349.415 266.5,348.5C 265.749,349.376 265.249,350.376 265,351.5C 260.561,350.546 260.561,349.212 265,347.5C 265.361,344.475 265.861,341.475 266.5,338.5C 265.776,335.392 264.11,334.059 261.5,334.5C 264.416,326.832 264.749,319.165 262.5,311.5C 263.117,311.389 263.617,311.056 264,310.5C 264.062,314.389 265.229,317.889 267.5,321C 267.043,321.414 266.709,321.914 266.5,322.5C 268.023,325.188 269.357,325.022 270.5,322C 268.744,318.785 268.577,315.285 270,311.5C 270.333,312.167 270.667,312.833 271,313.5C 271.667,312.167 272.333,312.167 273,313.5C 273.289,311.286 273.123,308.953 272.5,306.5C 272.833,305.5 273.5,304.833 274.5,304.5C 275.59,305.391 275.59,306.391 274.5,307.5C 275.242,308.287 276.075,308.953 277,309.5C 276.426,307.224 276.592,304.891 277.5,302.5C 281.327,302.56 281.994,301.393 279.5,299C 282.876,297.497 286.209,295.997 289.5,294.5C 290.604,295.631 290.271,296.465 288.5,297C 289.672,297.419 290.672,298.085 291.5,299C 294.083,298.746 296.75,299.246 299.5,300.5C 297.898,303.237 297.064,306.237 297,309.5C 293.871,310.13 290.704,310.796 287.5,311.5C 288.243,312.182 288.909,312.849 289.5,313.5 Z"/></g>
<g><path style="opacity:0.998" fill="#fde4fd" d="M 194.5,235.5 C 194.022,267.896 194.522,300.229 196,332.5C 203.337,350.088 216.504,357.755 235.5,355.5C 234.909,356.151 234.243,356.818 233.5,357.5C 234.894,358.687 234.727,359.354 233,359.5C 230.285,358.262 227.618,358.262 225,359.5C 222.439,357.317 219.606,356.65 216.5,357.5C 216.264,356.753 215.93,355.92 215.5,355C 213.102,354.626 210.769,354.626 208.5,355C 209.731,353.817 209.731,352.651 208.5,351.5C 206.343,349.588 204.009,347.921 201.5,346.5C 199.616,347.693 199.116,349.359 200,351.5C 201.011,352.337 202.178,352.67 203.5,352.5C 203.351,353.552 203.517,354.552 204,355.5C 206.234,357.7 208.734,359.533 211.5,361C 209.096,361.508 208.429,362.675 209.5,364.5C 214.856,364.95 219.856,366.45 224.5,369C 223.5,369.333 222.5,369.667 221.5,370C 221.833,370.333 222.167,370.667 222.5,371C 236.498,371.096 236.831,372.263 223.5,374.5C 226.366,375.208 229.2,375.875 232,376.5C 232.414,376.043 232.914,375.709 233.5,375.5C 234.167,376.833 234.833,378.167 235.5,379.5C 236.922,378.223 237.922,378.557 238.5,380.5C 205.827,382.801 183.493,368.801 171.5,338.5C 173.054,337.086 174.388,335.419 175.5,333.5C 175.306,331.93 175.306,330.43 175.5,329C 174.898,326.964 173.898,325.13 172.5,323.5C 173.55,321.898 172.883,321.065 170.5,321C 171.167,320.667 171.833,320.333 172.5,320C 169.639,319.46 166.972,318.46 164.5,317C 163.624,314.624 161.958,313.124 159.5,312.5C 161.915,309.872 164.415,309.872 167,312.5C 167.658,310.892 167.158,309.725 165.5,309C 166.308,308.692 166.975,308.192 167.5,307.5C 163.411,306.622 159.411,305.455 155.5,304C 157.713,303.374 159.88,303.541 162,304.5C 163.059,304.37 163.892,303.87 164.5,303C 157.932,302.849 151.599,302.015 145.5,300.5C 153.167,300.5 160.833,300.5 168.5,300.5C 168.5,301.833 168.5,303.167 168.5,304.5C 169.552,304.649 170.552,304.483 171.5,304C 171.057,302.482 171.724,301.315 173.5,300.5C 174.425,301.641 175.259,301.641 176,300.5C 176.483,301.448 176.649,302.448 176.5,303.5C 178.792,303.244 180.959,303.577 183,304.5C 183.557,306.615 184.391,308.615 185.5,310.5C 183.816,311.854 183.316,313.521 184,315.5C 185.333,312.833 186.667,312.833 188,315.5C 188.465,311.389 187.965,307.389 186.5,303.5C 187.5,303.5 188.5,303.5 189.5,303.5C 189.238,302.022 189.571,300.689 190.5,299.5C 190.833,300.167 191.167,300.833 191.5,301.5C 189.795,309.68 190.295,317.68 193,325.5C 193.5,316.506 193.666,307.506 193.5,298.5C 193.169,277.327 193.503,256.327 194.5,235.5 Z"/></g>
<g><path style="opacity:0.991" fill="#fde9fd" d="M 145.5,300.5 C 151.599,302.015 157.932,302.849 164.5,303C 163.892,303.87 163.059,304.37 162,304.5C 159.88,303.541 157.713,303.374 155.5,304C 159.411,305.455 163.411,306.622 167.5,307.5C 166.975,308.192 166.308,308.692 165.5,309C 167.158,309.725 167.658,310.892 167,312.5C 164.415,309.872 161.915,309.872 159.5,312.5C 161.958,313.124 163.624,314.624 164.5,317C 166.972,318.46 169.639,319.46 172.5,320C 171.833,320.333 171.167,320.667 170.5,321C 172.883,321.065 173.55,321.898 172.5,323.5C 173.898,325.13 174.898,326.964 175.5,329C 175.306,330.43 175.306,331.93 175.5,333.5C 174.388,335.419 173.054,337.086 171.5,338.5C 170.956,334.009 169.622,329.842 167.5,326C 135.168,325.5 102.835,325.333 70.5,325.5C 72.8921,323.946 75.5588,322.613 78.5,321.5C 83.4889,322.781 88.6556,323.448 94,323.5C 102.565,323.579 111.065,322.912 119.5,321.5C 119,321.167 118.5,320.833 118,320.5C 115.253,320.284 112.42,320.618 109.5,321.5C 107.366,321.485 105.366,320.985 103.5,320C 105.937,318.625 108.603,318.125 111.5,318.5C 111.5,317.167 111.5,315.833 111.5,314.5C 109.058,314.646 108.391,313.813 109.5,312C 111.5,311.667 113.5,311.333 115.5,311C 109.039,310.44 109.039,309.44 115.5,308C 114.167,307.667 112.833,307.333 111.5,307C 118.815,307.047 126.148,306.214 133.5,304.5C 136.811,306.178 138.811,305.178 139.5,301.5C 141.265,300.539 143.265,300.205 145.5,300.5 Z"/></g>
<g><path style="opacity:1" fill="#fce8fc" d="M 276.5,356.5 C 267.159,369.518 254.492,377.518 238.5,380.5C 237.922,378.557 236.922,378.223 235.5,379.5C 234.833,378.167 234.167,376.833 233.5,375.5C 232.914,375.709 232.414,376.043 232,376.5C 229.2,375.875 226.366,375.208 223.5,374.5C 236.831,372.263 236.498,371.096 222.5,371C 222.167,370.667 221.833,370.333 221.5,370C 222.5,369.667 223.5,369.333 224.5,369C 219.856,366.45 214.856,364.95 209.5,364.5C 208.429,362.675 209.096,361.508 211.5,361C 208.734,359.533 206.234,357.7 204,355.5C 203.517,354.552 203.351,353.552 203.5,352.5C 202.178,352.67 201.011,352.337 200,351.5C 199.116,349.359 199.616,347.693 201.5,346.5C 204.009,347.921 206.343,349.588 208.5,351.5C 209.731,352.651 209.731,353.817 208.5,355C 210.769,354.626 213.102,354.626 215.5,355C 215.93,355.92 216.264,356.753 216.5,357.5C 219.606,356.65 222.439,357.317 225,359.5C 227.618,358.262 230.285,358.262 233,359.5C 234.727,359.354 234.894,358.687 233.5,357.5C 234.243,356.818 234.909,356.151 235.5,355.5C 247.194,352.13 255.86,345.13 261.5,334.5C 264.11,334.059 265.776,335.392 266.5,338.5C 265.861,341.475 265.361,344.475 265,347.5C 260.561,349.212 260.561,350.546 265,351.5C 265.249,350.376 265.749,349.376 266.5,348.5C 267.328,349.415 268.328,350.081 269.5,350.5C 271.767,350.441 272.433,349.608 271.5,348C 273.421,346.759 273.754,345.259 272.5,343.5C 271.749,344.376 271.249,345.376 271,346.5C 269.643,344.265 269.81,341.931 271.5,339.5C 269.318,335.814 269.151,332.148 271,328.5C 272.152,333.126 272.985,337.793 273.5,342.5C 275.359,342.461 276.692,343.294 277.5,345C 276.18,347.317 274.514,349.317 272.5,351C 273.047,351.925 273.713,352.758 274.5,353.5C 275.451,352.674 276.451,352.508 277.5,353C 276.663,354.011 276.33,355.178 276.5,356.5 Z"/></g>
</svg>
