<?xml version="1.0" encoding="UTF-8"?>
<!DOCTYPE svg PUBLIC "-//W3C//DTD SVG 1.1//EN" "http://www.w3.org/Graphics/SVG/1.1/DTD/svg11.dtd">
<svg xmlns="http://www.w3.org/2000/svg" version="1.1" width="534px" height="468px" style="shape-rendering:geometricPrecision; text-rendering:geometricPrecision; image-rendering:optimizeQuality; fill-rule:evenodd; clip-rule:evenodd" xmlns:xlink="http://www.w3.org/1999/xlink">
<g><path style="opacity:0.997" fill="#f0f2f6" d="M 326.5,174.5 C 329.167,174.5 331.833,174.5 334.5,174.5C 334.5,186.167 334.5,197.833 334.5,209.5C 333.517,213.298 333.183,217.298 333.5,221.5C 331.167,221.5 328.833,221.5 326.5,221.5C 326.5,205.833 326.5,190.167 326.5,174.5 Z"/></g>
<g><path style="opacity:1" fill="#cacdd9" d="M 241.5,195.5 C 242.919,194.549 244.585,194.216 246.5,194.5C 246.833,192.5 247.167,190.5 247.5,188.5C 243.217,187.989 239.217,188.656 235.5,190.5C 233.119,188.608 230.453,188.108 227.5,189C 228.902,191.773 230.569,194.273 232.5,196.5C 232.5,201.833 232.5,207.167 232.5,212.5C 231.511,207.025 231.178,201.358 231.5,195.5C 229.5,195.5 227.5,195.5 225.5,195.5C 225.5,192.833 225.5,190.167 225.5,187.5C 227.5,187.5 229.5,187.5 231.5,187.5C 231.5,183.167 231.5,178.833 231.5,174.5C 234.5,174.5 237.5,174.5 240.5,174.5C 240.5,178.833 240.5,183.167 240.5,187.5C 247.48,185.953 250.48,188.62 249.5,195.5C 246.833,195.5 244.167,195.5 241.5,195.5 Z"/></g>
<g><path style="opacity:0.922" fill="#a38980" d="M 280.5,217.5 C 279.234,216.91 277.901,216.41 276.5,216C 278.782,213.603 280.116,210.769 280.5,207.5C 280.742,200.64 277.908,195.64 272,192.5C 271.167,192.667 270.333,192.833 269.5,193C 270.69,195.733 272.524,197.899 275,199.5C 275.315,202.372 275.815,205.205 276.5,208C 276.361,209.301 275.695,210.134 274.5,210.5C 274.737,206.727 274.237,203.06 273,199.5C 272.586,199.043 272.086,198.709 271.5,198.5C 270.912,200.911 269.745,202.911 268,204.5C 267.536,203.906 267.369,203.239 267.5,202.5C 269.933,201.452 269.933,200.786 267.5,200.5C 269.075,198.886 269.741,196.886 269.5,194.5C 266.763,194.401 264.096,194.735 261.5,195.5C 261.5,194.167 260.833,193.5 259.5,193.5C 259.577,192.25 260.244,191.417 261.5,191C 266.258,190.788 270.925,190.622 275.5,190.5C 271.579,188.814 267.413,187.814 263,187.5C 260.941,188.618 258.774,189.285 256.5,189.5C 266.563,183.215 275.396,184.882 283,194.5C 286.945,202.829 286.112,210.495 280.5,217.5 Z"/></g>
<g><path style="opacity:0.993" fill="#fafbfd" d="M 241.5,195.5 C 241.167,195.5 240.833,195.5 240.5,195.5C 239.834,200.017 239.167,204.683 238.5,209.5C 237.012,207.851 236.012,205.851 235.5,203.5C 234.719,204.729 234.219,206.062 234,207.5C 233.161,204.86 233.661,202.527 235.5,200.5C 235.185,198.517 234.185,197.184 232.5,196.5C 230.569,194.273 228.902,191.773 227.5,189C 230.453,188.108 233.119,188.608 235.5,190.5C 239.217,188.656 243.217,187.989 247.5,188.5C 247.167,190.5 246.833,192.5 246.5,194.5C 244.585,194.216 242.919,194.549 241.5,195.5 Z"/></g>
<g><path style="opacity:0.994" fill="#f2f5f8" d="M 398.5,197.5 C 397.153,196.972 395.819,196.805 394.5,197C 394.833,197.333 395.167,197.667 395.5,198C 393.513,199.319 392.346,201.152 392,203.5C 391.346,202.304 390.846,202.304 390.5,203.5C 391.025,204.192 391.692,204.692 392.5,205C 391.128,205.402 389.795,205.902 388.5,206.5C 387.643,205.264 386.977,203.931 386.5,202.5C 387.456,200.925 388.123,199.258 388.5,197.5C 388.611,196.883 388.944,196.383 389.5,196C 384.511,195.501 379.511,195.334 374.5,195.5C 374.5,192.833 374.5,190.167 374.5,187.5C 383.5,187.5 392.5,187.5 401.5,187.5C 401.664,190.187 401.497,192.854 401,195.5C 400.292,196.381 399.458,197.047 398.5,197.5 Z"/></g>
<g><path style="opacity:0.991" fill="#fafbfc" d="M 145.5,188.5 C 147.973,188.947 148.14,189.947 146,191.5C 145.667,191.167 145.333,190.833 145,190.5C 144.544,191.744 145.044,192.577 146.5,193C 142.97,193.672 141.637,195.838 142.5,199.5C 141.833,199.5 141.5,199.833 141.5,200.5C 140.761,200.369 140.094,200.536 139.5,201C 140.097,202.062 140.43,203.228 140.5,204.5C 138.286,206.99 137.119,209.99 137,213.5C 136.692,212.692 136.192,212.025 135.5,211.5C 134.335,203.855 134.169,196.188 135,188.5C 137.267,189.289 139.6,189.956 142,190.5C 143.459,190.192 144.626,189.525 145.5,188.5 Z"/></g>
<g><path style="opacity:0.999" fill="#e9ecf2" d="M 223.5,195.5 C 223.251,197.936 222.251,199.936 220.5,201.5C 218.461,200.723 217.795,199.557 218.5,198C 217.874,197.25 217.374,196.416 217,195.5C 216.107,196.711 215.274,196.711 214.5,195.5C 215.506,194.604 215.506,193.938 214.5,193.5C 211.689,194.08 209.023,194.746 206.5,195.5C 197.048,200.317 196.048,206.65 203.5,214.5C 201.5,213.833 199.5,213.167 197.5,212.5C 197.599,209.327 196.932,206.327 195.5,203.5C 195.719,202.062 196.219,200.729 197,199.5C 197.667,200.833 198.333,200.833 199,199.5C 201.295,190.826 199.628,190.159 194,197.5C 193.505,195.527 193.338,193.527 193.5,191.5C 194.833,191.5 196.167,191.5 197.5,191.5C 197.5,190.5 197.5,189.5 197.5,188.5C 199.034,189.203 200.701,189.036 202.5,188C 211.495,185.494 218.495,187.994 223.5,195.5 Z"/></g>
<g><path style="opacity:0.971" fill="#f5f8f9" d="M 314.5,189.5 C 313.766,190.708 313.433,192.041 313.5,193.5C 310.518,193.037 307.518,192.704 304.5,192.5C 304.5,193.5 304.5,194.5 304.5,195.5C 303.391,195.557 302.391,195.89 301.5,196.5C 301.013,195.527 300.513,194.527 300,193.5C 299.097,194.701 297.931,195.535 296.5,196C 295.359,196.741 295.359,197.575 296.5,198.5C 295.5,199.333 294.5,200.167 293.5,201C 294.34,202.666 293.84,202.833 292,201.5C 291.517,202.448 291.351,203.448 291.5,204.5C 290.5,204.5 289.5,204.5 288.5,204.5C 288.351,207.607 288.851,210.607 290,213.5C 290.862,211.913 291.529,210.246 292,208.5C 292.483,212.545 291.483,216.211 289,219.5C 288.667,224.167 288.333,228.833 288,233.5C 287.83,223.658 287.33,213.991 286.5,204.5C 286.5,201.5 286.5,198.5 286.5,195.5C 287.468,193.393 287.802,191.059 287.5,188.5C 290.167,188.5 292.833,188.5 295.5,188.5C 295.435,188.938 295.601,189.272 296,189.5C 302.284,186.904 308.45,186.904 314.5,189.5 Z"/></g>
<g><path style="opacity:0.996" fill="#fbfcfb" d="M 415.5,222.5 C 414.194,221.032 412.694,219.699 411,218.5C 410.086,219.654 409.253,219.487 408.5,218C 411.751,214.925 415.251,214.758 419,217.5C 423.128,217.35 426.628,215.85 429.5,213C 428.663,211.989 428.33,210.822 428.5,209.5C 429.117,209.389 429.617,209.056 430,208.5C 430.667,205.167 430.667,201.833 430,198.5C 428.493,197.495 427.327,196.162 426.5,194.5C 423.933,194.222 421.267,194.056 418.5,194C 418,193.5 417.5,193 417,192.5C 414.752,193.664 412.586,194.997 410.5,196.5C 409.531,199.302 407.698,201.302 405,202.5C 403.877,198.849 405.044,196.349 408.5,195C 407.663,193.989 407.33,192.822 407.5,191.5C 411.305,190.733 415.139,190.067 419,189.5C 424.103,189.262 429.103,189.595 434,190.5C 434.339,193.036 434.839,195.536 435.5,198C 434.665,204.371 434.332,210.705 434.5,217C 432.431,219.547 429.931,220.047 427,218.5C 424.824,218.988 422.991,219.988 421.5,221.5C 419.604,222.466 417.604,222.799 415.5,222.5 Z"/></g>
<g><path style="opacity:0.986" fill="#e7ebf2" d="M 126.5,192.5 C 125.542,192.953 124.708,193.619 124,194.5C 122.891,192.185 121.057,190.685 118.5,190C 118.833,189.667 119.167,189.333 119.5,189C 115.309,188.078 111.309,188.412 107.5,190C 108.833,190.667 108.833,191.333 107.5,192C 110.429,192.777 113.263,192.61 116,191.5C 119.001,193.346 121.835,195.346 124.5,197.5C 123.873,198.417 123.539,199.417 123.5,200.5C 116.605,193.494 110.271,193.827 104.5,201.5C 103.615,205.07 102.615,208.737 101.5,212.5C 99.5378,213.854 98.5378,213.187 98.5,210.5C 100.139,207.119 99.8058,203.952 97.5,201C 97.6583,198.851 98.4916,197.017 100,195.5C 100.333,195.833 100.667,196.167 101,196.5C 102.264,194.84 102.764,193.173 102.5,191.5C 105.47,188.124 109.304,186.79 114,187.5C 119.191,186.853 123.358,188.519 126.5,192.5 Z"/></g>
<g><path style="opacity:1" fill="#e4e9ee" d="M 145.5,188.5 C 150.65,187.349 155.984,187.183 161.5,188C 163.016,189.897 163.683,192.064 163.5,194.5C 164.061,196.908 164.561,199.241 165,201.5C 162.088,200.969 159.254,199.636 156.5,197.5C 155.069,196.22 154.402,194.553 154.5,192.5C 154.5,191.833 154.167,191.5 153.5,191.5C 153.167,190.167 152.833,190.167 152.5,191.5C 151.566,192.568 151.232,193.901 151.5,195.5C 147.981,195.259 145.315,196.593 143.5,199.5C 143.167,199.5 142.833,199.5 142.5,199.5C 141.637,195.838 142.97,193.672 146.5,193C 145.044,192.577 144.544,191.744 145,190.5C 145.333,190.833 145.667,191.167 146,191.5C 148.14,189.947 147.973,188.947 145.5,188.5 Z"/></g>
<g><path style="opacity:0.956" fill="#e5ecf3" d="M 429.5,188.5 C 431.833,188.5 434.167,188.5 436.5,188.5C 436.5,199.5 436.5,210.5 436.5,221.5C 434.167,221.5 431.833,221.5 429.5,221.5C 428.883,221.389 428.383,221.056 428,220.5C 424.057,223.276 419.89,223.943 415.5,222.5C 417.604,222.799 419.604,222.466 421.5,221.5C 422.991,219.988 424.824,218.988 427,218.5C 429.931,220.047 432.431,219.547 434.5,217C 434.332,210.705 434.665,204.371 435.5,198C 434.839,195.536 434.339,193.036 434,190.5C 429.103,189.595 424.103,189.262 419,189.5C 415.139,190.067 411.305,190.733 407.5,191.5C 409.09,189.766 411.09,188.6 413.5,188C 418.854,187.471 424.187,187.638 429.5,188.5 Z"/></g>
<g><path style="opacity:0.039" fill="#6a799b" d="M 295.5,188.5 C 292.833,188.5 290.167,188.5 287.5,188.5C 287.802,191.059 287.468,193.393 286.5,195.5C 286.5,192.833 286.5,190.167 286.5,187.5C 289.713,187.19 292.713,187.523 295.5,188.5 Z"/></g>
<g><path style="opacity:1" fill="#edf0f4" d="M 359.5,188.5 C 361.167,188.5 362.833,188.5 364.5,188.5C 366.833,188.5 369.167,188.5 371.5,188.5C 371.5,190.5 371.5,192.5 371.5,194.5C 370.883,194.389 370.383,194.056 370,193.5C 368.901,196.039 367.234,196.705 365,195.5C 364.862,197.432 365.362,199.266 366.5,201C 365.695,202.113 365.028,203.279 364.5,204.5C 363.302,200.296 360.635,197.296 356.5,195.5C 353.455,191.383 350.622,191.717 348,196.5C 345.114,193.632 345.281,191.298 348.5,189.5C 352.107,188.511 355.774,188.177 359.5,188.5 Z"/></g>
<g><path style="opacity:0.024" fill="#3b3373" d="M 152.5,191.5 C 152.833,191.5 153.167,191.5 153.5,191.5C 154.167,191.5 154.5,191.833 154.5,192.5C 153.1,193.1 152.1,194.1 151.5,195.5C 151.232,193.901 151.566,192.568 152.5,191.5 Z"/></g>
<g><path style="opacity:1" fill="#edf0f5" d="M 314.5,189.5 C 319.751,192.208 322.751,196.542 323.5,202.5C 323.72,205.4 323.054,208.067 321.5,210.5C 316.963,212.359 315.963,211.526 318.5,208C 317.233,206.204 317.233,204.371 318.5,202.5C 317.147,201.476 316.48,200.143 316.5,198.5C 315.167,198.5 313.833,198.5 312.5,198.5C 310.497,196.018 307.831,195.018 304.5,195.5C 304.5,194.5 304.5,193.5 304.5,192.5C 307.518,192.704 310.518,193.037 313.5,193.5C 313.433,192.041 313.766,190.708 314.5,189.5 Z"/></g>
<g><path style="opacity:1" fill="#f0f3f5" d="M 126.5,192.5 C 129.182,194.53 130.849,197.197 131.5,200.5C 128.833,200.5 126.167,200.5 123.5,200.5C 123.539,199.417 123.873,198.417 124.5,197.5C 121.835,195.346 119.001,193.346 116,191.5C 113.263,192.61 110.429,192.777 107.5,192C 108.833,191.333 108.833,190.667 107.5,190C 111.309,188.412 115.309,188.078 119.5,189C 119.167,189.333 118.833,189.667 118.5,190C 121.057,190.685 122.891,192.185 124,194.5C 124.708,193.619 125.542,192.953 126.5,192.5 Z"/></g>
<g><path style="opacity:0.996" fill="#aa8f78" d="M 259.5,193.5 C 255.109,197.895 253.442,203.228 254.5,209.5C 254.785,211.288 254.452,212.955 253.5,214.5C 252.358,213.174 251.024,212.174 249.5,211.5C 246.633,202.435 248.967,195.102 256.5,189.5C 258.774,189.285 260.941,188.618 263,187.5C 267.413,187.814 271.579,188.814 275.5,190.5C 270.925,190.622 266.258,190.788 261.5,191C 260.244,191.417 259.577,192.25 259.5,193.5 Z"/></g>
<g><path style="opacity:0.287" fill="#96a0bc" d="M 429.5,188.5 C 431.948,187.527 434.615,187.194 437.5,187.5C 437.5,199.167 437.5,210.833 437.5,222.5C 434.615,222.806 431.948,222.473 429.5,221.5C 431.833,221.5 434.167,221.5 436.5,221.5C 436.5,210.5 436.5,199.5 436.5,188.5C 434.167,188.5 431.833,188.5 429.5,188.5 Z"/></g>
<g><path style="opacity:0.999" fill="#f1f3f7" d="M 179.5,188.5 C 183.012,187.945 186.012,188.612 188.5,190.5C 187.579,194.299 185.912,197.632 183.5,200.5C 180.07,201.896 179.07,204.23 180.5,207.5C 179.5,207.5 178.5,207.5 177.5,207.5C 177.604,211.027 176.437,214.027 174,216.5C 173.316,214.521 173.816,212.854 175.5,211.5C 172.922,211.323 172.922,210.157 175.5,208C 175.481,206.479 175.148,204.979 174.5,203.5C 176.311,198.608 177.978,193.608 179.5,188.5 Z"/></g>
<g><path style="opacity:0.964" fill="#fafcfc" d="M 197.5,188.5 C 197.5,189.5 197.5,190.5 197.5,191.5C 196.167,191.5 194.833,191.5 193.5,191.5C 193.338,193.527 193.505,195.527 194,197.5C 199.628,190.159 201.295,190.826 199,199.5C 198.333,200.833 197.667,200.833 197,199.5C 196.219,200.729 195.719,202.062 195.5,203.5C 196.932,206.327 197.599,209.327 197.5,212.5C 199.5,213.167 201.5,213.833 203.5,214.5C 203.833,214.5 204.167,214.5 204.5,214.5C 204.5,214.833 204.5,215.167 204.5,215.5C 203.427,216.658 202.261,216.658 201,215.5C 199.902,216.384 199.402,217.384 199.5,218.5C 198.833,218.167 198.167,217.833 197.5,217.5C 196.646,218.948 195.646,220.281 194.5,221.5C 196.161,225.442 196.494,229.442 195.5,233.5C 194.252,232.96 193.085,232.293 192,231.5C 191.201,226.913 191.368,222.413 192.5,218C 191.934,217.005 191.267,216.172 190.5,215.5C 190.5,206.5 190.5,197.5 190.5,188.5C 192.833,188.5 195.167,188.5 197.5,188.5 Z"/></g>
<g><path style="opacity:0.986" fill="#dbe0e9" d="M 407.5,191.5 C 407.33,192.822 407.663,193.989 408.5,195C 405.044,196.349 403.877,198.849 405,202.5C 407.698,201.302 409.531,199.302 410.5,196.5C 412.586,194.997 414.752,193.664 417,192.5C 417.5,193 418,193.5 418.5,194C 421.267,194.056 423.933,194.222 426.5,194.5C 427.327,196.162 428.493,197.495 430,198.5C 430.667,201.833 430.667,205.167 430,208.5C 429.617,209.056 429.117,209.389 428.5,209.5C 428.33,210.822 428.663,211.989 429.5,213C 426.628,215.85 423.128,217.35 419,217.5C 415.251,214.758 411.751,214.925 408.5,218C 409.253,219.487 410.086,219.654 411,218.5C 412.694,219.699 414.194,221.032 415.5,222.5C 403.532,218.913 399.032,210.913 402,198.5C 402.907,195.428 404.74,193.095 407.5,191.5 Z M 428.5,209.5 C 424.679,214.742 419.679,215.908 413.5,213C 408.071,206.353 409.071,200.686 416.5,196C 422.467,194.621 426.633,196.788 429,202.5C 429.556,204.885 429.39,207.218 428.5,209.5 Z"/></g>
<g><path style="opacity:0.984" fill="#e0e3ea" d="M 301.5,196.5 C 296.319,198.877 294.486,202.877 296,208.5C 298.91,213.863 303.41,215.863 309.5,214.5C 311.861,214.326 314.194,213.993 316.5,213.5C 316.649,214.552 316.483,215.552 316,216.5C 313.243,217.945 311.076,219.945 309.5,222.5C 304.827,224.017 300.327,223.351 296,220.5C 295.501,225.489 295.334,230.489 295.5,235.5C 292.5,235.5 289.5,235.5 286.5,235.5C 286.5,225.167 286.5,214.833 286.5,204.5C 287.33,213.991 287.83,223.658 288,233.5C 288.333,228.833 288.667,224.167 289,219.5C 291.483,216.211 292.483,212.545 292,208.5C 291.529,210.246 290.862,211.913 290,213.5C 288.851,210.607 288.351,207.607 288.5,204.5C 289.5,204.5 290.5,204.5 291.5,204.5C 291.351,203.448 291.517,202.448 292,201.5C 293.84,202.833 294.34,202.666 293.5,201C 294.5,200.167 295.5,199.333 296.5,198.5C 295.359,197.575 295.359,196.741 296.5,196C 297.931,195.535 299.097,194.701 300,193.5C 300.513,194.527 301.013,195.527 301.5,196.5 Z"/></g>
<g><path style="opacity:0.991" fill="#d7d9e3" d="M 223.5,195.5 C 227.559,202.448 227.393,209.448 223,216.5C 221.549,218.464 219.716,219.797 217.5,220.5C 216.697,219.577 216.53,218.577 217,217.5C 218.255,216.789 219.421,215.956 220.5,215C 218.633,214.289 217.133,214.789 216,216.5C 212.27,215.54 208.437,215.207 204.5,215.5C 204.5,215.167 204.5,214.833 204.5,214.5C 214.821,215.345 218.987,210.679 217,200.5C 214.487,196.827 210.987,195.161 206.5,195.5C 209.023,194.746 211.689,194.08 214.5,193.5C 215.506,193.938 215.506,194.604 214.5,195.5C 215.274,196.711 216.107,196.711 217,195.5C 217.374,196.416 217.874,197.25 218.5,198C 217.795,199.557 218.461,200.723 220.5,201.5C 222.251,199.936 223.251,197.936 223.5,195.5 Z"/></g>
<g><path style="opacity:0.992" fill="#e0e3ed" d="M 240.5,195.5 C 240.334,200.511 240.501,205.511 241,210.5C 242.026,213.693 244.192,215.026 247.5,214.5C 247.5,217.167 247.5,219.833 247.5,222.5C 239.738,223.04 234.738,219.707 232.5,212.5C 232.5,207.167 232.5,201.833 232.5,196.5C 234.185,197.184 235.185,198.517 235.5,200.5C 233.661,202.527 233.161,204.86 234,207.5C 234.219,206.062 234.719,204.729 235.5,203.5C 236.012,205.851 237.012,207.851 238.5,209.5C 239.167,204.683 239.834,200.017 240.5,195.5 Z"/></g>
<g><path style="opacity:0.094" fill="#7780a4" d="M 142.5,199.5 C 142.833,199.5 143.167,199.5 143.5,199.5C 142.534,207.08 142.201,214.747 142.5,222.5C 139.287,222.81 136.287,222.477 133.5,221.5C 136.167,221.5 138.833,221.5 141.5,221.5C 141.5,214.5 141.5,207.5 141.5,200.5C 141.5,199.833 141.833,199.5 142.5,199.5 Z"/></g>
<g><path style="opacity:0.086" fill="#79849e" d="M 179.5,188.5 C 185.5,187.167 191.5,187.167 197.5,188.5C 195.167,188.5 192.833,188.5 190.5,188.5C 190.5,197.5 190.5,206.5 190.5,215.5C 190.5,222.167 190.5,228.833 190.5,235.5C 189.833,220.5 189.167,205.5 188.5,190.5C 186.012,188.612 183.012,187.945 179.5,188.5 Z"/></g>
<g><path style="opacity:0.999" fill="#e3e6ee" d="M 359.5,188.5 C 355.774,188.177 352.107,188.511 348.5,189.5C 345.281,191.298 345.114,193.632 348,196.5C 350.622,191.717 353.455,191.383 356.5,195.5C 346.575,196.019 343.075,201.019 346,210.5C 347.913,213.28 350.413,214.947 353.5,215.5C 351.856,215.286 350.356,215.62 349,216.5C 344.454,213.185 342.954,214.518 344.5,220.5C 336.83,215.038 334.33,207.705 337,198.5C 341.764,188.696 349.264,185.363 359.5,188.5 Z"/></g>
<g><path style="opacity:0.965" fill="#d6d9e7" d="M 102.5,191.5 C 102.764,193.173 102.264,194.84 101,196.5C 100.667,196.167 100.333,195.833 100,195.5C 98.4916,197.017 97.6583,198.851 97.5,201C 99.8058,203.952 100.139,207.119 98.5,210.5C 98.5378,213.187 99.5378,213.854 101.5,212.5C 102.615,208.737 103.615,205.07 104.5,201.5C 103.678,206.846 105.345,211.18 109.5,214.5C 107.076,214.192 104.743,214.526 102.5,215.5C 103.95,216.85 104.617,218.516 104.5,220.5C 98.7383,217.333 95.7383,212.333 95.5,205.5C 95.7399,200.688 97.2399,196.355 100,192.5C 100.671,191.748 101.504,191.414 102.5,191.5 Z"/></g>
<g><path style="opacity:0.02" fill="#383961" d="M 122.5,209.5 C 125.287,208.523 128.287,208.19 131.5,208.5C 131.768,210.099 131.434,211.432 130.5,212.5C 130.5,211.5 130.5,210.5 130.5,209.5C 127.833,209.5 125.167,209.5 122.5,209.5 Z"/></g>
<g><path style="opacity:0.2" fill="#a4aec6" d="M 326.5,174.5 C 326.5,190.167 326.5,205.833 326.5,221.5C 328.833,221.5 331.167,221.5 333.5,221.5C 333.183,217.298 333.517,213.298 334.5,209.5C 334.5,213.833 334.5,218.167 334.5,222.5C 331.5,222.5 328.5,222.5 325.5,222.5C 325.17,206.325 325.504,190.325 326.5,174.5 Z"/></g>
<g><path style="opacity:0.998" fill="#e2e6ec" d="M 163.5,194.5 C 166.225,199.622 168.725,204.955 171,210.5C 171.144,207.558 172.311,205.224 174.5,203.5C 175.148,204.979 175.481,206.479 175.5,208C 172.922,210.157 172.922,211.323 175.5,211.5C 173.816,212.854 173.316,214.521 174,216.5C 176.437,214.027 177.604,211.027 177.5,207.5C 178.5,207.5 179.5,207.5 180.5,207.5C 179.07,204.23 180.07,201.896 183.5,200.5C 179.584,211.903 175.251,223.236 170.5,234.5C 167.572,235.484 164.572,235.817 161.5,235.5C 162.059,230.931 163.392,226.598 165.5,222.5C 162.178,214.208 159.178,205.875 156.5,197.5C 159.254,199.636 162.088,200.969 165,201.5C 164.561,199.241 164.061,196.908 163.5,194.5 Z"/></g>
<g><path style="opacity:0.975" fill="#bd9373" d="M 267.5,200.5 C 266.167,201.167 266.167,201.833 267.5,202.5C 267.369,203.239 267.536,203.906 268,204.5C 269.745,202.911 270.912,200.911 271.5,198.5C 272.086,198.709 272.586,199.043 273,199.5C 274.237,203.06 274.737,206.727 274.5,210.5C 274.5,211.167 274.167,211.5 273.5,211.5C 271.508,211.328 269.842,211.995 268.5,213.5C 266.781,210.952 265.448,211.285 264.5,214.5C 263.614,213.675 263.281,212.675 263.5,211.5C 262.325,211.719 261.325,211.386 260.5,210.5C 261.28,205.441 261.613,200.441 261.5,195.5C 264.096,194.735 266.763,194.401 269.5,194.5C 269.741,196.886 269.075,198.886 267.5,200.5 Z M 266.5,206.5 C 267.675,206.281 268.675,206.614 269.5,207.5C 267.948,208.798 266.948,208.465 266.5,206.5 Z M 267.5,200.5 C 269.933,200.786 269.933,201.452 267.5,202.5C 266.167,201.833 266.167,201.167 267.5,200.5 Z"/></g>
<g><path style="opacity:1" fill="#e4e7ee" d="M 398.5,197.5 C 395.275,203.072 391.608,208.406 387.5,213.5C 392.12,214.493 396.786,214.827 401.5,214.5C 401.5,217.167 401.5,219.833 401.5,222.5C 392.249,222.818 383.083,222.485 374,221.5C 373.333,219.5 373.333,217.5 374,215.5C 378.697,209.312 383.531,203.312 388.5,197.5C 388.123,199.258 387.456,200.925 386.5,202.5C 386.977,203.931 387.643,205.264 388.5,206.5C 389.795,205.902 391.128,205.402 392.5,205C 391.692,204.692 391.025,204.192 390.5,203.5C 390.846,202.304 391.346,202.304 392,203.5C 392.346,201.152 393.513,199.319 395.5,198C 395.167,197.667 394.833,197.333 394.5,197C 395.819,196.805 397.153,196.972 398.5,197.5 Z"/></g>
<g><path style="opacity:0.993" fill="#d7dbe3" d="M 312.5,198.5 C 313.833,198.5 315.167,198.5 316.5,198.5C 316.48,200.143 317.147,201.476 318.5,202.5C 317.233,204.371 317.233,206.204 318.5,208C 315.963,211.526 316.963,212.359 321.5,210.5C 323.054,208.067 323.72,205.4 323.5,202.5C 324.836,213.112 320.17,219.779 309.5,222.5C 311.076,219.945 313.243,217.945 316,216.5C 316.483,215.552 316.649,214.552 316.5,213.5C 314.194,213.993 311.861,214.326 309.5,214.5C 315.598,210.111 316.598,204.778 312.5,198.5 Z"/></g>
<g><path style="opacity:1" fill="#f1f4f6" d="M 371.5,194.5 C 371.5,203.5 371.5,212.5 371.5,221.5C 368.721,221.721 366.054,221.388 363.5,220.5C 357.125,224.489 350.792,224.489 344.5,220.5C 342.954,214.518 344.454,213.185 349,216.5C 350.356,215.62 351.856,215.286 353.5,215.5C 360.167,214.833 363.833,211.167 364.5,204.5C 365.028,203.279 365.695,202.113 366.5,201C 365.362,199.266 364.862,197.432 365,195.5C 367.234,196.705 368.901,196.039 370,193.5C 370.383,194.056 370.883,194.389 371.5,194.5 Z"/></g>
<g><path style="opacity:0.99" fill="#e3e7ed" d="M 122.5,209.5 C 125.167,209.5 127.833,209.5 130.5,209.5C 130.5,210.5 130.5,211.5 130.5,212.5C 128.27,218.46 123.937,221.793 117.5,222.5C 117.75,221.078 118.583,220.078 120,219.5C 120.667,218.5 120.667,217.5 120,216.5C 119.667,216.833 119.333,217.167 119,217.5C 116.622,216.033 114.122,215.033 111.5,214.5C 116.34,215.244 120.007,213.578 122.5,209.5 Z"/></g>
<g><path style="opacity:0.995" fill="#eff2f4" d="M 109.5,214.5 C 110.167,214.5 110.833,214.5 111.5,214.5C 114.122,215.033 116.622,216.033 119,217.5C 119.333,217.167 119.667,216.833 120,216.5C 120.667,217.5 120.667,218.5 120,219.5C 118.583,220.078 117.75,221.078 117.5,222.5C 112.914,223.892 108.58,223.225 104.5,220.5C 104.617,218.516 103.95,216.85 102.5,215.5C 104.743,214.526 107.076,214.192 109.5,214.5 Z"/></g>
<g><path style="opacity:0.988" fill="#eaedf3" d="M 217.5,220.5 C 211.612,224.475 205.612,224.475 199.5,220.5C 198.506,225.456 198.173,230.456 198.5,235.5C 195.833,235.5 193.167,235.5 190.5,235.5C 190.5,228.833 190.5,222.167 190.5,215.5C 191.267,216.172 191.934,217.005 192.5,218C 191.368,222.413 191.201,226.913 192,231.5C 193.085,232.293 194.252,232.96 195.5,233.5C 196.494,229.442 196.161,225.442 194.5,221.5C 195.646,220.281 196.646,218.948 197.5,217.5C 198.167,217.833 198.833,218.167 199.5,218.5C 199.402,217.384 199.902,216.384 201,215.5C 202.261,216.658 203.427,216.658 204.5,215.5C 208.437,215.207 212.27,215.54 216,216.5C 217.133,214.789 218.633,214.289 220.5,215C 219.421,215.956 218.255,216.789 217,217.5C 216.53,218.577 216.697,219.577 217.5,220.5 Z"/></g>
<g><path style="opacity:0.192" fill="#686f93" d="M 364.5,188.5 C 366.948,187.527 369.615,187.194 372.5,187.5C 372.5,199.167 372.5,210.833 372.5,222.5C 368.988,223.055 365.988,222.388 363.5,220.5C 366.054,221.388 368.721,221.721 371.5,221.5C 371.5,212.5 371.5,203.5 371.5,194.5C 371.5,192.5 371.5,190.5 371.5,188.5C 369.167,188.5 366.833,188.5 364.5,188.5 Z"/></g>
<g><path style="opacity:0.11" fill="#8e7870" d="M 261.5,195.5 C 261.613,200.441 261.28,205.441 260.5,210.5C 261.325,211.386 262.325,211.719 263.5,211.5C 263.281,212.675 263.614,213.675 264.5,214.5C 265.448,211.285 266.781,210.952 268.5,213.5C 269.842,211.995 271.508,211.328 273.5,211.5C 272.791,212.404 271.791,212.737 270.5,212.5C 270.878,218.371 273.045,218.704 277,213.5C 277.941,211.273 279.108,209.273 280.5,207.5C 280.116,210.769 278.782,213.603 276.5,216C 277.901,216.41 279.234,216.91 280.5,217.5C 278.599,219.796 276.266,221.629 273.5,223C 269.167,223.667 264.833,223.667 260.5,223C 259.058,222.623 258.058,221.79 257.5,220.5C 253.458,218.788 250.792,215.788 249.5,211.5C 251.024,212.174 252.358,213.174 253.5,214.5C 254.452,212.955 254.785,211.288 254.5,209.5C 256.268,211.508 257.934,213.674 259.5,216C 260.759,216.982 262.092,217.315 263.5,217C 261.833,214.667 259.833,212.667 257.5,211C 261.119,207.321 261.452,203.321 258.5,199C 258.978,197.358 259.978,196.191 261.5,195.5 Z"/></g>
<g><path style="opacity:1" fill="#e7ecf3" d="M 145.5,188.5 C 144.626,189.525 143.459,190.192 142,190.5C 139.6,189.956 137.267,189.289 135,188.5C 134.169,196.188 134.335,203.855 135.5,211.5C 136.192,212.025 136.692,212.692 137,213.5C 137.119,209.99 138.286,206.99 140.5,204.5C 140.43,203.228 140.097,202.062 139.5,201C 140.094,200.536 140.761,200.369 141.5,200.5C 141.5,207.5 141.5,214.5 141.5,221.5C 138.833,221.5 136.167,221.5 133.5,221.5C 133.5,210.167 133.5,198.833 133.5,187.5C 137.534,187.505 141.534,187.838 145.5,188.5 Z"/></g>
<g><path style="opacity:0.925" fill="#bf9876" d="M 257.5,220.5 C 256.91,218.903 255.91,217.569 254.5,216.5C 257.032,216.069 259.366,216.902 261.5,219C 266.305,219.781 270.972,219.281 275.5,217.5C 275.833,217.833 276.167,218.167 276.5,218.5C 270.623,222.909 264.289,223.576 257.5,220.5 Z"/></g>
</svg>
